<?xml version="1.0" encoding="UTF-8"?>
<svg width="642px" height="476px" viewBox="0 0 642 476" version="1.1" xmlns="http://www.w3.org/2000/svg" xmlns:xlink="http://www.w3.org/1999/xlink">
    <!-- Generator: Sketch 63.1 (92452) - https://sketch.com -->
    <title>undraw_celebration_0jvk</title>
    <desc>Created with Sketch.</desc>
    <defs>
        <linearGradient x1="49.9827925%" y1="100.013613%" x2="49.9827925%" y2="0.0051937973%" id="linearGradient-1">
            <stop stop-color="#808080" stop-opacity="0.25" offset="0%"></stop>
            <stop stop-color="#808080" stop-opacity="0.12" offset="54%"></stop>
            <stop stop-color="#808080" stop-opacity="0.1" offset="100%"></stop>
        </linearGradient>
        <linearGradient x1="49.5%" y1="61.1480512%" x2="49.5%" y2="39.1480512%" id="linearGradient-2">
            <stop stop-color="#808080" stop-opacity="0.25" offset="0%"></stop>
            <stop stop-color="#808080" stop-opacity="0.12" offset="54%"></stop>
            <stop stop-color="#808080" stop-opacity="0.1" offset="100%"></stop>
        </linearGradient>
        <linearGradient x1="49.9920514%" y1="100.018732%" x2="49.9920514%" y2="0.00740419236%" id="linearGradient-3">
            <stop stop-color="#808080" stop-opacity="0.25" offset="0%"></stop>
            <stop stop-color="#808080" stop-opacity="0.12" offset="54%"></stop>
            <stop stop-color="#808080" stop-opacity="0.1" offset="100%"></stop>
        </linearGradient>
        <linearGradient x1="49.9978047%" y1="99.9941107%" x2="49.9978047%" y2="-3.23460403e-05%" id="linearGradient-4">
            <stop stop-color="#808080" stop-opacity="0.25" offset="0%"></stop>
            <stop stop-color="#808080" stop-opacity="0.12" offset="54%"></stop>
            <stop stop-color="#808080" stop-opacity="0.1" offset="100%"></stop>
        </linearGradient>
    </defs>
    <g id="🖥-Layout-samples" stroke="none" stroke-width="1" fill="none" fill-rule="evenodd">
        <g id="1.page-home" transform="translate(-125.000000, -2325.000000)">
            <g id="Section-about" transform="translate(0.000000, 2245.000000)">
                <g id="undraw_celebration_0jvk" transform="translate(125.000000, 80.000000)">
                    <circle id="Oval" fill="#FFAF59" fill-rule="nonzero" cx="96.291" cy="46.221" r="32.543"></circle>
                    <path d="M39.7788781,112.469 C53.4428781,143.332 36.0128781,178.871 15.4958781,205.632 C8.62887809,214.606 1.04787809,224.014 0.0958780871,235.27 C-1.05212191,249.039 8.27187809,261.695 19.3318781,269.969 C39.5058781,285.047 67.0578781,289.709 91.0678781,282.1 C111.815878,275.527 129.259878,260.68 150.189878,254.695 C185.189878,244.671 222.289878,261.289 252.263878,281.995 C273.480878,296.632 296.202878,314.468 321.780878,311.332 C339.777878,309.127 355.051878,296.492 365.418878,281.617 C370.423878,274.435 374.777878,266.385 382.064878,261.541 C386.397878,258.657 391.486878,257.131 396.575878,256.039 C443.048878,246.106 492.370878,270.347 538.227878,257.88 C569.202878,249.48 593.898878,224.98 609.256878,196.791 C624.614878,168.602 631.782878,136.773 637.753878,105.238 C641.995878,82.838 645.516878,58.639 635.765878,38.038 C625.447878,16.226 601.563878,3.003 577.560878,0.525 C553.557878,-1.953 529.484878,4.886 507.371878,14.532 C479.742878,26.614 452.659878,43.526 422.503878,43.582 C401.965878,43.624 382.379878,35.742 362.744878,29.729 C329.914878,19.684 295.775878,14.693 261.755878,10.087 C229.184878,5.677 196.291878,1.575 163.524878,4.179 C140.340878,6.02 119.865878,14.882 97.3678781,18.984 C82.7028781,21.658 67.9678781,19.684 53.5758781,24.164 C35.8518781,29.708 17.6238781,42.553 16.6438781,62.783 C15.7198781,82.04 32.5338781,96.096 39.7788781,112.469 Z" id="Path" fill="#B6B6B6" fill-rule="nonzero" opacity="0.1"></path>
                    <path d="M451.03,139.951 C448.041,132.16 440.334,113.848 435.259,117.481 C428.847,122.073 441.671,142.359 441.671,142.359 C442.035,146.083 434.825,153.832 430.961,157.696 C430.961,157.388 430.961,157.213 430.961,157.213 C430.92419,157.359934 430.867678,157.501214 430.793,157.633 L430.471,157.458 C430.384894,157.766752 430.229252,158.051697 430.016,158.291 C430.016,157.766 429.981,157.458 429.981,157.458 C429.239,160.601 416.289,164.584 416.289,164.584 C416.289,164.584 415.939,164.584 415.337,164.584 C411.739,164.584 402.373,163.772 398.033,156.828 C395.788326,153.066207 392.916559,149.716207 389.542,146.923 C388.386357,146.017526 386.98247,145.48527 385.517,145.397 C373.526,144.627 363.817,138.558 361.878,137.263 L361.521,137.018 L361.444,137.242 C360.989,136.591 360.548,135.898 360.135,135.184 L360.135,135.184 L359.925,134.799 C365.843619,131.827903 369.590974,125.783433 369.62,119.161 C369.62,119.042 369.62,118.916 369.62,118.797 C370.674866,116.973705 371.230208,114.904453 371.23,112.798 L371.23,110.698 L373.967,108.262 C375.22,107.149 376.515,105.973 377.152,104.44 C377.407821,103.819627 377.522587,103.150158 377.488,102.48 C377.612764,101.31276 377.125685,100.163888 376.2,99.442 C374.1,97.993 370.6,99.442 369.081,97.426 C368.381,96.516 368.507,95.277 368.164,94.206 C367.464,92.029 364.944,90.853 362.613,90.8169496 C360.282,90.783 358.049,91.63 355.809,92.267 C351.102892,93.6030586 346.191407,94.063362 341.319,93.625 C340.000989,93.3904255 338.648208,93.4381427 337.35,93.765 C335.741819,94.429728 334.546147,95.8203456 334.13,97.51 C333.956858,98.1360061 333.853562,98.7792585 333.822,99.428 C331.869089,101.630694 330.788634,104.471244 330.784,107.415 L330.784,112.798 C330.78825,115.671702 331.818427,118.449456 333.689,120.631 C334.13591,125.757565 336.816562,130.427583 341.018,133.399 C341.018,133.539 341.018,133.681333 341.018,133.826 L341.109,133.882 C340.99581,135.550816 340.738179,137.20668 340.339,138.831 L340.339,138.474 C340.339,138.474 330.539,143.689 320.039,143.815 L318.884,143.815 C316.812798,143.745217 314.79861,144.500538 313.284,145.915 C310.176,148.841 304.73,153.468 301.384,153.468 C300.684,153.468 283.016,156.919 280.09,157.493 L274.623,152.138 L274.455,152.453 L274.133,152.138 C273.535173,152.184156 272.941151,152.270686 272.355,152.397 C269.555,149.079 263.955,141.365 262.66,131.012 C262.66,131.012 274.749,117.243 270.304,104.412 C266.51,93.478 256.059,116.914 253.091,123.977 C252.571795,125.209499 252.507294,126.586359 252.909,127.862 L262.73,159.516 C261.794845,161.968844 261.526736,164.625777 261.953,167.216 L261.841,167.216 L268.995,176.393 C268.995,176.393 274.378,178.689 282.799,178.647 C288.970868,178.65713 295.087387,177.483252 300.817,175.189 L302.476,175.189 L302.161,175.308 L310.68,175.308 L316.098,191.695 C315.916,193.186 313.298,213.997 311.198,218.652 C310.574903,220.207324 310.293214,221.878359 310.372,223.552 C310.482257,226.767642 311.006921,229.955623 311.933,233.037 L316.679,232.862 L316.497,233.233 C312.479,241.472 305.766,256.151 301.797,269.871 L294.888,283.871 L300.068,346.661 L300.068,346.661 L300.278,346.661 L300.278,346.661 L300.677,346.724 L300.677,346.724 C301.237,346.808 302.077,346.934 303.183,347.074 L302.777,347.774 L291.36,366.674 C291.36,366.674 283.219,383.341 301.23,380.198 C301.23,380.198 307.887,378.266 310.603,366.898 L322.447,355.789 C322.447,355.789 323,348.411 319.647,345.464 C319.437,342.055 318.905,332.101 319.724,329.707 C320.711,326.809 315.524,293.482 315.524,293.482 C315.524,293.482 334.27,254.597 345.624,253.631 C346.456305,253.572536 347.291868,253.682039 348.081,253.953 C357.412,256.991 368.717,279.552 372.042,286.573 L372.042,286.573 L372.196,286.895 L372.196,286.958 L372.322,287.231 L372.322,287.308 L372.434,287.546 L372.434,287.609 L372.532,287.826 L372.532,287.875 L372.616,288.05 L372.616,288.12 L372.679,288.253 L372.679,288.309 L372.721,288.407 L372.721,288.463 L372.721,288.526 L372.721,288.526 L372.756,288.61 L374.233,332.325 L374.233,332.325 L374.233,332.325 L374.233,332.325 L374.38,332.402 L374.38,332.402 L374.45,332.402 L374.324,333.305 L373.68,337.82 C373.68,337.82 381.821,354.97 381.324,357.14 C380.827,359.31 386.749,368.011 395.135,365.596 C403.521,363.181 398.53,349.566 398.53,349.566 L390.452,332.92 L390.095,332.178 C390.899656,331.68422 391.658663,331.119649 392.363,330.491 C392.363,330.491 389.899,312.62 392.363,308.756 C394.827,304.892 395.569,287.259 395.569,287.259 C395.569,287.259 393.84,275.184 390.879,269.871 L378.475,225.596 C382.192,229.054 385.083,230.405 387.498,230.314 L387.897,230.314 C388.95858,230.333999 390.006604,230.073201 390.935,229.558 C391.43349,229.276632 391.902504,228.945977 392.335,228.571 C392.417588,228.499799 392.494799,228.422588 392.566,228.34 L392.566,228.34 C396.017,225.442 388.618,214.088 384.425,207.34 C380.386,200.83 385.951,183.141 386.371,181.825 C386.744628,181.550761 387.14579,181.316164 387.568,181.125 C388.4362,180.753014 389.3677,180.551031 390.312,180.53 C394.33,180.67 399.272,182.98 405.39,184.142 C409.641782,184.865222 413.950527,185.200268 418.263,185.143 L418.515,185.143 C420.23,185.143 421.784,185.108 423.044,185.059 C424.193557,185.013786 425.318118,184.709916 426.334,184.17 L426.334,184.17 C427.204712,183.662271 427.993073,183.024973 428.672,182.28 L439.41,170.149 L439.13,170.282 C439.650449,168.906243 439.650449,167.387757 439.13,166.012 L450.477,146.412 C451.637402,144.455492 451.841042,142.076245 451.03,139.951 Z" id="Path" fill="url(#linearGradient-1)" fill-rule="nonzero"></path>
                    <path d="M323.546,354.13 L312.115,365.085 C309.497,376.285 303.064,378.182 303.064,378.182 C285.683,381.276 293.537,364.882 293.537,364.882 L304.562,346.227 L305.92,343.924 C305.92,343.924 313.781,341.544 319.017,342.972 C319.678065,343.153205 320.288735,343.483685 320.802,343.938 C324.085,346.787 323.546,354.13 323.546,354.13 Z" id="Path" fill="#444176" fill-rule="nonzero"></path>
                    <path d="M394.029,363.895 C385.93,366.275 380.218,357.707 380.729,355.558 C381.24,353.409 373.33,336.532 373.33,336.532 L373.946,332.08 L374.52,327.957 L387.82,328.909 L389.073,331.541 L396.871,347.956 C396.871,347.956 402.128,361.515 394.029,363.895 Z" id="Path" fill="#444176" fill-rule="nonzero"></path>
                    <path d="M320.928,345.8 C319.675,347.949 309.518,346.864 304.569,346.192 L305.927,343.889 C305.927,343.889 313.788,341.509 319.024,342.937 C319.685065,343.118205 320.295735,343.448685 320.809,343.903 C320.879,345.065 320.928,345.8 320.928,345.8 Z" id="Path" fill="#000000" fill-rule="nonzero" opacity="0.1"></path>
                    <path d="M389.087,331.527 C382.276,336.063 375.024,332.633 373.932,332.066 L374.506,327.943 L387.806,328.895 L389.087,331.527 Z" id="Path" fill="#000000" fill-rule="nonzero" opacity="0.1"></path>
                    <path d="M390.935,307.699 C388.555,311.507 390.935,329.133 390.935,329.133 C383.074,336.28 373.792,331.037 373.792,331.037 L372.392,287.938 C372.392,287.938 356.915,252.455 345.96,253.407 C335.005,254.359 316.91,292.698 316.91,292.698 C316.91,292.698 321.908,325.556 320.956,328.398 C320.004,331.24 320.956,345.065 320.956,345.065 C319.29,347.921 301.909,345.065 301.909,345.065 L296.911,283.15 L303.547,269.332 C307.362,255.808 313.844,241.332 317.722,233.212 C319.647,229.173 320.935,226.709 320.935,226.709 L333.605,224.07 L374.73,215.544 L389.507,269.332 C392.363,274.568 394.029,286.475 394.029,286.475 C394.029,286.475 393.315,303.891 390.935,307.699 Z" id="Path" fill="#008FE4" fill-rule="nonzero"></path>
                    <g id="Group" opacity="0.1" transform="translate(296.400000, 214.900000)" fill="#000000" fill-rule="nonzero">
                        <path d="M81.2,116.137 L79.8,73.038 C79.8,73.038 64.323,37.555 53.368,38.507 C52.878214,38.5547195 52.3962169,38.6628749 51.933,38.829 C62.615,42.378 75.992,73.038 75.992,73.038 L77.392,116.137 C80.3127214,117.624949 83.6049284,118.225965 86.863,117.866 C84.8880713,117.628467 82.9708061,117.043097 81.2,116.137 Z" id="Path"></path>
                        <path d="M9.289,130.186 L4.291,68.271 L10.955,54.432 C14.77,40.908 21.252,26.432 25.13,18.312 C27.055,14.273 28.343,11.809 28.343,11.809 L41.013,9.17 L78.554,1.365 L78.351,0.616 L37.205,9.17 L24.535,11.809 C24.535,11.809 23.247,14.273 21.322,18.312 C17.43,26.432 10.962,40.936 7.147,54.432 L0.483,68.243 L5.481,130.158 C5.481,130.158 14.973,131.719 20.601,131.376 C16.8126748,131.170392 13.0371806,130.773218 9.289,130.186 L9.289,130.186 Z" id="Path"></path>
                    </g>
                    <path d="M276.73,153.279 C276.73,153.279 263.157,153.979 265.061,168.28 L268.869,168.756 L274.581,162.568 L277.437,157.332 L277.437,156.142 L276.73,153.279 Z" id="Path" fill="#CED2DF" fill-rule="nonzero"></path>
                    <path d="M276.73,153.279 C276.73,153.279 263.157,153.979 265.061,168.28 L268.869,168.756 L274.581,162.568 L277.437,157.332 L277.437,156.142 L276.73,153.279 Z" id="Path" fill="#000000" fill-rule="nonzero" opacity="0.1"></path>
                    <path d="M427.727,158.515 C427.727,158.515 438.927,164.465 436.064,171.374 L432.494,172.774 L427.734,170.156 L427.034,163.968 L427.51,159.684 L427.727,158.515 Z" id="Path" fill="#CED2DF" fill-rule="nonzero"></path>
                    <path d="M427.727,158.515 C427.727,158.515 438.927,164.465 436.064,171.374 L432.494,172.774 L427.734,170.156 L427.034,163.968 L427.51,159.684 L427.727,158.515 Z" id="Path" fill="#000000" fill-rule="nonzero" opacity="0.1"></path>
                    <rect id="Rectangle" fill="#88455E" fill-rule="nonzero" x="331.526" y="97.076" width="39.053" height="29.526" rx="14.763"></rect>
                    <path d="M276.639,155.302 L268.302,168.602 L267.602,166.236 L256.276,129.332 C255.888662,128.073976 255.950523,126.720447 256.451,125.503 C259.314,118.545 269.408,95.403 273.069,106.218 C277.353,118.818 265.684,132.412 265.684,132.412 C267.014,143.444 273.209,151.438 275.645,154.21 C276.261,154.931 276.639,155.302 276.639,155.302 Z" id="Path" fill="#EC8C9C" fill-rule="nonzero"></path>
                    <path d="M425.942,161.014 C425.942,161.014 439.039,148.631 438.542,143.633 C438.542,143.633 426.159,123.634 432.354,119.133 C437.254,115.549 444.695,133.609 447.579,141.288 C448.350736,143.358503 448.168849,145.664119 447.082,147.588 L431.43,175.301 L425.942,161.014 Z" id="Path" fill="#EC8C9C" fill-rule="nonzero"></path>
                    <path d="M341.165,126.49 C341.165,126.49 343.545,141.729 336.643,147.448 C329.741,153.167 356.411,153.132003 356.411,153.132003 L365.938,144.319 C365.938,144.319 354.983,134.078 358.315,126.462 L341.165,126.49 Z" id="Path" fill="#EC8C9C" fill-rule="nonzero"></path>
                    <path d="M340.689,143.871 C340.689,143.871 350.93,151.494 361.164,142.919 L377.831,177.45 L376.879,219.597 C376.879,219.597 342.348,237.454 328.061,226.506 C313.774,215.558 325.681,209.839 325.681,209.839 L322.349,177.457 L325.919,156.499 C325.919,156.499 332.345,146.496 332.828,146.496 C333.311,146.496 340.689,143.871 340.689,143.871 Z" id="Path" fill="#000000" fill-rule="nonzero" opacity="0.1"></path>
                    <path d="M340.689,143.395 C340.689,143.395 350.93,151.032 361.171,142.443 L377.838,176.974 L376.886,219.121 C376.886,219.121 342.355,236.978 328.068,226.03 C313.781,215.082 325.688,209.363 325.688,209.363 L322.356,176.981 L325.926,156.023 C325.926,156.023 332.352,146.02 332.835,146.02 C333.318,146.02 340.689,143.395 340.689,143.395 Z" id="Path" fill="#EBF1F6" fill-rule="nonzero"></path>
                    <path d="M340.689,139.832 C340.689,139.832 330.98,145.362 320.438,145.089 C318.440473,145.026472 316.501344,145.76783 315.055,147.147 C312.052,150.031 306.795,154.595 303.54,154.595 C302.84,154.595 282.582,158.641 282.582,158.641 L277.227,153.286 C277.227,153.286 269.247,168.882 265.439,168.168 L272.348,177.219 C272.348,177.219 285.445,182.931 302.588,176.029 L312.591,176.029 L317.827,192.22 C317.827,192.22 315.209,214.13 313.067,218.89 C310.925,223.65 313.767,232.939 313.767,232.939 L332.576,232.239 C332.576,232.239 333.528,222.95 334.956,221.739 C336.384,220.528 329.958,179.592 329.958,179.592 C329.958,179.592 325.674,156.492 341.389,148.162 L340.689,139.832 Z" id="Path" fill="#000000" fill-rule="nonzero" opacity="0.1"></path>
                    <path d="M333.598,224.098 C332.905347,226.922923 332.411801,229.792973 332.121,232.687 L317.722,233.233 C319.647,229.194 320.935,226.73 320.935,226.73 L333.598,224.098 Z" id="Path" fill="#000000" fill-rule="nonzero" opacity="0.1"></path>
                    <path d="M276.639,155.302 L268.302,168.602 L267.602,166.236 C270.661,163.198 274.245,156.849 275.673,154.203 C276.261,154.931 276.639,155.302 276.639,155.302 Z" id="Path" fill="#000000" fill-rule="nonzero" opacity="0.1"></path>
                    <path d="M340.689,139.832 C340.689,139.832 330.497,145.362 319.962,145.089 C317.964473,145.026472 316.025344,145.76783 314.579,147.147 C311.576,150.031 306.319,154.595 303.064,154.595 C302.364,154.595 282.106,158.641 282.106,158.641 L276.73,153.279 C276.73,153.279 268.75,168.875 264.942,168.161 L271.851,177.212 C271.851,177.212 284.948,182.924 302.091,176.022 L312.094,176.022 L317.33,192.206 C317.33,192.206 314.712,214.116 312.57,218.876 C310.428,223.636 313.27,232.925 313.27,232.925 L332.079,232.225 C332.079,232.225 333.031,222.936 334.459,221.725 C335.887,220.514 329.461,179.578 329.461,179.578 C329.461,179.578 325.177,156.478 340.892,148.148 L340.689,139.832 Z" id="Path" fill="#CED2DF" fill-rule="nonzero"></path>
                    <path d="M361.171,138.39 C361.171,138.39 370.887,145.796 383.858,146.65 C385.27721,146.73905 386.634176,147.264721 387.743,148.155 C391.014328,150.930191 393.786666,154.244686 395.94,157.955 C401.176,166.53 414.035,165.578 414.035,165.578 C414.035,165.578 426.537,161.651 427.251,158.578 C427.251,158.578 427.608,175.378 435.469,171.318 L425.13,183.232 C423.812725,184.753154 421.925553,185.662542 419.915,185.745 C416.03,185.899 409.282,185.948 403.584,184.842 C395.009,183.176 388.821,179.13 384.299,182.7 C384.299,182.7 378.349,201.271 382.395,207.942 C386.441,214.613 393.595,225.799 390.256,228.662 C386.917,231.525 382.871,231.28 376.207,224.378 C369.543,217.476 368.822,205.807 368.822,205.807 L370.488,175.805 C370.488,175.805 364.062,153.181 357.888,148.659 L361.171,138.39 Z" id="Path" fill="#000000" fill-rule="nonzero" opacity="0.1"></path>
                    <path d="M436.414,171.017 L426.047,182.98 C425.358019,183.773612 424.505526,184.408803 423.548,184.842 L423.548,184.842 C422.6967,185.226182 421.779259,185.442469 420.846,185.479 C416.961,185.64 410.213,185.689 404.515,184.576 C396.493,183.015 390.557,179.375 386.119,181.832 C385.804433,182.005279 385.504743,182.204291 385.223,182.427 C385.223,182.427 379.273,200.998 383.319,207.669 C387.365,214.34 394.519,225.526 391.18,228.389 C390.621123,228.880535 389.993932,229.288445 389.318,229.6 C386.322,230.951 382.605,229.782 377.131,224.105 C370.467,217.196 369.746,205.534 369.746,205.534 L371.412,175.532 C371.412,175.532 364.986,152.908 358.812,148.386 L361.535,138.621 C363.411,139.895 372.777,145.88 384.355,146.643 C385.77421,146.73205 387.131176,147.257721 388.24,148.148 C391.510936,150.92358 394.283214,154.238003 396.437,157.948 C401.673,166.523 414.532,165.571 414.532,165.571 C417.614784,164.587549 420.62511,163.389968 423.541,161.987 L423.541,161.987 C425.368,161.091 426.978,160.111 427.741,159.187 C427.955186,158.945674 428.110881,158.658237 428.196,158.347 C428.196,158.347 428.56,175.063 436.414,171.017 Z" id="Path" fill="#000000" fill-rule="nonzero" opacity="0.1"></path>
                    <path d="M435.938,171.255 L425.578,183.232 C425.008313,183.889317 424.325541,184.439328 423.562,184.856 L423.562,184.856 C422.583686,185.387274 421.496377,185.686643 420.384,185.731 C416.499,185.892 409.751,185.941 404.053,184.828 C396.318,183.323 390.515,179.879 386.14,181.846 C385.640125,182.06362 385.169737,182.343501 384.74,182.679 C384.74,182.679 378.79,201.25 382.836,207.921 C386.882,214.592 394.036,225.778 390.697,228.641 C390.265144,229.012755 389.795979,229.338825 389.297,229.614 C386.217,231.315 382.409,230.314 376.634,224.357 C369.97,217.448 369.249,205.786 369.249,205.786 L370.915,175.784 C370.915,175.784 364.489,153.16 358.315,148.638 L361.171,138.397 L361.514,138.635 C363.39,139.909 372.756,145.894 384.334,146.657 C385.75321,146.74605 387.110176,147.271721 388.219,148.162 C391.489936,150.93758 394.262214,154.252003 396.416,157.962 C401.652,166.537 414.511,165.585 414.511,165.585 C417.593784,164.601549 420.60411,163.403968 423.52,162.001 L423.52,162.001 C425.683,160.895 427.447,159.684 427.72,158.578 C427.72,158.578 427.72,158.795 427.72,159.18 C427.93,162.071 428.98,174.832 435.938,171.255 Z" id="Path" fill="#CED2DF" fill-rule="nonzero"></path>
                    <path d="M358.525,126.847 L341.025,126.847 C341.409876,129.629435 341.520074,132.442986 341.354,135.247 C346.79785,139.07772 353.91203,139.589338 359.848,136.577 C358.168,133.469 357.146,129.941 358.525,126.847 Z" id="Path" fill="#000000" fill-rule="nonzero" opacity="0.1"></path>
                    <circle id="Oval" fill="#EC8C9C" fill-rule="nonzero" cx="351.644" cy="120.771" r="17.381"></circle>
                    <path d="M348.032,117.677 C349.971,117.446 351.91,116.76 353.821,117.145 C355.557,117.495 357.034,118.692 358.77,119.056 C362.116,119.756 365.224,117.292 367.751,114.996 L373.211,110.026 C374.422,108.927 375.668,107.772 376.291,106.26 C376.914,104.748 376.697,102.76 375.367,101.808 C373.372,100.408 369.935,101.808 368.493,99.82 C367.842,98.924 367.94,97.72 367.604,96.649 C366.904,94.507 364.496,93.338 362.242,93.31 C359.988,93.282 357.832,94.108 355.676,94.71 C351.134058,96.0275157 346.385215,96.4810302 341.676,96.047 C340.405039,95.8142981 339.098752,95.8596718 337.847,96.18 C336.284464,96.8470154 335.131149,98.2159278 334.739,99.869 C333.661,103.677 335.502,109.816 337.35,113.225 C339.198,116.634 344.343,118.132 348.032,117.677 Z" id="Path" fill="#000000" fill-rule="nonzero" opacity="0.1"></path>
                    <path d="M348.032,117.201 C349.971,116.97 351.91,116.284 353.821,116.669 C355.557,117.019 357.034,118.216 358.77,118.58 C362.116,119.28 365.224,116.816 367.751,114.52 L373.211,109.55 C374.422,108.451 375.668,107.296 376.291,105.784 C376.914,104.272 376.697,102.284 375.367,101.332 C373.372,99.932 369.935,101.332 368.493,99.344 C367.842,98.448 367.94,97.244 367.604,96.173 C366.904,94.031 364.496,92.862 362.242,92.834 C359.988,92.806 357.832,93.632 355.676,94.234 C351.134058,95.5515157 346.385215,96.0050302 341.676,95.571 C340.405039,95.3382981 339.098752,95.3836718 337.847,95.704 C336.284464,96.3710154 335.131149,97.7399278 334.739,99.393 C333.661,103.201 335.502,109.34 337.35,112.749 C339.198,116.158 344.343,117.621 348.032,117.201 Z" id="Path" fill="#88455E" fill-rule="nonzero"></path>
                    <path d="M317.715,192.332 C317.715,192.332 321.523,192.808 323.427,195.188 C325.331,197.568 328.663,198.282 328.663,198.282" id="Path" fill="#000000" fill-rule="nonzero" opacity="0.1"></path>
                    <path d="M283.422,160.895 C283.422,160.895 286.53,167.832 284.612,168.532 C282.694,169.232 283.422,174.244 283.422,174.244" id="Path" fill="#000000" fill-rule="nonzero" opacity="0.1"></path>
                    <g id="Group" opacity="0.1" transform="translate(283.800000, 139.300000)" fill="#000000" fill-rule="nonzero">
                        <path d="M0.693,19.215 C0.693,19.215 20.93,15.169 21.63,15.169 C24.892,15.169 30.142,10.605 33.145,7.721 C34.0582437,6.84608664 35.1817948,6.2216237 36.407,5.908 L36.148,5.908 C34.1504733,5.84547206 32.2113442,6.58682959 30.765,7.966 C27.762,10.85 22.505,15.414 19.25,15.414 C18.683,15.414 5.733,17.983 0.476,19.026 L0.693,19.215 Z" id="Path"></path>
                        <path d="M56.917,1.533 L56.917,0.644 C52.048739,3.12629068 46.8100293,4.80239413 41.405,5.607 C46.7677633,5.12975532 52.0118101,3.7524831 56.917,1.533 L56.917,1.533 Z" id="Path"></path>
                        <path d="M31.892,93.506 C31.892,93.506 29.036,84.217 31.192,79.457 C33.348,74.697 35.952,52.787 35.952,52.787 L30.73,36.596 L20.699,36.596 L20.09,36.834 L28.315,36.834 L33.53,53.032 C33.53,53.032 30.912,74.942 28.77,79.702 C26.628,84.462 29.47,93.751 29.47,93.751 L48.279,93.051 L48.279,92.904 L31.892,93.506 Z" id="Path"></path>
                    </g>
                    <g id="Group" opacity="0.1" transform="translate(369.200000, 170.800000)" fill="#000000" fill-rule="nonzero">
                        <path d="M21.735,54.033 C21.3031444,54.4047554 20.8339792,54.7308252 20.335,55.006 C17.255,56.707 13.447,55.706 7.672,49.749 C2.38,44.268 0.84,35.749 0.427,32.522 L0.287,34.986 C0.287,34.986 0.987,46.655 7.672,53.557 C13.447,59.535 17.255,60.515 20.335,58.814 C20.8339792,58.5388252 21.3031444,58.2127554 21.735,57.841 C22.736,56.98 22.792,55.363 22.267,53.347 C22.1368767,53.6086606 21.9560393,53.8418457 21.735,54.033 L21.735,54.033 Z" id="Path"></path>
                        <path d="M63.371,0.812 L56.63,8.603 C56.0603127,9.26031736 55.3775407,9.81032813 54.614,10.227 L54.614,10.227 C53.6356864,10.7582741 52.5483769,11.0576435 51.436,11.102 C47.551,11.263 40.803,11.312 35.105,10.199 C27.37,8.694 21.567,5.25 17.192,7.217 C16.6921253,7.43461982 16.2217366,7.71450107 15.792,8.05 C15.792,8.05 11.949,20.048 12.537,28.217 C12.992,20.58 15.792,11.858 15.792,11.858 C16.2217366,11.5225011 16.6921253,11.2426198 17.192,11.025 C21.574,9.058 27.37,12.502 35.105,14.007 C40.803,15.113 47.544,15.064 51.436,14.91 C52.5483769,14.8656435 53.6356864,14.5662741 54.614,14.035 L54.614,14.035 C55.3758499,13.6246084 56.0585112,13.0817978 56.63,12.432 L66.997,0.469 C65.9092108,1.1462552 64.5664875,1.27326957 63.371,0.812 Z" id="Path"></path>
                    </g>
                    <path d="M128.148,257.355 C128.318616,257.520326 128.577359,257.554446 128.785,257.439 C128.569675,257.442764 128.354989,257.414454 128.148,257.355 L128.148,257.355 Z" id="Path" fill="url(#linearGradient-2)" fill-rule="nonzero"></path>
                    <path d="M199.485,141.4 C198.225,141.036 196.426,140.441 194.263,139.685 C196.510748,136.793163 198.155531,133.479795 199.1,129.941 L198.918,130.011 C198.981,129.794 199.044,129.584 199.1,129.36 C194.949,131.047 190.357,128.191 187.431,124.523 C184.505,120.855 182.531,116.305 179.325,112.931 C177.988946,111.588776 176.55208,110.350825 175.027,109.228 C174.082,108.528 173.067,107.737 171.912,107.702 C170.043,107.646 168.58,109.48 166.781,110.019 C165.59729,110.285419 164.364657,110.239588 163.204,109.886 C158.563,108.822 154.104,106.855 149.365,106.337 C146.829567,106.023854 144.25602,106.314068 141.854,107.184 C139.474,108.087 138.389,109.886 136.464,111.328 C134.364,112.875 130.262,112.84 127.819,113.113 C124.854486,113.451608 121.869383,113.575597 118.887,113.484 C117.17308,113.335388 115.44737,113.398868 113.749,113.673 C110.2,114.45 107.351,117.271 104.691,119.973 C103.96493,120.584243 103.442384,121.402247 103.193,122.318 C103.15887,122.575876 103.15887,122.837124 103.193,123.095 C103.166209,123.80073 103.287831,124.504226 103.55,125.16 C104.368822,127.589757 105.525858,129.892046 106.987,131.999 C108.072,133.553 109.339,135.016 109.955,136.857 C110.247,137.762048 110.400402,138.706062 110.41,139.657 C110.379808,140.666758 110.274518,141.672869 110.095,142.667 C109.625292,145.415429 108.852926,148.103449 107.792,150.682 C107.133359,152.005644 106.680162,153.421883 106.448,154.882 C106.427983,155.180331 106.427983,155.479669 106.448,155.778 C106.273,160.398 110.935,163.723 111.838,168.315 C111.912192,168.695972 111.95666,169.082136 111.971,169.47 C111.873,172.333 110.242,175.133 107.834,176.246 C108.044,176.33 108.261,176.4 108.478,176.47 C108.270876,176.600041 108.055786,176.716938 107.834,176.82 C108.275,176.988 108.723,177.135 109.178,177.254 C106.44132,179.637653 104.141209,182.480219 102.381,185.654 C94.282,200.732 39.43,230.265 39.43,230.265 L40.242,230.727 L39.584,231.154 C34.838,234.311 23.701,243.516 33.767,255.157 C33.767,255.157 41.628,242.753 47.137,237.468 C47.382,237.23 47.627,237.013 47.837,236.81 C48.0816799,237.186769 48.1578114,237.648634 48.047,238.084 L84.111,217.819 C84.111,217.819 96.928,208.845 100.505,206.822 C103.02266,205.253439 105.762464,204.073506 108.632,203.322 L108.212,203.497 C109.56043,203.12609 110.950623,202.928499 112.349,202.909 C118.733,203.007 125.649,207.683 127.924,226.198 C130.976,250.992 129.562,255.465 128.582,256.074 C128.461182,256.065074 128.341575,256.043967 128.225,256.011 C128.255274,256.037514 128.288101,256.060962 128.323,256.081 C128.19022,256.07164 128.058813,256.048174 127.931,256.011 C128.074391,256.142591 128.27582,256.190298 128.463,256.137 C128.596966,256.177584 128.741835,256.159793 128.862,256.088 L128.862,256.088 C129.022863,256.097391 129.184137,256.097391 129.345,256.088 C129.345,256.316667 129.328667,256.55 129.296,256.788 C129.247,256.788 129.009,256.921 129.296,256.935 L129.296,256.935 C129.219,258.335 129.226,259.854 129.296,261.443 C126.125,261.618 122.954,261.807 120.196,261.975 L120.441,260.666 L120.553,260.078 C122.989,259.882 125.299,259.168 125.572,257.194 C126.167,252.854 120.21,250.537 115.142,250.25 C110.074,249.963 79.68,251.986 79.68,251.986 C79.68,251.986 75.123,257.887 89.578,259.686 C90.0073333,259.91 90.453,260.143333 90.915,260.386 C96.578,263.613 104.257,269.556 107.939,272.482 L108.45,272.888 L106.798,274.232 C115.737,276.255 124.382,310.415 129.149,326.032 C133.916,341.649 144.346,341.082 152.991,338.765 C161.09,336.595 162.091,313.075 162.224,310.121 L162.224,309.82 L176.63,327.614 L177.722,328.965 C178.142,329.184333 178.557333,329.389667 178.968,329.581 C189.874,334.768 201.921,324.821 198.498,313.481 C195.033,302.05 189.657,285.145 186.073,277.998 C183.07,272.013 179.192,262.073 176.84,255.85 C177.145409,255.727389 177.442388,255.584746 177.729,255.423 C177.729,255.423 177.673,255.143 177.582,254.632 L177.729,254.555 C177.729,254.555 174.229,236.551 174.075,223.755 C174.075,223.531 174.075,223.297667 174.075,223.055 C174.075,222.915 174.075,222.775 174.075,222.642 C176.679,222.047 178.331,221.816 178.331,221.816 L178.38,221.256 L178.079,221.319 L179.528,204.736 C179.528,204.736 184.848,193.417 180.774,188.706 C179.535441,187.328244 178.708415,185.630536 178.387,183.806 C177.687,179.473 178.387,172.242 187.872,166.236 C202.474,156.975 208.172718,149.436 208.172718,149.436 C208.172718,149.436 208.424,144.032 199.485,141.4 Z M170.484,152.908 L170.484,145.243 C173.193,145.11 175.958,145.425 178.681,145.243 C180.017719,145.149611 181.342243,144.926903 182.636,144.578 L183.294,145.033 C179.310152,148.097313 175.016809,150.736663 170.484,152.908 L170.484,152.908 Z M129.079,273.056 C130.15,273.798 131.228,274.568 132.285,275.345 C132.943,279.125 133.524,281.792 133.566,281.981 C132.357956,278.869903 130.855464,275.881327 129.079,273.056 L129.079,273.056 Z" id="Shape" fill="url(#linearGradient-3)" fill-rule="nonzero"></path>
                    <path d="M152.221,266.756 L151.591,270.179 L151.108,272.797 L150.226,277.585 L141.672,283.57 C141.672,283.57 140.902,282.912 139.628,281.869 C136.128,278.985 128.757,273.133 123.346,269.969 C121.955487,269.081112 120.450703,268.386415 118.873,267.904 L152.221,266.756 Z" id="Path" fill="#FFBDC6" fill-rule="nonzero"></path>
                    <path d="M152.221,266.756 L151.591,270.179 C149.705478,270.283878 147.814147,270.187669 145.949,269.892 L125.992,270.179 C125.047,270.123 124.165,270.046 123.339,269.962 C121.948487,269.074112 120.443703,268.379415 118.866,267.897 L152.221,266.756 Z" id="Path" fill="#000000" fill-rule="nonzero" opacity="0.1"></path>
                    <path d="M145.949,269.332 C145.949,269.332 155.931,271.04 156.498,266.763 C157.065,262.486 151.367,260.232 146.53,259.91 C141.693,259.588 112.594,261.632 112.594,261.632 C112.594,261.632 107.463,268.471 125.992,269.612 L145.949,269.332 Z" id="Path" fill="#7679B4" fill-rule="nonzero"></path>
                    <path d="M152.221,266.756 L151.591,270.179 L151.108,272.797 L150.226,277.585 L141.672,283.57 C141.672,283.57 140.902,282.912 139.628,281.869 C136.128,278.985 128.757,273.133 123.346,269.969 C121.955487,269.081112 120.450703,268.386415 118.873,267.904 L152.221,266.756 Z" id="Path" fill="#000000" fill-rule="nonzero" opacity="0.1"></path>
                    <path d="M152.221,266.756 L151.591,270.179 C149.705478,270.283878 147.814147,270.187669 145.949,269.892 L125.992,270.179 C125.047,270.123 124.165,270.046 123.339,269.962 C121.948487,269.074112 120.443703,268.379415 118.866,267.897 L152.221,266.756 Z" id="Path" fill="#000000" fill-rule="nonzero" opacity="0.1"></path>
                    <path d="M145.949,269.332 C145.949,269.332 155.931,271.04 156.498,266.763 C157.065,262.486 151.367,260.232 146.53,259.91 C141.693,259.588 112.594,261.632 112.594,261.632 C112.594,261.632 107.463,268.471 125.992,269.612 L145.949,269.332 Z" id="Path" fill="#000000" fill-rule="nonzero" opacity="0.1"></path>
                    <rect id="Rectangle" fill="#A66477" fill-rule="nonzero" x="115.583" y="128.765" width="52.171" height="61.866"></rect>
                    <rect id="Rectangle" fill="#000000" fill-rule="nonzero" opacity="0.1" x="115.583" y="128.765" width="52.171" height="61.866"></rect>
                    <path d="M54.431,234.682 C53.57,234.899 52.478,235.725 51.253,236.929 C45.982,242.137 38.464,254.352 38.464,254.352 C28.832,242.886 39.493,233.821 44.064,230.706 C45.17,229.95 45.912,229.544 45.912,229.544 L54.431,234.682 Z" id="Path" fill="#FFBDC6" fill-rule="nonzero"></path>
                    <path d="M151.654,148.295 C151.654,148.295 154.223,166.257 163.057,170.534 C171.891,174.811 151.654,182.791 151.654,182.791 L123.997,172.529 C123.997,172.529 139.677,167.398 136.541,152.285 L151.654,148.295 Z" id="Path" fill="#FFBDC6" fill-rule="nonzero"></path>
                    <path d="M122.03,256.347 L121.4,259.77 L120.917,262.388 L120.035,267.176 L111.481,273.161 C111.481,273.161 110.711,272.503 109.437,271.46 C105.937,268.576 98.566,262.724 93.155,259.56 C91.7644867,258.672112 90.2597033,257.977415 88.682,257.495 L122.03,256.347 Z" id="Path" fill="#FFBDC6" fill-rule="nonzero"></path>
                    <path d="M122.03,256.347 L121.4,259.77 C119.514478,259.874878 117.623147,259.778669 115.758,259.483 L95.801,259.77 C94.856,259.714 93.974,259.637 93.148,259.553 C91.7574867,258.665112 90.2527033,257.970415 88.675,257.488 L122.03,256.347 Z" id="Path" fill="#000000" fill-rule="nonzero" opacity="0.1"></path>
                    <path d="M115.73,258.916 C115.73,258.916 125.712,260.624 126.279,256.347 C126.846,252.07 121.148,249.788 116.297,249.508 C111.446,249.228 82.368,251.216 82.368,251.216 C82.368,251.216 77.237,258.055 95.766,259.196 L115.73,258.916 Z" id="Path" fill="#7679B4" fill-rule="nonzero"></path>
                    <path d="M120.889,262.395 L120.007,267.183 L111.453,273.168 C111.453,273.168 110.683,272.51 109.409,271.467 L120.721,262.192 L120.889,262.395 Z" id="Path" fill="#000000" fill-rule="nonzero" opacity="0.1"></path>
                    <path d="M177.33,327.663 C176.938,327.471667 176.541333,327.268667 176.14,327.054 L175.097,325.724 L161.321,308.224 L161.321,308.532 C161.23,311.437 160.236,334.607 152.494,336.742 C144.227,339.024 134.245,339.591 129.688,324.198 C125.131,308.805 116.857,275.163 108.303,273.168 L120.987,262.759 C120.987,262.759 129.387,272.559 132.817,281.995 C132.691,281.393 126.888,254.296 131.676,249.508 L173.298,249.508 C173.298,249.508 179.71,267.806 184.134,276.878 C187.564,283.92 192.709,300.566 196.034,311.829 C199.324,322.973 187.83,332.773 177.33,327.663 Z" id="Path" fill="#7679B4" fill-rule="nonzero"></path>
                    <path d="M176.168,254.632 C169.749,258.433 141.525,256.886 132.327,256.27 L129.828,256.088 C129.555,256.088 129.87,255.934 129.87,255.934 L130.129,253.344 L136.968,235.956 L173.606,214.732 C172.864,216.965 172.612,220.388 172.675,224.315 C172.857,236.901 176.168,254.632 176.168,254.632 Z" id="Path" fill="#000000" fill-rule="nonzero" opacity="0.1"></path>
                    <path d="M176.168,253.785 C169.749,257.586 141.525,256.039 132.327,255.423 L129.828,255.241 L129.415,255.241 L129.87,255.122 L132.124,254.527 L136.968,235.137 L173.606,213.899 C172.864,216.132 172.612,219.555 172.675,223.482 C172.857,236.047 176.168,253.785 176.168,253.785 Z" id="Path" fill="#FFAF59" fill-rule="nonzero"></path>
                    <path d="M172.675,223.454 C165.227,225.169 148.833,230.216 142.533,242.354 C138.333,250.46 134.833,253.939 132.334,255.395 L129.835,255.213 L129.877,255.059 L132.131,254.464 L136.975,235.074 L173.613,213.836 C172.857,216.132 172.612,219.527 172.675,223.454 Z" id="Path" fill="#000000" fill-rule="nonzero" opacity="0.1"></path>
                    <path d="M45.877,229.551 L54.431,234.682 C53.57,234.899 52.478,235.725 51.253,236.929 C50.553,234.829 46.059,231.945 44.029,230.713 C45.135,229.957 45.877,229.551 45.877,229.551 Z" id="Path" fill="#000000" fill-rule="nonzero" opacity="0.1"></path>
                    <path d="M128.33,255.57 C128.134171,255.679181 127.890044,255.647955 127.728,255.493 C127.923759,255.548277 128.126631,255.574225 128.33,255.57 L128.33,255.57 Z" id="Path" fill="#000000" fill-rule="nonzero" opacity="0.1"></path>
                    <path d="M147.657,169.393 C147.657,169.393 139.957,170.247 134.539,164.549 C134.539,164.549 111.733,171.108 104.033,185.934 C96.333,200.76 43.875,229.838 43.875,229.838 C43.875,229.838 52.975,234.969 52.142,237.538 L86.638,217.581 C86.638,217.581 98.895,208.74 102.318,206.745 C105.741,204.75 124.557,192.493 128.547,225.848 C132.537,259.203 128.547,255.248 128.547,255.248 C128.547,255.248 134.252,257.243 142.547,241.248 C150.842,225.253 176.476,221.578 176.476,221.578 L177.876,204.778 C177.876,204.778 182.965,193.634 179.066,188.986 C177.876974,187.618325 177.087456,185.949682 176.784,184.163 C176.133,179.893 176.784,172.774 185.884,166.859 C199.884,157.759 205.275135,150.325 205.275135,150.325 C205.275135,150.325 205.561,144.907 197.007,142.345 C188.453,139.783 153.67,125.811 153.67,125.811 L152.529,130.655 L179.899,150.045 C179.899,150.045 166.214,161.161 155.399,160.881 C155.357,160.832 157.352,169.106 147.657,169.393 Z" id="Path" fill="#007AC0" fill-rule="nonzero"></path>
                    <path d="M152.942,156.114 C152.267907,153.816733 151.741827,151.478602 151.367,149.114 L136.254,153.132 C136.915591,156.015917 136.797201,159.024 135.911,161.847 C142.225715,163.531671 148.935283,161.270329 152.942,156.107 L152.942,156.114 Z" id="Path" fill="#000000" fill-rule="nonzero" opacity="0.1"></path>
                    <circle id="Oval" fill="#FFBDC6" fill-rule="nonzero" cx="140.391" cy="145.299" r="16.254"></circle>
                    <path d="M149.029,108.332 C153.537,108.843 157.828,110.782 162.266,111.832 C163.3749,112.179771 164.556458,112.22568 165.689,111.965 C167.411,111.433 168.811,109.627 170.589,109.683 C171.688,109.683 172.689,110.467 173.571,111.188 C175.032121,112.296549 176.405837,113.515809 177.68,114.835 C180.739,118.16 182.643,122.64 185.436,126.252 C188.229,129.864 192.632,132.678 196.601,131.019 C193.906,141.519 185.058,149.548 175.496,150.199 C171.681,150.458 167.796,149.667 164.079,150.787 C163.157852,151.162535 162.185809,151.398468 161.195,151.487 C159.095,151.487 157.359,149.534 156.029,147.637 C152.921,143.171 150.429,138.103 146.929,134.036 C145.774,132.692 144.409,131.411 142.778,131.166 C141.147,130.921 139.642,131.698 138.186,132.454 C135.785,133.7 133.328,134.988 131.466,137.116 C129.604,139.244 128.428,142.429 129.198,145.313 C129.611,146.867 130.563,148.267 130.598,149.898 C130.598,152.488 128.344,154.385 127.889,156.898 C127.788758,157.958861 127.751359,159.024722 127.777,160.09 C127.574,163.548 125.32,166.39 122.954,168.553 C122.037,169.4 121.015,170.303 120.749,171.612 C120.567,172.501 120.749,173.446 120.63,174.349 C120.287,176.596 118.047,177.73 116.066,178.024 C113.752341,178.363098 111.39014,178.082919 109.22,177.212 C112.02,175.903 113.693,172.172 113.049,168.812 C112.167,164.185 107.519,160.867 107.911,156.149 C108.130216,154.704201 108.564355,153.30033 109.199,151.984 C110.213351,149.438656 110.950277,146.791354 111.397,144.088 C111.854972,142.00737 111.809373,139.847448 111.264,137.788 C110.669,135.975 109.458,134.533 108.422,133 C107.018988,130.915892 105.911776,128.647284 105.132,126.259 C104.849435,125.55315 104.741376,124.789537 104.817,124.033 C105.042728,123.14056 105.530301,122.336064 106.217,121.723 C108.765,119.056 111.495,116.277 114.883,115.507 C116.5018,115.237341 118.148239,115.173836 119.783,115.318 C122.637085,115.408812 125.493971,115.287143 128.33,114.954 C130.668,114.681 134.63,114.716 136.604,113.19 C138.445,111.79 139.488,110.005 141.763,109.109 C144.084847,108.258981 146.579914,107.992168 149.029,108.332 L149.029,108.332 Z" id="Path" fill="#000000" fill-rule="nonzero" opacity="0.1"></path>
                    <path d="M158.066,276.164 C158.066,276.164 167.474,294.693 164.625,300.398" id="Path" fill="#000000" fill-rule="nonzero" opacity="0.1"></path>
                    <path d="M175.125,325.724 L161.349,308.224 L161.349,308.532 C161.349,308.532 160.551,302.876 163.176,304.78 C168.923,308.938 178.121,315.756 178.317,316.932 C178.513,318.108 176.455,322.826 175.125,325.724 Z" id="Path" fill="#000000" fill-rule="nonzero" opacity="0.1"></path>
                    <g id="Group" opacity="0.1" transform="translate(43.700000, 125.300000)" fill="#000000" fill-rule="nonzero">
                        <path d="M111.93,35.532 C111.93,35.532 113.092,40.348 109.333,42.756 C115.122,41.762 115.374,37.261 115.199,35.301 C114.118471,35.4759209 113.02439,35.5532328 111.93,35.532 Z" id="Path"></path>
                        <path d="M3.605,103.397 C3.605,103.397 56.063,74.319 63.763,59.493 C69.286,48.853 82.593,42.476 89.663,39.718 C84.504,41.447 67.144,48.076 60.62,60.634 C52.92,75.46 0.462,104.538 0.462,104.538 L3.605,103.397 Z" id="Path"></path>
                        <path d="M122.136,33.271 C131.061,30.471 139.594,23.562 139.594,23.562 L112.224,4.172 L112.847,1.512 L110.229,0.462 L109.088,5.306 L136.458,24.696 C132.065889,28.1485696 127.25346,31.0299116 122.136,33.271 L122.136,33.271 Z" id="Path"></path>
                        <path d="M122.311,98.973 C125.808217,97.7791352 129.397166,96.8731188 133.042,96.264 L133.091,95.711 C129.418652,96.5176731 125.814486,97.6082844 122.311,98.973 L122.311,98.973 Z" id="Path"></path>
                        <path d="M89.138,128.842 L88.886,128.842 C88.6901709,128.951181 88.4460442,128.919955 88.284,128.765 C88.4798797,128.819681 88.6826635,128.845618 88.886,128.842 C89.824,128.296 91.231,124.04 88.284,99.4 C85.134,73.094 72.772,75.159 66.003,78.183 C72.919,76.279 82.439,77.924 85.148,100.541 C88.095,125.181 86.688,129.444 85.75,129.983 C86.9658165,129.937791 88.1425336,129.5415 89.138,128.842 Z" id="Path"></path>
                        <path d="M85.75,129.99 C85.5466635,129.993618 85.3438797,129.967681 85.148,129.913 C85.3100442,130.067955 85.5541709,130.099181 85.75,129.99 L85.75,129.99 Z" id="Path"></path>
                    </g>
                    <path d="M149.029,107.779 C153.537,108.29 157.828,110.229 162.266,111.279 C163.3749,111.626771 164.556458,111.67268 165.689,111.412 C167.411,110.88 168.811,109.074 170.589,109.13 C171.688,109.13 172.689,109.914 173.571,110.635 C175.032121,111.743549 176.405837,112.962809 177.68,114.282 C180.739,117.607 182.643,122.087 185.436,125.699 C188.229,129.311 192.632,132.125 196.601,130.466 C193.906,140.966 185.058,148.995 175.496,149.646 C171.681,149.905 167.796,149.114 164.079,150.234 C163.157852,150.609535 162.185809,150.845468 161.195,150.934 C159.095,150.934 157.359,148.981 156.029,147.084 C152.921,142.618 150.429,137.55 146.929,133.483 C145.774,132.139 144.409,130.858 142.778,130.613 C141.147,130.368 139.642,131.145 138.186,131.901 C135.785,133.147 133.328,134.435 131.466,136.563 C129.604,138.691 128.428,141.876 129.198,144.76 C129.611,146.314 130.563,147.714 130.598,149.345 C130.598,151.935 128.344,153.832 127.889,156.345 C127.788758,157.405861 127.751359,158.471722 127.777,159.537 C127.574,162.995 125.32,165.837 122.954,168 C122.037,168.847 121.015,169.75 120.749,171.059 C120.567,171.948 120.749,172.893 120.63,173.796 C120.287,176.043 118.047,177.177 116.066,177.471 C113.752341,177.810098 111.39014,177.529919 109.22,176.659 C112.02,175.35 113.693,171.619 113.049,168.259 C112.167,163.632 107.519,160.314 107.911,155.596 C108.130216,154.151201 108.564355,152.74733 109.199,151.431 C110.213351,148.885656 110.950277,146.238354 111.397,143.535 C111.854972,141.45437 111.809373,139.294448 111.264,137.235 C110.669,135.422 109.458,133.98 108.422,132.447 C107.018988,130.362892 105.911776,128.094284 105.132,125.706 C104.849435,125.00015 104.741376,124.236537 104.817,123.48 C105.042728,122.58756 105.530301,121.783064 106.217,121.17 C108.765,118.503 111.495,115.724 114.883,114.954 C116.5018,114.684341 118.148239,114.620836 119.783,114.765 C122.637085,114.855812 125.493971,114.734143 128.33,114.401 C130.668,114.128 134.63,114.163 136.604,112.637 C138.445,111.237 139.488,109.452 141.763,108.556 C144.084847,107.705981 146.579914,107.439168 149.029,107.779 Z" id="Path" fill="#4D4D4D" fill-rule="nonzero"></path>
                    <path d="M592.15,71.295 L592.15,71.295 C592.15,71.204 592.15,71.12 592.15,71.036 C592.15,70.952 592.15,70.854 592.108,70.77 L591.996,70.77 C591.996,70.581 591.996,70.392 591.996,70.189 C591.716,63.7 582.742,49.889 579.144,53.921 C575.994,57.463 580.747,66.423 583.169,70.455 L583.386,70.819 L583.267,70.742 C583.267,70.742 573.25,100.618 572.067,101.78 C570.884,102.942 562.638,126.434 551.767,129.08 C549.618,129.591 547.833,130.053 546.335,130.48 L546.454,130.081 C547.154,127.792 548.015,125.629 548.365,123.081 C548.715,120.533 548.365,117.446 547.077,116.207 C546.447,115.591 545.677,115.507 545.159,114.527 C544.822727,113.667476 544.642568,112.754832 544.627,111.832 L543.703,100.506 L544.347,100.31 C548.239,99.064 552.012,96.11 552.453,92.134 C552.317717,92.1854194 552.179866,92.229812 552.04,92.267 C552.091331,92.0358003 552.131048,91.8021741 552.159,91.567 C548.89,92.855 545.859,89.467 542.709,87.948 C537.522,85.407 531.593,87.801 526.238,88.382 C520.169,89.047 514.408,86.527 508.206,86.982 C504.832,87.241 501.08,89.53 501.262,92.855 C501.367,94.682 502.662,96.229 503.194,97.979 C504.538,102.214 501.549,106.463 498.931,110.075 C497.209,112.448 495.557,115.339 495.263,118.125 C489.236,111.825 482.719,104.545 481.963,101.808 L464.526,71.932 C464.526,71.932 464.113,72.373 463.448,73.024 C463.343,72.702 463.217,72.324 463.077,71.946 C460.851,65.709 454.551,50.596 446.564,53.368 C438.577,56.14 449.875,71.631 454.789,77.805 L455.489,78.659 C455.076893,78.7602388 454.644363,78.7407992 454.243,78.603 L473.689,111.958 C473.689,111.958 477.224,118.342 480.465,120.078 C480.465,120.078 504.622,150.535 504.916,156.625 C505.21,162.715 515.78,178.962 515.78,178.962 C515.78,178.962 519.315,205.359 513.127,210 L513.204,210 L513.253,210 L513.33,210 L513.4,210 L513.54,210 L513.631,210 L513.722,210 L513.841,210 L513.939,210 L514.079,210 L514.149,210 C513.855,210.287 513.554,210.602 513.246,210.945 C508.661,216.027 502.802,226.919 510.81,245.441 C522.591,272.741 524.362,283.437 524.362,283.437 C524.362,283.437 501.962,284.599 497.552,285.467 C493.646,286.237 478.463,286.776 474.991,286.867 C473.752,285.425 470.091,282.233 465.149,286.867 C458.961,292.67 454.544,312.067 454.544,312.067 C454.544,312.067 452.185,327.733 460.144,323.666 C460.144,323.666 469.573,310.611 472.219,310.03 C473.535,309.743 474.928,307.804 475.992,305.935 L476.048,305.97 L476.048,305.97 C476.111,305.97 476.37,305.83 476.79,305.662 L476.79,305.662 C478.75,304.885 484.147,303.016 488.403,303.947 C490.734,304.458 500.73,304.577 511.209,304.549 C508.843,310.219 504.601,324.849 504.601,324.849 C504.601,324.849 502.83,338.492 508.71,337.932 C512.91,337.519 519.35,326.788 522.71,320.663 C525.146,318.878 532.125,312.48 537.284,312.963 L572.046,299.621 C572.046,299.621 580.292,294.98 575.875,279.608 C572.375,267.386 562.414,242.368 558.48,232.617 L558.48,232.617 L558.361,232.365 C557.409,230.006 556.835,228.606 556.835,228.606 L556.835,228.606 C555.218826,224.154463 554.158471,219.520406 553.678,214.809 C553.643,214.438 553.615,214.06 553.587,213.689 C554.073885,213.484652 554.532612,213.218825 554.952,212.898 C554.952,212.898 551.711,180.124 554.952,176.638 L554.952,176.638 L554.952,176.638 L555.008,176.575 L555.008,176.575 L555.008,176.533 L555.008,176.533 L555.064,176.463 L555.064,176.463 L555.19,176.302 L555.19,176.302 L555.344,176.106 L555.344,176.106 C555.519,175.875 555.729,175.588 555.967,175.238 L555.967,175.238 C557.822,172.522 561.28,166.32 560.286,158.998 L560.286,158.998 C560.244,158.680667 560.192667,158.361 560.132,158.039 L560.132,158.039 C559.751185,156.053319 559.071458,154.136867 558.116,152.355 C557.975974,151.613168 557.889418,150.862235 557.857,150.108 C557.857,149.681 557.857,149.212 557.857,148.708 L557.857,148.624 C557.857,148.488667 557.857,148.353333 557.857,148.218 L557.857,148.12 C557.857,147.791 557.913,147.42 557.962,147.112 L557.962,146.986 C557.962,146.86 557.983,146.731667 558.025,146.601 L558.025,146.44 C558.025,146.314 558.081,146.188 558.109,146.062 L558.109,145.929 C558.151,145.761 558.193,145.593 558.249,145.425 L558.249,145.341 C558.291,145.201 558.337667,145.063333 558.389,144.928 L558.452,144.767 L558.592,144.431 L558.662,144.263 C558.718,144.137 558.781,144.011 558.844,143.885 L558.893,143.78 C558.977,143.626 559.065667,143.474333 559.159,143.325 L559.236,143.206 L559.467,142.877 L559.579,142.73 L559.824,142.436 L559.936,142.31 C560.062,142.177 560.188,142.044 560.328,141.918 C564.157,138.418 581.244,112.623 581.244,112.623 C581.244,112.623 585.367,106.82 585.367,103.054 C585.598,102.97 592.885,78.68 592.15,71.295 Z M546.279,288.12 C545.859,284.144 545.439,279.216 545.054,274.12 L551.718,284.508 C551.718,284.508 551.088,287.672 546.279,288.12 Z" id="Shape" fill="url(#linearGradient-4)" fill-rule="nonzero"></path>
                    <path d="M476.797,285.922 C476.797,285.922 472.807,279.622 466.815,285.355 C460.823,291.088 456.553,310.156 456.553,310.156 C456.553,310.156 454.271,325.556 461.971,321.559 C461.971,321.559 471.071,308.728 473.661,308.161 C476.251,307.594 479.079,300.461 479.079,300.461 L476.797,285.922 Z" id="Path" fill="#493545" fill-rule="nonzero"></path>
                    <path d="M519.56,301.315 C519.56,301.315 514.142,298.746 512.434,300.748 C510.726,302.75 505.021,322.7 505.021,322.7 C505.021,322.7 503.313,335.818 509.011,335.244 C514.709,334.67 524.691,314.132 524.691,314.132 L519.56,301.315 Z" id="Path" fill="#493545" fill-rule="nonzero"></path>
                    <path d="M519.56,301.315 C519.56,301.315 514.142,298.746 512.434,300.748 C510.726,302.75 505.021,322.7 505.021,322.7 C505.021,322.7 503.313,335.818 509.011,335.244 C514.709,334.67 524.691,314.132 524.691,314.132 L519.56,301.315 Z" id="Path" fill="#000000" fill-rule="nonzero" opacity="0.05"></path>
                    <path d="M538.376,262.542 L550.633,281.645 C550.633,281.645 549.779,285.922 542.366,285.068 L516.991,301.035 C516.991,301.035 514.786,320.474 521.835,318.71 C522.976,318.423 530.935,310.156 536.661,310.73 L570.31,297.612 C570.31,297.612 578.29,293.048 574.013,277.942 C569.736,262.836 555.596,227.808 555.596,227.808 L533.245,240.31 L538.376,262.542 Z" id="Path" fill="#3E3D77" fill-rule="nonzero"></path>
                    <path d="M538.376,262.542 L550.633,281.645 C550.633,281.645 549.779,285.922 542.366,285.068 L516.991,301.035 C516.991,301.035 514.786,320.474 521.835,318.71 C522.976,318.423 530.935,310.156 536.661,310.73 L570.31,297.612 C570.31,297.612 578.29,293.048 574.013,277.942 C569.736,262.836 555.596,227.808 555.596,227.808 L533.245,240.31 L538.376,262.542 Z" id="Path" fill="#000000" fill-rule="nonzero" opacity="0.05"></path>
                    <path d="M546.076,290.766 C547.784,301.602 538.096,302.456 538.096,302.456 C538.096,302.456 494.472,303.31 489.341,302.169 C484.21,301.028 477.364,304.164 477.364,304.164 C468.523,298.746 475.656,285.348 475.656,285.348 C475.656,285.348 493.905,284.781 498.182,283.948 C502.459,283.115 524.124,281.932 524.124,281.932 C524.124,281.932 522.416,271.383 511.006,244.587 C503.257,226.387 508.906,215.677 513.365,210.686 C514.502836,209.361625 515.819862,208.202454 517.278,207.242 L552.348,208.95 C552.310265,210.718642 552.375709,212.487979 552.544,214.249 C553.14355,220.294876 554.715448,226.204269 557.199,231.749 C555.204,231.749 542.373,243.726 542.373,243.726 C542.373,243.726 544.361,279.937 546.076,290.766 Z" id="Path" fill="#3E3D77" fill-rule="nonzero"></path>
                    <path d="M478.218,286.489 C478.218,286.489 496.467,285.922 500.744,285.089 C505.021,284.256 526.686,283.094 526.686,283.094 C526.686,283.094 524.978,272.545 513.568,245.749 C505.819,227.549 511.468,216.839 515.927,211.848 C517.064836,210.523625 518.381862,209.364454 519.84,208.404 L552.334,209.986 C552.334,209.65 552.334,209.286 552.334,208.971 L517.264,207.263 C515.805862,208.223454 514.488836,209.382625 513.351,210.707 C508.913,215.705 503.243,226.408 510.992,244.608 C522.43,271.383 524.124,281.932 524.124,281.932 C524.124,281.932 502.424,283.073 498.182,283.927 C493.94,284.781 475.656,285.327 475.656,285.327 C475.656,285.327 468.53,298.732 477.364,304.171 C477.364,304.171 477.63,304.045 478.064,303.863 C472.191,297.822 478.218,286.489 478.218,286.489 Z" id="Path" fill="#000000" fill-rule="nonzero" opacity="0.1"></path>
                    <rect id="Rectangle" fill="#493545" fill-rule="nonzero" x="512.714" y="102.599" width="17.675" height="44.758"></rect>
                    <rect id="Rectangle" fill="#000000" fill-rule="nonzero" opacity="0.1" x="512.714" y="102.599" width="17.675" height="44.758"></rect>
                    <path d="M540.497,96.033 C541.106,96.201 541.792,96.222 542.205,97.062 C542.461431,97.7333216 542.601113,98.4435682 542.618,99.162 L543.731,112.994 C543.746701,113.899601 543.922055,114.79533 544.249,115.64 C544.718,116.578 545.495,116.69 546.104,117.292 C547.329,118.51 547.686,121.562 547.35,124.047 C547.014,126.532 546.167,128.66 545.502,130.907 C544.55,134.127 543.92,137.746 542.583,140.462 C541.246,143.178 538.817,144.662 537.249,142.38 C535.681,140.098 535.891,135.492 535.597,131.719 C535.107,125.419 532.65,119.987 532.482,113.645 C532.342,108.514 533.721,103.726 534.582,98.861 C535.198,95.522 535.233,91.469 536.129,88.466 C536.878,92.036 538.306,95.431 540.497,96.033 Z" id="Path" fill="#493545" fill-rule="nonzero"></path>
                    <path d="M540.497,96.033 C541.106,96.201 541.792,96.222 542.205,97.062 C542.461431,97.7333216 542.601113,98.4435682 542.618,99.162 L543.731,112.994 C543.746701,113.899601 543.922055,114.79533 544.249,115.64 C544.718,116.578 545.495,116.69 546.104,117.292 C547.329,118.51 547.686,121.562 547.35,124.047 C547.014,126.532 546.167,128.66 545.502,130.907 C544.55,134.127 543.92,137.746 542.583,140.462 C541.246,143.178 538.817,144.662 537.249,142.38 C535.681,140.098 535.891,135.492 535.597,131.719 C535.107,125.419 532.65,119.987 532.482,113.645 C532.342,108.514 533.721,103.726 534.582,98.861 C535.198,95.522 535.233,91.469 536.129,88.466 C536.878,92.036 538.306,95.431 540.497,96.033 Z" id="Path" fill="#000000" fill-rule="nonzero" opacity="0.1"></path>
                    <path d="M465.674,76.37 L458.835,82.075 C458.835,82.075 458.023,81.123 456.812,79.583 C452.059,73.514 441.132,58.289 448.853,55.566 C456.574,52.843 462.678,67.69 464.834,73.822 C465.38,75.376 465.674,76.37 465.674,76.37 Z" id="Path" fill="#C77485" fill-rule="nonzero"></path>
                    <path d="M589.126,74.375 C586.277,78.652 582.287,74.375 582.287,74.375 C582.287,74.375 581.776,73.612 581.055,72.38 C578.71,68.411 574.111,59.612 577.156,56.126 C580.656,52.143 589.329,65.737 589.595,72.114 C589.677386,72.89809 589.513458,73.6883698 589.126,74.375 L589.126,74.375 Z" id="Path" fill="#C77485" fill-rule="nonzero"></path>
                    <path d="M518.986,120.561 C518.986,120.561 524.691,138.81 522.976,144.221 C521.261,149.632 535.24,155.932 535.24,155.932 L551.207,155.932 C551.207,155.932 556.912,144.242 555.484,140.819 C554.056,137.396 541.799,134.834 541.799,134.834 C541.799,134.834 534.673,134.834 534.96,115.731 L518.986,120.561 Z" id="Path" fill="#FFC069" fill-rule="nonzero"></path>
                    <path d="M465.674,76.37 L458.835,82.075 C458.835,82.075 458.023,81.123 456.812,79.583 C459.297,79.142 463.154,75.516 464.841,73.822 C465.38,75.376 465.674,76.37 465.674,76.37 Z" id="Path" fill="#000000" fill-rule="nonzero" opacity="0.1"></path>
                    <path d="M589.126,74.375 C586.277,78.652 582.287,74.375 582.287,74.375 C582.287,74.375 581.776,73.612 581.055,72.38 L581.146,72.093 C582.994,73.416 588.741,72.289 589.595,72.093 C589.681858,72.8840285 589.517787,73.6823432 589.126,74.375 Z" id="Path" fill="#000000" fill-rule="nonzero" opacity="0.1"></path>
                    <path d="M552.53,214.242 C543.71,218.267 515.052,211.099 513.33,210.672 C514.467836,209.347625 515.784862,208.188454 517.243,207.228 L552.313,208.936 C552.281971,210.707383 552.354427,212.479066 552.53,214.242 Z" id="Path" fill="#000000" fill-rule="nonzero" opacity="0.1"></path>
                    <path d="M522.696,136.241 C522.696,136.241 515.857,138.523 506.162,129.682 C506.162,129.682 484.462,108.297 483.062,103.166 L466.262,73.766 C466.262,73.766 459.136,81.466 456.28,80.325 L475.096,113.113 C475.096,113.113 478.519,119.413 481.655,121.093 C481.655,121.093 505.035,151.032 505.315,157.017 C505.595,163.002 515.85,179.032 515.85,179.032 C515.85,179.032 519.273,204.974 513.281,209.538 C513.281,209.538 546.636,218.092 553.762,212.387 C553.762,212.387 550.626,180.187 553.762,176.75 C553.762,176.75 563.457,165.347 556.898,152.803 C556.898,152.803 555.498,145.964 559.18,142.541 C562.862,139.118 579.424,113.743 579.424,113.743 C579.424,113.743 583.414,108.038 583.414,104.335 C583.414,104.335 590.827,79.247 589.714,72.688 C589.714,72.688 583.155,74.088 581.16,72.688 C581.16,72.688 571.465,102.088 570.324,103.194 C569.183,104.3 561.224,127.428 550.654,129.997 C540.084,132.566 538.397,133.7 538.397,133.7 C538.397,133.7 558.921,146.531 548.946,152.229 C538.971,157.927 522.696,136.241 522.696,136.241 Z" id="Path" fill="#007AC0" fill-rule="nonzero"></path>
                    <path d="M535.653,124.95 C535.314322,122.264342 535.176273,119.557178 535.24,116.851 L519.273,121.695 C519.693138,122.758684 520.027864,123.854149 520.274,124.971 C522.101,125.776 524.565,127.68 526.686,127.68 C529.89442,127.784887 533.047349,126.824979 535.653,124.95 L535.653,124.95 Z" id="Path" fill="#000000" fill-rule="nonzero" opacity="0.1"></path>
                    <circle id="Oval" fill="#FFC069" fill-rule="nonzero" cx="526.399" cy="112.007" r="14.826"></circle>
                    <path d="M508.759,89.166 C505.497,89.418 501.857,91.672 502.039,94.941 C502.137,96.74 503.369,98.259 503.908,99.981 C505.203007,104.146 502.319,108.325 499.785,111.881 C497.251,115.437 494.885,120.148 497.055,123.914 C497.673531,124.820689 498.341891,125.692362 499.057,126.525 C501.738,130.144 501.703007,135.03 502.893,139.377 C506.048499,150.924251 517.6777,157.99274 529.381,155.477 C527.259155,152.768504 526.20104,149.377555 526.406,145.943 C526.567,143.451 527.372,140.847 526.406,138.544 C525.16,135.583 521.506,134.414 519.623,131.824 C517.74,129.234 517.866,125.643 518.776,122.556 C519.686,119.469 521.261,116.606 522.017,113.456 C522.203601,112.536957 522.437242,111.628095 522.717,110.733 C524.033,106.995 527.967,104.825 531.817,103.894 C535.667,102.963 539.713,102.907 543.472,101.682 C547.231,100.457 550.885,97.587 551.319,93.646 C548.155,94.913 545.222,91.609 542.17,90.09 C537.144,87.598 531.411,89.943 526.231,90.517 C520.33,91.175 514.73,88.732 508.759,89.166 Z" id="Path" fill="#000000" fill-rule="nonzero" opacity="0.1"></path>
                    <path d="M508.472,88.599 C505.21,88.851 501.57,91.105 501.752,94.374 C501.85,96.173 503.082,97.692 503.621,99.414 C504.916007,103.579 502.032,107.758 499.498,111.314 C496.964,114.87 494.598,119.581 496.768,123.347 C497.386531,124.253689 498.054891,125.125362 498.77,125.958 C501.451,129.577 501.416007,134.463 502.606,138.81 C505.761499,150.357251 517.3907,157.42574 529.094,154.91 C526.972155,152.201504 525.91404,148.810555 526.119,145.376 C526.28,142.884 527.085,140.28 526.119,137.977 C524.873,135.016 521.219,133.847 519.336,131.257 C517.453,128.667 517.579,125.076 518.489,121.989 C519.399,118.902 520.974,116.039 521.73,112.889 C521.916601,111.969957 522.150242,111.061095 522.43,110.166 C523.746,106.428 527.68,104.258 531.53,103.327 C535.38,102.396 539.426,102.34 543.185,101.115 C546.944,99.89 550.598,97.02 551.032,93.079 C547.868,94.346 544.935,91.042 541.883,89.523 C536.857,87.031 531.124,89.376 525.944,89.95 C520.057,90.601 514.478,88.13 508.472,88.599 Z" id="Path" fill="#493545" fill-rule="nonzero"></path>
                    <path d="M541.085,144.942 C541.085,144.942 547.021,150.241 548.19,152.579" id="Path" fill="#000000" fill-rule="nonzero" opacity="0.1"></path>
                    <path d="M553.93,176.589 C553.93,176.589 546.517,176.589 543.094,177.443 C539.671,178.297 531.404,177.443 531.404,177.443" id="Path" fill="#000000" fill-rule="nonzero" opacity="0.1"></path>
                    <g id="Group" opacity="0.1" transform="translate(456.000000, 72.100000)" fill="#000000" fill-rule="nonzero">
                        <path d="M92.925,80.108 C92.2859432,80.4737256 91.5940651,80.7381978 90.874,80.892 C92.7333251,81.3042047 94.6791218,81.0255228 96.348,80.108 C106.33,74.403 85.799,61.579 85.799,61.579 L82.376,61.579 C82.376,61.579 102.907,74.41 92.925,80.108 Z" id="Path"></path>
                        <path d="M133.763,1.085 C133.763,0.903 133.721,0.728 133.693,0.567 C132.520487,0.809988021 131.335786,0.989913115 130.144,1.106 C131.34712,1.23832968 132.561497,1.23128301 133.763,1.085 L133.763,1.085 Z" id="Path"></path>
                        <path d="M60.711,137.417 C66.696,132.853 63.28,106.911 63.28,106.911 C63.28,106.911 53.018,90.944 52.731,84.959 C52.444,78.974 29.071,49.035 29.071,49.035 C25.935,47.327 22.512,41.055 22.512,41.055 C22.512,41.055 3.122,9.408 0.273,8.267 L19.089,41.055 C19.089,41.055 22.512,47.355 25.648,49.035 C25.648,49.035 49.028,78.974 49.308,84.959 C49.588,90.944 59.85,106.932 59.85,106.932 C59.85,106.932 63.273,132.874 57.281,137.438 C57.281,137.438 77.784,142.695 90.076,142.219 C77.756,141.785 60.711,137.417 60.711,137.417 Z" id="Path"></path>
                        <path d="M66.864,64.365 L66.696,64.148 C66.5008953,64.2057097 66.3021074,64.2501446 66.101,64.281 C66.367,64.316 66.619,64.344 66.864,64.365 Z" id="Path"></path>
                    </g>
                    <g id="Group" opacity="0.1" transform="translate(553.300000, 72.100000)" fill="#000000" fill-rule="nonzero">
                        <path d="M36.393,0.532 L36.218,0.567 C35.917,9.324 29.841,29.897 29.841,29.897 C29.841,33.6 25.851,39.305 25.851,39.305 C25.851,39.305 9.317,64.68 5.607,68.103 C1.897,71.526 3.325,78.365 3.325,78.365 L3.36,78.435 C3.248,76.132 3.528,72.562 5.887,70.378 C9.59,66.955 26.131,41.58 26.131,41.58 C26.131,41.58 30.121,35.875 30.121,32.172 C30.121,32.214 37.534,7.126 36.393,0.532 Z" id="Path"></path>
                        <path d="M0.189,102.347 C0.616,104.769 0.329,102.207 0.476,104.629 C0.476,104.629 7.476,96.418 5.565,86.268 C6.139,95.34 0.189,102.347 0.189,102.347 Z" id="Path"></path>
                    </g>
                    <ellipse id="Oval" fill="#FFA98D" fill-rule="nonzero" opacity="0.1" cx="352.5" cy="446.756" rx="273.5" ry="28.756"></ellipse>
                    <g id="Group-15" transform="translate(211.000000, 318.000000)">
                        <path d="M24.6525227,134.842295 C24.6525227,134.842295 14.4605227,100.227295 26.5635227,74.7542948 C31.7109665,64.1009147 33.2633379,52.0651239 30.9875227,40.4542948 C29.8634079,34.9504952 28.2372746,29.5612926 26.1295227,24.3542948" id="Path" stroke="#535461" stroke-width="1.4"></path>
                        <path d="M33.6755227,8.26829482 C33.6755227,12.5102948 25.9755227,24.8092948 25.9755227,24.8092948 C25.9755227,24.8092948 18.2755227,12.5102948 18.2755227,8.26829482 C18.062458,5.3892898 19.477692,2.63297616 21.9415045,1.12841836 C24.4053171,-0.376139452 27.5037283,-0.376139452 29.9675408,1.12841836 C32.4313534,2.63297616 33.8465874,5.3892898 33.6335227,8.26829482 L33.6755227,8.26829482 Z" id="Path" fill="#FFBF5B" fill-rule="nonzero"></path>
                        <path d="M46.3525227,31.7602948 C44.0495227,35.3232948 30.9175227,41.4692948 30.9175227,41.4692948 C30.9175227,41.4692948 31.1555227,26.9722948 33.4585227,23.4092948 C34.8508192,20.888167 37.5336634,19.3547791 40.4125852,19.4346788 C43.2915071,19.5145785 45.8851738,21.1944071 47.1354955,23.7888764 C48.3858172,26.3833456 48.08375,29.4586808 46.3525227,31.7602948 Z" id="Path" fill="#FFBF5B" fill-rule="nonzero"></path>
                        <path d="M45.7995227,71.9192948 C42.0125227,73.8302948 27.5995227,72.5072948 27.5995227,72.5072948 C27.5995227,72.5072948 35.1245227,60.1102948 38.9115227,58.1992948 C41.3861353,56.7135202 44.4838681,56.7364916 46.9361741,58.258802 C49.3884801,59.7811124 50.7834591,62.5470678 50.5498559,65.4239869 C50.3162526,68.3009059 48.4933041,70.8055685 45.8275227,71.9122948 L45.7995227,71.9192948 Z" id="Path" fill="#FFBF5B" fill-rule="nonzero"></path>
                        <path d="M38.5405227,102.201295 C35.1315227,104.721295 20.6695227,105.862295 20.6695227,105.862295 C20.6695227,105.862295 25.9895227,92.3732948 29.4055227,89.8462948 C32.8129089,87.7757973 37.2372555,88.6488834 39.6026681,91.8585663 C41.9680807,95.0682492 41.4920502,99.5527244 38.5055227,102.194295 L38.5405227,102.201295 Z" id="Path" fill="#FFBF5B" fill-rule="nonzero"></path>
                        <path d="M14.7755227,42.2952948 C17.8205227,45.2492948 31.9955227,48.3152948 31.9955227,48.3152948 C31.9955227,48.3152948 28.4955227,34.2382948 25.4785227,31.2772948 C23.5596877,29.1263423 20.6001944,28.2272222 17.8091259,28.9472646 C15.0180574,29.6673071 12.8628785,31.8859151 12.2240745,34.6966897 C11.5852705,37.5074643 12.5698321,40.4396403 14.7755227,42.2952948 Z" id="Path" fill="#FFBF5B" fill-rule="nonzero"></path>
                        <path d="M6.74652268,77.8272948 C10.5335227,79.7382948 24.9465227,78.4152948 24.9465227,78.4152948 C24.9465227,78.4152948 17.4495227,66.0182948 13.6625227,64.1422948 C9.93785073,62.5959594 5.65105849,64.1855263 3.83499953,67.7863962 C2.01894057,71.3872661 3.28895486,75.779347 6.74652268,77.8552948 L6.74652268,77.8272948 Z" id="Path" fill="#FFBF5B" fill-rule="nonzero"></path>
                        <path d="M3.66652268,113.429295 C7.07552268,115.949295 21.5375227,117.090295 21.5375227,117.090295 C21.5375227,117.090295 16.2175227,103.601295 12.8015227,101.074295 C10.6180853,99.1430541 7.53127872,98.6103506 4.82684629,99.6980704 C2.12241386,100.78579 0.264061472,103.307431 0.0258461676,106.212658 C-0.212369137,109.117885 1.21039738,111.908563 3.70152268,113.422295 L3.66652268,113.429295 Z" id="Path" fill="#FFBF5B" fill-rule="nonzero"></path>
                    </g>
                    <path d="M428.542772,431.712705 C428.542772,431.712705 418.350772,397.097705 430.453772,371.624705 C435.601216,360.971325 437.153588,348.935534 434.877772,337.324705 C433.753658,331.820906 432.127524,326.431703 430.019772,321.224705" id="Path" stroke="#535461" stroke-width="1.4"></path>
                    <path d="M437.551772,305.131705 C437.551772,309.373705 429.851772,321.672705 429.851772,321.672705 C429.851772,321.672705 422.151772,309.373705 422.151772,305.131705 C422.449361,301.110583 425.798653,298 429.830772,298 C433.862891,298 437.212184,301.110583 437.509772,305.131705 L437.551772,305.131705 Z" id="Path" fill="#D8D8D8" fill-rule="nonzero"></path>
                    <path d="M450.249772,328.623705 C447.946772,332.186705 434.814772,338.332705 434.814772,338.332705 C434.814772,338.332705 435.052772,323.835705 437.355772,320.272705 C438.748069,317.751577 441.430913,316.218189 444.309835,316.298089 C447.188757,316.377989 449.782423,318.057817 451.032745,320.652287 C452.283067,323.246756 451.981,326.322091 450.249772,328.623705 Z" id="Path" fill="#D8D8D8" fill-rule="nonzero"></path>
                    <path d="M449.717772,368.782705 C445.930772,370.693705 431.517772,369.370705 431.517772,369.370705 C431.517772,369.370705 439.042772,356.973705 442.829772,355.062705 C445.307602,353.56297 448.417422,353.58055 450.878138,355.108202 C453.338854,356.635855 454.734165,359.415134 454.489272,362.301113 C454.244379,365.187091 452.400712,367.691523 449.717772,368.782705 L449.717772,368.782705 Z" id="Path" fill="#D8D8D8" fill-rule="nonzero"></path>
                    <path d="M442.430772,399.064705 C439.021772,401.584705 424.559772,402.725705 424.559772,402.725705 C424.559772,402.725705 429.879772,389.236705 433.295772,386.709705 C436.703159,384.639208 441.127505,385.512294 443.492918,388.721977 C445.85833,391.93166 445.3823,396.416135 442.395772,399.057705 L442.430772,399.064705 Z" id="Path" fill="#D8D8D8" fill-rule="nonzero"></path>
                    <path d="M418.679772,339.158705 C421.724772,342.112705 435.899772,345.178705 435.899772,345.178705 C435.899772,345.178705 432.399772,331.101705 429.382772,328.140705 C427.463937,325.989753 424.504444,325.090633 421.713376,325.810675 C418.922307,326.530717 416.767128,328.749325 416.128324,331.5601 C415.48952,334.370875 416.474082,337.303051 418.679772,339.158705 L418.679772,339.158705 Z" id="Path" fill="#D8D8D8" fill-rule="nonzero"></path>
                    <path d="M410.636772,374.690705 C414.423772,376.601705 428.836772,375.278705 428.836772,375.278705 C428.836772,375.278705 421.311772,362.881705 417.524772,360.970705 C413.8001,359.42437 409.513308,361.013937 407.697249,364.614807 C405.88119,368.215677 407.151205,372.607757 410.608772,374.683705 L410.636772,374.690705 Z" id="Path" fill="#D8D8D8" fill-rule="nonzero"></path>
                    <path d="M407.563772,410.292705 C410.972772,412.812705 425.434772,413.953705 425.434772,413.953705 C425.434772,413.953705 420.114772,400.464705 416.698772,397.937705 C413.291386,395.867208 408.867039,396.740294 406.501627,399.949977 C404.136214,403.15966 404.612245,407.644135 407.598772,410.285705 L407.563772,410.292705 Z" id="Path" fill="#D8D8D8" fill-rule="nonzero"></path>
                    <path d="M477.63,10.717 L473.234,10.717 C474.368139,10.7711141 475.44007,10.196859 476.023339,9.22269486 C476.606609,8.24853072 476.606609,7.03246928 476.023339,6.05830514 C475.44007,5.084141 474.368139,4.50988593 473.234,4.564 L437.59,4.564 C435.947899,4.64235086 434.656792,5.99653129 434.656792,7.6405 C434.656792,9.28446871 435.947899,10.6386491 437.59,10.717 L441.986,10.717 C440.343899,10.7953509 439.052792,12.1495313 439.052792,13.7935 C439.052792,15.4374687 440.343899,16.7916491 441.986,16.87 L435.833,16.87 C434.698861,16.8158859 433.62693,17.390141 433.043661,18.3643051 C432.460391,19.3384693 432.460391,20.5545307 433.043661,21.5286949 C433.62693,22.502859 434.698861,23.0771141 435.833,23.023 L471.449,23.023 C472.583139,23.0771141 473.65507,22.502859 474.238339,21.5286949 C474.821609,20.5545307 474.821609,19.3384693 474.238339,18.3643051 C473.65507,17.390141 472.583139,16.8158859 471.449,16.87 L477.63,16.87 C479.272101,16.7916491 480.563208,15.4374687 480.563208,13.7935 C480.563208,12.1495313 479.272101,10.7953509 477.63,10.717 L477.63,10.717 Z" id="Path" fill="#DEE3F3" fill-rule="nonzero" opacity="0.5"></path>
                    <path d="M292.676,28.665 L289.33,28.665 C290.197087,28.7124271 291.019395,28.2768021 291.467211,27.5327934 C291.915027,26.7887848 291.915027,25.8582152 291.467211,25.1142066 C291.019395,24.3701979 290.197087,23.9345729 289.33,23.982 L262.226,23.982 C260.982513,24.0500151 260.009073,25.0781544 260.009073,26.3235 C260.009073,27.5688456 260.982513,28.5969849 262.226,28.665 L265.572,28.665 C264.704913,28.6175729 263.882605,29.0531979 263.434789,29.7972066 C262.986973,30.5412152 262.986973,31.4717848 263.434789,32.2157934 C263.882605,32.9598021 264.704913,33.3954271 265.572,33.348 L260.889,33.348 C260.021913,33.3005729 259.199605,33.7361979 258.751789,34.4802066 C258.303973,35.2242152 258.303973,36.1547848 258.751789,36.8987934 C259.199605,37.6428021 260.021913,38.0784271 260.889,38.031 L287.993,38.031 C288.860087,38.0784271 289.682395,37.6428021 290.130211,36.8987934 C290.578027,36.1547848 290.578027,35.2242152 290.130211,34.4802066 C289.682395,33.7361979 288.860087,33.3005729 287.993,33.348 L292.676,33.348 C293.919487,33.2799849 294.892927,32.2518456 294.892927,31.0065 C294.892927,29.7611544 293.919487,28.7330151 292.676,28.665 L292.676,28.665 Z" id="Path" fill="#DEE3F3" fill-rule="nonzero" opacity="0.5"></path>
                    <path d="M154.188,52.248 L149.792,52.248 C150.926139,52.3021141 151.99807,51.727859 152.581339,50.7536949 C153.164609,49.7795307 153.164609,48.5634693 152.581339,47.5893051 C151.99807,46.615141 150.926139,46.0408859 149.792,46.095 L114.176,46.095 C112.533899,46.1733509 111.242792,47.5275313 111.242792,49.1715 C111.242792,50.8154687 112.533899,52.1696491 114.176,52.248 L118.572,52.248 C116.929899,52.3263509 115.638792,53.6805313 115.638792,55.3245 C115.638792,56.9684687 116.929899,58.3226491 118.572,58.401 L112.419,58.401 C110.776899,58.4793509 109.485792,59.8335313 109.485792,61.4775 C109.485792,63.1214687 110.776899,64.4756491 112.419,64.554 L148.035,64.554 C149.169139,64.6081141 150.24107,64.033859 150.824339,63.0596949 C151.407609,62.0855307 151.407609,60.8694693 150.824339,59.8953051 C150.24107,58.921141 149.169139,58.3468859 148.035,58.401 L154.188,58.401 C155.830101,58.3226491 157.121208,56.9684687 157.121208,55.3245 C157.121208,53.6805313 155.830101,52.3263509 154.188,52.248 L154.188,52.248 Z" id="Path" fill="#FFFFFF" fill-rule="nonzero" opacity="0.5"></path>
                </g>
            </g>
        </g>
    </g>
</svg>