<?xml version="1.0" encoding="UTF-8"?>
<svg width="24px" height="24px" viewBox="0 0 24 24" version="1.1" xmlns="http://www.w3.org/2000/svg" xmlns:xlink="http://www.w3.org/1999/xlink">
    <!-- Generator: Sketch 56.3 (81716) - https://sketch.com -->
    <title>book</title>
    <desc>Created with Sketch.</desc>
    <g id="Page-1" stroke="none" stroke-width="1" fill="none" fill-rule="evenodd">
        <g id="academia-home" transform="translate(-478.000000, -625.000000)">
            <g id="Outlined-/-Action-/-book-2" transform="translate(478.000000, 625.000000)">
                <g id="Outlined-/-Action-/-book">
                    <g>
                        <polygon id="Path" points="0 0 24 0 24 24 0 24"></polygon>
                        <path d="M18,2 L6,2 C4.9,2 4,2.9 4,4 L4,20 C4,21.1 4.9,22 6,22 L18,22 C19.1,22 20,21.1 20,20 L20,4 C20,2.9 19.1,2 18,2 Z M9,4 L11,4 L11,9 L10,8.25 L9,9 L9,4 Z M18,20 L6,20 L6,4 L7,4 L7,13 L10,10.75 L13,13 L13,4 L18,4 L18,20 Z" id="🔹-Icon-Color" fill="#FFFFFF"></path>
                    </g>
                </g>
            </g>
        </g>
    </g>
</svg>