<?xml version="1.0" encoding="UTF-8"?>
<svg width="145px" height="120px" viewBox="0 0 145 120" version="1.1" xmlns="http://www.w3.org/2000/svg" xmlns:xlink="http://www.w3.org/1999/xlink">
    <!-- Generator: Sketch 63.1 (92452) - https://sketch.com -->
    <title>Group 6</title>
    <desc>Created with Sketch.</desc>
    <g id="🖥-Layout-samples" stroke="none" stroke-width="1" fill="none" fill-rule="evenodd" opacity="0.246930804">
        <g id="2.page-list" transform="translate(-1130.000000, -134.000000)" fill-rule="nonzero">
            <g id="Group-6" transform="translate(1130.000000, 134.000000)">
                <g id="icons8-measurement-tool">
                    <path d="M4.414,65 L12.164,57.25 L11.394,56.544 C4.788,50.494 1,41.912 1,33 C1,15.356 15.356,1 33,1 C41.912,1 50.494,4.788 56.544,11.394 L57.25,12.164 L65,4.414 L78.586,18 L18,78.586 L4.414,65 Z M33,17 C24.178,17 17,24.178 17,33 C17,37.778 19.12,42.268 22.814,45.32 L23.516,45.9 L45.9,23.514 L45.32,22.812 C42.268,19.12 37.778,17 33,17 Z" id="Shape" fill="#B6DCFE"></path>
                    <path d="M33,2 C41.632,2 49.946,5.67 55.808,12.068 L57.22,13.608 L58.698,12.13 L65,5.828 L77.172,18 L18,77.172 L5.828,65 L12.132,58.696 L13.61,57.218 L12.07,55.806 C5.67,49.946 2,41.632 2,33 C2,15.906 15.906,2 33,2 M23.578,47.25 L24.864,45.964 L45.964,24.864 L47.25,23.578 L46.092,22.176 C42.848,18.252 38.078,16 33,16 C23.626,16 16,23.626 16,33 C16,38.078 18.252,42.848 22.176,46.092 L23.578,47.25 M33,0 C14.774,0 0,14.774 0,33 C0,42.624 4.142,51.258 10.718,57.282 L3,65 L18,80 L80,18 L65,3 L57.282,10.718 C51.258,4.142 42.624,0 33,0 L33,0 Z M23.45,44.55 C20.124,41.802 18,37.652 18,33 C18,24.716 24.716,18 33,18 C37.652,18 41.802,20.124 44.55,23.45 L23.45,44.55 L23.45,44.55 Z" id="Shape" fill="#4788C7"></path>
                    <path d="M19.706,66.292 C19.318,65.904 18.68,65.904 18.292,66.292 C17.904,66.68 17.904,67.318 18.292,67.706 L24.294,73.708 L25.708,72.294 L19.706,66.292 Z M27.706,62.292 C27.318,61.904 26.68,61.904 26.292,62.292 C25.904,62.68 25.904,63.318 26.292,63.706 L30.294,67.708 L31.708,66.294 L27.706,62.292 Z M31.706,54.292 C31.318,53.904 30.68,53.904 30.292,54.292 C29.904,54.68 29.904,55.318 30.292,55.706 L36.294,61.708 L37.708,60.294 L31.706,54.292 Z M39.706,50.292 C39.318,49.904 38.68,49.904 38.292,50.292 C37.904,50.68 37.904,51.318 38.292,51.706 L42.294,55.708 L43.708,54.294 L39.706,50.292 Z M43.706,42.292 C43.318,41.904 42.68,41.904 42.292,42.292 C41.904,42.68 41.904,43.318 42.292,43.706 L48.294,49.708 L49.708,48.294 L43.706,42.292 Z M51.706,38.292 C51.318,37.904 50.68,37.904 50.292,38.292 C49.904,38.68 49.904,39.318 50.292,39.706 L54.294,43.708 L55.708,42.294 L51.706,38.292 Z M62.292,27.706 L66.294,31.708 L67.708,30.294 L63.706,26.292 C63.318,25.904 62.68,25.904 62.292,26.292 C61.904,26.68 61.902,27.318 62.292,27.706 Z M55.706,30.292 C55.318,29.904 54.68,29.904 54.292,30.292 C53.904,30.68 53.904,31.318 54.292,31.706 L60.294,37.708 L61.708,36.294 L55.706,30.292 Z M67.706,18.292 C67.318,17.904 66.68,17.904 66.292,18.292 C65.904,18.68 65.904,19.318 66.292,19.706 L72.294,25.708 L73.708,24.294 L67.706,18.292 Z" id="Shape" fill="#4788C7"></path>
                </g>
                <g id="icons8-pi" transform="translate(65.000000, 41.000000)">
                    <path d="M59.0304,78 C51.2571429,78 46.8,72.4374857 46.8,62.7365143 C46.8,55.7989714 48.1549714,47.7114857 49.7238857,38.3448 C50.9964,30.7632 52.4382857,22.1676 53.4790286,12.3752571 L53.6105143,11.1428571 L33.5288571,11.1428571 L33.4330286,12.1524 C32.7622286,19.3239429 32.214,25.8090857 31.7148,31.6635429 C28.7753143,66.3245143 27.7858286,78 15.5732571,78 C11.1361714,78 6.65897143,75.2432571 6.65897143,69.0857143 C6.65897143,65.3060571 8.56662857,63.5544 10.6325143,62.2217143 C16.9505143,58.1478857 23.8056,49.0374857 26.7384,12.3462857 L26.8364571,11.1428571 L18.9428571,11.1428571 C12.5022857,11.1428571 6.53194286,15.4150286 2.55394286,22.8673714 C1.85417143,24.2736 1.4508,24.5142857 0.862457143,24.5142857 C0.693085714,24.5142857 0,24.336 0,23.9593714 C0,15.5977714 8.80062857,0 25.6285714,0 L78,0 L78,11.1428571 L60.3385714,11.1428571 L60.1870286,12.0766286 C55.4424,40.8430286 55.6117714,58.4621143 60.6884571,64.4436 C62.0456571,66.0459429 63.7393714,66.8571429 65.7183429,66.8571429 C73.3489714,66.8571429 77.5364571,60.3341143 77.9643429,53.5347429 C77.5921714,73.7189143 67.5123429,78 59.0304,78 Z" id="Path" stroke="#4788C7" stroke-width="2" fill="#DFF0FE"></path>
                    <path d="M79.015748,57 L79.015748,57 C78.4744094,57 78.0314961,56.4375 78.0314961,55.75 L78,53.235 C78,52.5475 78.4744094,52 79.015748,52 L79.015748,52 C79.5570866,52 80,52.5625 80,53.25 L79.8759843,55.98 C79.8759843,56.6675 79.5570866,57 79.015748,57 Z" id="Path" fill="#4788C7"></path>
                </g>
            </g>
        </g>
    </g>
</svg>