<?xml version="1.0" encoding="UTF-8"?>
<svg width="165px" height="46px" viewBox="0 0 165 46" version="1.1" xmlns="http://www.w3.org/2000/svg" xmlns:xlink="http://www.w3.org/1999/xlink">
    <title>logo</title>
    <g id="logo" stroke="none" stroke-width="1" fill="none" fill-rule="evenodd">
        <g id="Group-4" transform="translate(46.000000, 11.587375)" fill="#FFFFFF" fill-rule="nonzero">
            <g id="Group-2" transform="translate(0.000000, 0.160000)">
                <path d="M10.4,-1.16529009e-12 L10.7866173,0.00483950617 C12.9519835,0.0596872428 14.6844444,0.580740741 15.984,1.568 C17.36,2.61333333 18.048,4.04266667 18.048,5.856 C18.048,7.02933333 17.7333333,8.05866667 17.104,8.944 C16.4746667,9.82933333 15.6053333,10.4746667 14.496,10.88 C15.7973333,11.264 16.8053333,11.9306667 17.52,12.88 C18.2346667,13.8293333 18.592,14.9973333 18.592,16.384 C18.592,18.2826667 17.8933333,19.7866667 16.496,20.896 C15.0986667,22.0053333 13.1733333,22.56 10.72,22.56 L10.72,22.56 L2.336,22.56 L2.11712,22.55392 C1.47584,22.51744 0.9728,22.3168 0.608,21.952 C0.202666667,21.5466667 -3.19744231e-14,20.9706667 -3.19744231e-14,20.224 L-3.19744231e-14,20.224 L-3.19744231e-14,2.336 L0.00608,2.11712 C0.04256,1.47584 0.2432,0.9728 0.608,0.608 C1.01333333,0.202666667 1.58933333,-1.16529009e-12 2.336,-1.16529009e-12 L2.336,-1.16529009e-12 L10.4,-1.16529009e-12 Z M10.144,12.992 L4.864,12.992 L4.864,18.752 L10.144,18.752 C11.4666667,18.752 12.4266667,18.528 13.024,18.08 C13.6213333,17.632 13.92,16.9066667 13.92,15.904 C13.92,14.9013333 13.6213333,14.1653333 13.024,13.696 C12.4266667,13.2266667 11.4666667,12.992 10.144,12.992 L10.144,12.992 Z M9.568,3.808 L4.864,3.808 L4.864,9.184 L9.568,9.184 C10.848,9.184 11.792,8.96533333 12.4,8.528 C13.008,8.09066667 13.312,7.424 13.312,6.528 C13.312,5.58933333 13.008,4.90133333 12.4,4.464 C11.792,4.02666667 10.848,3.808 9.568,3.808 L9.568,3.808 Z" id="Combined-Shape"></path>
            </g>
            <path d="M28.32,6.624 C29.984,6.624 31.4453333,6.95466667 32.704,7.616 C33.9626667,8.27733333 34.9333333,9.22133333 35.616,10.448 C36.2986667,11.6746667 36.64,13.12 36.64,14.784 C36.64,16.448 36.2986667,17.8933333 35.616,19.12 C34.9333333,20.3466667 33.9626667,21.296 32.704,21.968 C31.4453333,22.64 29.984,22.976 28.32,22.976 C26.656,22.976 25.1946667,22.64 23.936,21.968 C22.6773333,21.296 21.7066667,20.3466667 21.024,19.12 C20.3413333,17.8933333 20,16.448 20,14.784 C20,13.12 20.3413333,11.6746667 21.024,10.448 C21.7066667,9.22133333 22.6773333,8.27733333 23.936,7.616 C25.1946667,6.95466667 26.656,6.624 28.32,6.624 Z M28.32,10.272 C25.9733333,10.272 24.8,11.776 24.8,14.784 C24.8,17.792 25.9733333,19.296 28.32,19.296 C30.6666667,19.296 31.84,17.792 31.84,14.784 C31.84,13.2693333 31.536,12.1386667 30.928,11.392 C30.32,10.6453333 29.4506667,10.272 28.32,10.272 Z" id="Combined-Shape"></path>
            <path d="M40.136,1.1937118e-12 C40.84,1.1937118e-12 41.4053333,0.192 41.832,0.576 C42.2586667,0.96 42.472,1.472 42.472,2.112 L42.472,2.112 L42.472,9.12 L42.61872,8.88848 C43.07664,8.20976 43.6944,7.6736 44.472,7.28 C45.336,6.84266667 46.3013333,6.624 47.368,6.624 C48.7333333,6.624 49.9386667,6.95466667 50.984,7.616 C52.0293333,8.27733333 52.8453333,9.22133333 53.432,10.448 C54.0186667,11.6746667 54.312,13.0986667 54.312,14.72 C54.312,16.3413333 54.0186667,17.776 53.432,19.024 C52.8453333,20.272 52.024,21.2426667 50.968,21.936 C49.912,22.6293333 48.712,22.976 47.368,22.976 C46.28,22.976 45.2986667,22.7466667 44.424,22.288 C43.5493333,21.8293333 42.8773333,21.1946667 42.408,20.384 L42.408,20.384 L42.408,20.64 L42.4016,20.8408 C42.3632,21.4312 42.152,21.9136 41.768,22.288 C41.3413333,22.704 40.7653333,22.912 40.04,22.912 C39.3146667,22.912 38.7333333,22.704 38.296,22.288 C37.8586667,21.872 37.64,21.3226667 37.64,20.64 L37.64,20.64 L37.64,2.208 L37.64688,2.01344 C37.68816,1.44128 37.9152,0.9728 38.328,0.608 C38.7866667,0.202666667 39.3893333,1.1937118e-12 40.136,1.1937118e-12 Z M45.96,10.304 C44.8293333,10.304 43.9546667,10.6933333 43.336,11.472 C42.7173333,12.2506667 42.408,13.3546667 42.408,14.784 C42.408,16.2346667 42.7173333,17.3493333 43.336,18.128 C43.9546667,18.9066667 44.8293333,19.296 45.96,19.296 C47.0906667,19.296 47.9653333,18.896 48.584,18.096 C49.2026667,17.296 49.512,16.1706667 49.512,14.72 C49.512,13.2906667 49.2026667,12.1973333 48.584,11.44 C47.9653333,10.6826667 47.0906667,10.304 45.96,10.304 Z" id="Combined-Shape"></path>
            <path d="M63.632,6.624 C65.296,6.624 66.7573333,6.95466667 68.016,7.616 C69.2746667,8.27733333 70.2453333,9.22133333 70.928,10.448 C71.6106667,11.6746667 71.952,13.12 71.952,14.784 C71.952,16.448 71.6106667,17.8933333 70.928,19.12 C70.2453333,20.3466667 69.2746667,21.296 68.016,21.968 C66.7573333,22.64 65.296,22.976 63.632,22.976 C61.968,22.976 60.5066667,22.64 59.248,21.968 C57.9893333,21.296 57.0186667,20.3466667 56.336,19.12 C55.6533333,17.8933333 55.312,16.448 55.312,14.784 C55.312,13.12 55.6533333,11.6746667 56.336,10.448 C57.0186667,9.22133333 57.9893333,8.27733333 59.248,7.616 C60.5066667,6.95466667 61.968,6.624 63.632,6.624 Z M63.632,10.272 C61.2853333,10.272 60.112,11.776 60.112,14.784 C60.112,17.792 61.2853333,19.296 63.632,19.296 C65.9786667,19.296 67.152,17.792 67.152,14.784 C67.152,13.2693333 66.848,12.1386667 66.24,11.392 C65.632,10.6453333 64.7626667,10.272 63.632,10.272 Z" id="Combined-Shape"></path>
            <path d="M79.864,22.976 C81.9546667,22.976 83.624,22.528 84.872,21.632 C86.12,20.736 86.744,19.5306667 86.744,18.016 C86.744,17.0986667 86.5626667,16.3413333 86.2,15.744 C85.8373333,15.1466667 85.2506667,14.6506667 84.44,14.256 C83.6293333,13.8613333 82.5093333,13.5253333 81.08,13.248 C79.8,13.0133333 78.936,12.7786667 78.488,12.544 C78.04,12.3093333 77.816,11.968 77.816,11.52 C77.816,11.0933333 78.008,10.7573333 78.392,10.512 C78.776,10.2666667 79.2986667,10.144 79.96,10.144 C80.5573333,10.144 81.0746667,10.2133333 81.512,10.352 C81.9493333,10.4906667 82.4346667,10.6986667 82.968,10.976 C83.6506667,11.36 84.2373333,11.552 84.728,11.552 C85.1333333,11.552 85.4746667,11.3813333 85.752,11.04 C86.0293333,10.6986667 86.168,10.272 86.168,9.76 C86.168,8.97066667 85.8373333,8.37333333 85.176,7.968 C84.4933333,7.54133333 83.7146667,7.21066667 82.84,6.976 C81.9653333,6.74133333 81.0693333,6.624 80.152,6.624 C78.872,6.624 77.72,6.84266667 76.696,7.28 C75.672,7.71733333 74.8666667,8.32 74.28,9.088 C73.6933333,9.856 73.4,10.72 73.4,11.68 C73.4,12.9813333 73.816,13.9946667 74.648,14.72 C75.48,15.4453333 76.8453333,15.9893333 78.744,16.352 C79.8106667,16.5653333 80.5893333,16.7466667 81.08,16.896 C81.5706667,17.0453333 81.9066667,17.2106667 82.088,17.392 C82.2693333,17.5733333 82.36,17.8133333 82.36,18.112 C82.36,18.5173333 82.152,18.8373333 81.736,19.072 C81.32,19.3066667 80.7386667,19.424 79.992,19.424 C79.1386667,19.424 78.424,19.344 77.848,19.184 C77.272,19.024 76.6853333,18.8053333 76.088,18.528 C75.7893333,18.4 75.5013333,18.288 75.224,18.192 C74.9466667,18.096 74.6693333,18.048 74.392,18.048 C73.9866667,18.048 73.6453333,18.2133333 73.368,18.544 C73.0906667,18.8746667 72.952,19.2853333 72.952,19.776 C72.952,20.1813333 73.0373333,20.544 73.208,20.864 C73.3786667,21.184 73.624,21.44 73.944,21.632 C74.6693333,22.1013333 75.512,22.4426667 76.472,22.656 C77.432,22.8693333 78.5626667,22.976 79.864,22.976 Z" id="Path"></path>
            <path d="M100.736,22.912 C101.482667,22.912 102.074667,22.7093333 102.512,22.304 C102.949333,21.8986667 103.168,21.344 103.168,20.64 L103.168,20.64 L103.168,13.248 C103.168,8.832 101.344,6.624 97.696,6.624 C96.5866667,6.624 95.5946667,6.832 94.72,7.248 C93.8453333,7.664 93.1306667,8.27733333 92.576,9.088 L92.576,9.088 L92.576,2.112 C92.576,1.472 92.3626667,0.96 91.936,0.576 C91.5093333,0.192 90.944,-9.09494702e-13 90.24,-9.09494702e-13 C89.4933333,-9.09494702e-13 88.8906667,0.202666667 88.432,0.608 C87.9733333,1.01333333 87.744,1.54666667 87.744,2.208 L87.744,2.208 L87.744,20.64 C87.744,21.344 87.9626667,21.8986667 88.4,22.304 C88.8373333,22.7093333 89.4293333,22.912 90.176,22.912 C90.9226667,22.912 91.5093333,22.7093333 91.936,22.304 C92.3626667,21.8986667 92.576,21.344 92.576,20.64 L92.576,20.64 L92.576,13.92 C92.576,12.8533333 92.88,12 93.488,11.36 C94.096,10.72 94.9013333,10.4 95.904,10.4 C96.736,10.4 97.3493333,10.6293333 97.744,11.088 C98.1386667,11.5466667 98.336,12.2453333 98.336,13.184 L98.336,13.184 L98.336,20.64 C98.336,21.344 98.5493333,21.8986667 98.976,22.304 C99.4026667,22.7093333 99.9893333,22.912 100.736,22.912 Z" id="Path"></path>
        </g>
        <path d="M22.3832362,4.91676384 C27.6231616,4.91676384 32.3425484,7.14545479 35.645181,10.7066211 L22.5282475,21.3284048 L20.0427639,26.215863 L25.3155915,24.770488 L38.2417106,14.3031991 C39.6598374,16.8836376 40.4664723,19.847619 40.4664723,23 C40.4664723,32.9870956 32.3703317,41.0832362 22.3832362,41.0832362 C12.3961406,41.0832362 4.3,32.9870956 4.3,23 C4.3,13.0129044 12.3961406,4.91676384 22.3832362,4.91676384 Z" id="Combined-Shape" fill="#FFFFFF"></path>
    </g>
</svg>