<?xml version="1.0" encoding="UTF-8"?>
<svg width="87px" height="81px" viewBox="0 0 87 81" version="1.1" xmlns="http://www.w3.org/2000/svg" xmlns:xlink="http://www.w3.org/1999/xlink">
    <title>1</title>
    <g id="🖥-Layout-samples" stroke="none" stroke-width="1" fill="none" fill-rule="evenodd">
        <g id="Artboard" transform="translate(-347.000000, -191.000000)" fill="#FFFFFF" fill-rule="nonzero">
            <g id="1" transform="translate(347.000000, 191.000000)">
                <path d="M28.7139368,0.0170105263 C29.9937684,0.0170105263 31.2271158,0.430821053 32.2517895,1.19393684 C32.4181895,1.17743158 32.5824,1.16917895 32.7462737,1.16917895 C33.9730526,1.16917895 35.1636211,1.60016842 36.1167158,2.37187368 C36.3383579,2.33818947 36.5596632,2.32134737 36.7787789,2.32134737 C38.4852211,2.32134737 40.0402526,3.2352 40.8944842,4.67065263 C43.2341895,4.99284211 45.0420211,7.00547368 45.0420211,9.43225263 C45.0420211,9.60067368 45.0330947,9.76842105 45.0150737,9.93549474 C46.4323368,10.7880421 47.3463579,12.3348211 47.3463579,14.0409263 C47.3463579,14.8501895 47.1378526,15.6407579 46.7476211,16.3452632 C47.1380211,17.0497684 47.3463579,17.8405053 47.3463579,18.6496 C47.3463579,20.3627789 46.4250947,21.9233684 44.9798737,22.7754105 C44.8660211,23.3813895 44.5999158,23.9405474 44.2184421,24.4074105 C44.7326316,25.0371368 45.0420211,25.8401684 45.0420211,26.7147789 L45.0420211,26.7147789 L45.0420211,27.3808842 L80.5608421,27.3808842 C83.6875789,27.3808842 86.2315789,29.9247158 86.2315789,33.0516211 L86.2315789,33.0516211 L86.2315789,58.9751579 C86.2315789,62.1020632 83.6875789,64.6458947 80.5608421,64.6458947 L80.5608421,64.6458947 L67.7968842,64.6458947 L68.7811368,72.0269474 L83.4411789,72.0269474 C84.9798737,72.0269474 86.2315789,73.2786526 86.2315789,74.8173474 L86.2315789,74.8173474 L86.2315789,77.6976842 C86.2315789,79.2363789 84.9798737,80.4880842 83.4411789,80.4880842 L83.4411789,80.4880842 L2.7904,80.4880842 C1.25170526,80.4880842 0,79.2363789 0,77.6976842 L0,77.6976842 L0,74.8173474 C0,73.2786526 1.25170526,72.0269474 2.7904,72.0269474 L2.7904,72.0269474 L5.85987368,72.0269474 C4.89751579,70.8138105 4.32050526,69.2815158 4.32050526,67.6163368 L4.32050526,67.6163368 L4.32050526,50.8574316 C4.32050526,48.2250105 6.01094737,45.9363368 8.52682105,45.1621053 L8.52682105,45.1621053 L18.6253474,42.0549053 C19.0282105,41.9311158 19.2990316,41.5644632 19.2990316,41.1430737 L19.2990316,41.1430737 L19.2990316,37.3325474 L18.8079158,36.9232842 C17.7010526,36.0008421 16.9662316,34.7093895 16.7386947,33.2869053 L16.7386947,33.2869053 L16.6405053,32.6735158 L16.0404211,32.6735158 C14.0250947,32.6735158 12.3858526,31.0339368 12.3858526,29.0189474 L12.3858526,29.0189474 L12.3858526,26.7146105 C12.3858526,25.4866526 12.9963789,24.4008421 13.9280842,23.7377684 C13.7761684,23.4366316 13.6638316,23.1136 13.6003368,22.7754105 C12.1547789,21.9233684 11.2336842,20.3627789 11.2336842,18.6496 C11.2336842,17.8405053 11.4420211,17.0497684 11.8324211,16.3452632 C11.4420211,15.6407579 11.2336842,14.8501895 11.2336842,14.0409263 C11.2336842,12.3348211 12.1478737,10.7880421 13.5649684,9.93549474 C13.5469474,9.76842105 13.5380211,9.60050526 13.5380211,9.43225263 C13.5380211,7.00547368 15.3458526,4.99284211 17.6855579,4.67082105 C18.4601263,3.36892632 19.8108632,2.49633684 21.3285053,2.34492632 C22.2799158,1.58298947 23.4514526,1.16917895 24.6814316,1.16917895 C24.8451368,1.16917895 25.0093474,1.17743158 25.1759158,1.19393684 C26.2007579,0.430821053 27.4341053,0.0170105263 28.7139368,0.0170105263 Z M83.4411789,74.7272421 L2.7904,74.7272421 C2.74071579,74.7272421 2.70046316,74.7674947 2.70046316,74.8171789 L2.70046316,74.8171789 L2.70046316,77.6975158 C2.70046316,77.7472 2.74071579,77.7874526 2.7904,77.7874526 L2.7904,77.7874526 L83.4411789,77.7874526 C83.4908632,77.7874526 83.5311158,77.7472 83.5311158,77.6975158 L83.5311158,77.6975158 L83.5311158,74.8171789 C83.5311158,74.7674947 83.4908632,74.7272421 83.4411789,74.7272421 L83.4411789,74.7272421 Z M50.1187368,64.6460632 L45.9061895,64.6460632 L45.9061895,71.9370105 C45.9061895,71.9673263 45.9036632,71.9971368 45.9016421,72.0269474 L45.9016421,72.0269474 L45.9016421,72.0271158 L49.1344842,72.0271158 L50.1187368,64.6460632 Z M62.1968842,53.1243789 L55.7190737,53.1243789 C54.9551158,53.1243789 54.3031579,53.6951579 54.2021053,54.4523789 L54.2021053,54.4523789 L51.8588632,72.0269474 L66.0570947,72.0269474 L63.7136842,54.4523789 C63.6128,53.6951579 62.9606737,53.1243789 62.1968842,53.1243789 L62.1968842,53.1243789 Z M30.1541053,67.5264 L27.1836632,67.5264 L27.1836632,72.0269474 L33.1243789,72.0269474 L33.1243789,70.4966737 C33.1243789,68.8587789 31.7918316,67.5262316 30.1541053,67.5264 L30.1541053,67.5264 Z M14.9879579,45.9993263 L9.32109474,47.7428211 C7.94543158,48.1662316 7.02096842,49.4177684 7.02096842,50.8572632 L7.02096842,50.8572632 L7.02096842,67.6161684 C7.02096842,70.0481684 8.99957895,72.0267789 11.4315789,72.0267789 L11.4315789,72.0267789 L24.4832,72.0267789 L24.4832,67.5262316 L15.7520842,67.5262316 C14.2133895,67.5262316 12.9616842,66.2745263 12.9616842,64.7358316 L12.9616842,64.7358316 L12.9616842,56.0946526 C12.9616842,55.3488842 13.5661474,54.7444211 14.3119158,54.7444211 C15.0576842,54.7444211 15.6621474,55.3490526 15.6621474,56.0946526 L15.6621474,56.0946526 L15.6621474,64.7358316 C15.6621474,64.7855158 15.7024,64.8257684 15.7520842,64.8257684 L15.7520842,64.8257684 L30.1541053,64.8257684 C33.2808421,64.8257684 35.8248421,67.3696 35.8248421,70.4965053 L35.8248421,70.4965053 L35.8248421,72.0267789 L43.2104421,72.0267789 C43.2084211,71.9969684 43.2058947,71.9673263 43.2058947,71.9368421 L43.2058947,71.9368421 L43.2058947,64.6458947 L37.3551158,64.6458947 C34.2282105,64.6458947 31.6843789,62.1020632 31.6843789,58.9751579 L31.6843789,58.9751579 L31.6843789,53.2458105 C30.8890947,53.3554526 30.0848842,53.4122105 29.2783158,53.4122105 C23.5988211,53.4122105 18.2645895,50.6425263 14.9879579,45.9993263 L14.9879579,45.9993263 Z M80.5608421,30.0811789 L37.3549474,30.0811789 C35.7170526,30.0811789 34.3845053,31.4137263 34.3845053,33.0516211 L34.3845053,33.0516211 L34.3845053,58.9751579 C34.3845053,60.6130526 35.7170526,61.9456 37.3549474,61.9456 L37.3549474,61.9456 L50.3166316,61.9456 C50.3712,61.9456 50.4247579,61.9498105 50.4774737,61.9560421 L50.4774737,61.9560421 L51.5255579,54.0954947 C51.8046316,52.0025263 53.6075789,50.4240842 55.7190737,50.4240842 L55.7190737,50.4240842 L62.1968842,50.4240842 C64.3083789,50.4240842 66.1111579,52.0025263 66.3902316,54.0954947 L66.3902316,54.0954947 L67.4383158,61.9560421 C67.4913684,61.9498105 67.5445895,61.9456 67.5991579,61.9456 L67.5991579,61.9456 L80.5608421,61.9456 C82.1987368,61.9456 83.5312842,60.6130526 83.5312842,58.9751579 L83.5312842,58.9751579 L83.5312842,33.0516211 C83.5312842,31.4137263 82.1987368,30.0811789 80.5608421,30.0811789 L80.5608421,30.0811789 Z M21.9991579,39.5828211 L21.9991579,41.1430737 C21.9991579,42.7573895 20.9625263,44.1611789 19.4192842,44.6359579 L19.4192842,44.6359579 L17.7300211,45.1558737 C20.5266526,48.6512842 24.7742316,50.7120842 29.2783158,50.7120842 C30.0867368,50.7120842 30.8921263,50.6450526 31.6843789,50.5157053 L31.6843789,50.5157053 L31.6843789,41.8278737 C31.4319158,41.8689684 31.1759158,41.8908632 30.9190737,41.8908632 L30.9190737,41.8908632 L26.5089684,41.8908632 C25.3866105,41.8908632 24.2938947,41.4952421 23.4317474,40.7767579 L23.4317474,40.7767579 L21.9991579,39.5828211 Z M58.9579789,38.9024 C61.2906105,38.9024 63.1885474,40.8003368 63.1885474,43.1329684 C63.1885474,45.4657684 61.2907789,47.3635368 58.9579789,47.3635368 C56.6251789,47.3635368 54.7274105,45.4657684 54.7274105,43.1329684 C54.7274105,40.8001684 56.6251789,38.9024 58.9579789,38.9024 Z M58.9579789,41.6026947 C58.1141895,41.6026947 57.4277053,42.2891789 57.4277053,43.1329684 C57.4277053,43.9767579 58.1141895,44.6632421 58.9579789,44.6632421 C59.8017684,44.6632421 60.4880842,43.9767579 60.4882526,43.1329684 C60.4882526,42.2891789 59.8017684,41.6026947 58.9579789,41.6026947 Z M35.0504421,19.04 C34.2307368,19.6554105 33.2252632,19.9998316 32.1701053,19.9998316 C31.1147789,19.9998316 30.1094737,19.6555789 29.2897684,19.04 C28.4700632,19.6554105 27.4645895,19.9998316 26.4094316,19.9998316 C25.3541053,19.9998316 24.3488,19.6555789 23.5290947,19.04 C22.9455158,19.4780632 22.2681263,19.7790316 21.5452632,19.9157895 L21.5452632,19.9157895 L20.9197474,23.6697263 C20.7174737,24.8811789 19.6794947,25.7606737 18.4513684,25.7606737 L18.4513684,25.7606737 L18.2686316,25.7606737 L19.4044632,32.8601263 C19.5289263,33.6380632 19.9306105,34.3440842 20.5359158,34.8485053 L20.5359158,34.8485053 L25.1602526,38.7021474 C25.5380211,39.0170947 26.0168421,39.1904 26.5086316,39.1904 L26.5086316,39.1904 L30.9187368,39.1904 C31.1813053,39.1904 31.4410105,39.1388632 31.6840421,39.0440421 L31.6840421,39.0440421 L31.6840421,33.0516211 C31.6840421,29.9248842 34.2278737,27.3808842 37.3547789,27.3808842 L37.3547789,27.3808842 L38.8995368,27.3808842 L39.1880421,25.5770947 C38.4010105,25.2594526 37.8071579,24.5541053 37.6597895,23.6698947 L37.6597895,23.6698947 L37.0342737,19.9157895 C36.3114105,19.7788632 35.6338526,19.4782316 35.0504421,19.04 Z M15.5558737,25.8972632 C15.2759579,26.0638316 15.0859789,26.3661474 15.0859789,26.7147789 L15.0859789,26.7147789 L15.0859789,29.0191158 C15.0859789,29.5452632 15.5141053,29.9732211 16.0400842,29.9732211 L16.0400842,29.9732211 L16.2081684,29.9732211 Z M41.8718316,25.8972632 L41.6343579,27.3808842 L42.3417263,27.3808842 L42.3417263,26.7147789 C42.3417263,26.3661474 42.1517474,26.0638316 41.8718316,25.8972632 L41.8718316,25.8972632 Z M28.7137684,2.71764211 C27.8928842,2.71764211 27.1038316,3.03410526 26.4916211,3.60858947 C26.1650526,3.91511579 25.7074526,4.03957895 25.2710737,3.94138947 C25.0561684,3.89305263 24.8631579,3.86947368 24.6810947,3.86947368 C23.9777684,3.86947368 23.3114947,4.14298947 22.8052211,4.63949474 C22.5468632,4.89296842 22.2009263,5.03006316 21.8359579,5.02568421 C21.8095158,5.02534737 21.7832421,5.02416842 21.7571368,5.02231579 C20.8884211,5.04067368 20.1153684,5.60589474 19.8245053,6.44092632 C19.6257684,7.01153684 19.0736842,7.3792 18.4690526,7.34450526 C18.4102737,7.34096842 18.3525053,7.33456842 18.2950737,7.32682105 C17.1562105,7.35309474 16.2379789,8.28766316 16.2379789,9.43258947 C16.2379789,9.69414737 16.2903579,9.95738947 16.3939368,10.2145684 C16.5376,10.5724632 16.5214316,10.9748211 16.3493053,11.3199158 C16.1775158,11.6651789 15.8659368,11.9201684 15.4937263,12.0210526 C14.5751579,12.2696421 13.9338105,13.1002947 13.9338105,14.0410947 C13.9338105,14.6940632 14.2327579,15.1631158 14.4837053,15.4416842 C14.9463579,15.9553684 14.9463579,16.7354947 14.4838737,17.2491789 C14.2330947,17.5277474 13.9338105,17.9968 13.9338105,18.6497684 C13.9338105,19.536 14.5042526,20.3301053 15.3530947,20.6258526 C15.9381895,20.8298105 16.3095579,21.4059789 16.2534737,22.0230737 C16.2497684,22.0645053 16.2447158,22.1052632 16.2393263,22.1461895 C16.2566737,22.5561263 16.5438316,22.912 16.9488842,23.0197895 C16.9921684,23.0312421 18.2832842,23.0602105 18.2832842,23.0602105 L18.2832842,23.0602105 L19.0595368,18.4011789 C19.1744,17.7123368 19.7972211,17.2237474 20.4919579,17.2768 C20.5546105,17.2815158 20.6164211,17.2890947 20.6777263,17.2975158 L20.6777263,17.2975158 C21.3773474,17.2862316 22.0173474,16.9347368 22.4033684,16.3526737 C22.6534737,15.9757474 23.0760421,15.7488842 23.5285895,15.7488842 C23.9813053,15.7488842 24.4035368,15.9757474 24.6538105,16.3528421 C25.0469053,16.9453474 25.7029053,17.2990316 26.4090947,17.2990316 C27.1154526,17.2990316 27.7714526,16.9453474 28.1643789,16.3528421 C28.4144842,15.9759158 28.8370526,15.7490526 29.2896,15.7490526 C29.7423158,15.7490526 30.1645474,15.9759158 30.4148211,16.3530105 C30.8079158,16.9455158 31.4639158,17.2992 32.1701053,17.2992 C32.8764632,17.2992 33.5324632,16.9455158 33.9253895,16.3530105 C34.1754947,15.9760842 34.5980632,15.7492211 35.0506105,15.7492211 C35.5033263,15.7492211 35.9255579,15.9760842 36.1758316,16.3531789 C36.5616842,16.9352421 37.2016842,17.2867368 37.8935579,17.2990316 L37.8935579,17.2990316 C37.9631158,17.2896 38.0244211,17.2820211 38.0870737,17.2773053 C38.7819789,17.2250947 39.4048,17.7126737 39.5196632,18.4016842 L39.5196632,18.4016842 L40.2960842,23.0602105 C40.2960842,23.0602105 41.5873684,23.0310737 41.6306526,23.0196211 C42.0360421,22.9118316 42.3230316,22.5562947 42.3408842,22.1463579 C42.3351579,22.1054316 42.3301053,22.0643368 42.3264,22.0229053 C42.2703158,21.4058105 42.6416842,20.8296421 43.2267789,20.6256842 C44.0756211,20.3301053 44.6458947,19.5358316 44.6458947,18.6496 C44.6458947,17.9966316 44.3469474,17.5275789 44.096,17.2490105 C43.6333474,16.7353263 43.6333474,15.9550316 44.096,15.4415158 C44.3467789,15.1629474 44.6458947,14.6938947 44.6458947,14.0409263 C44.6458947,13.1001263 44.0043789,12.2694737 43.0861474,12.0208842 C42.7137684,11.9201684 42.4023579,11.6650105 42.2302316,11.3197474 C42.0581053,10.9744842 42.0419368,10.5721263 42.1857684,10.2142316 C42.2891789,9.95722105 42.3415579,9.69397895 42.3415579,9.43242105 C42.3415579,8.28749474 41.4231579,7.35275789 40.2842947,7.32665263 C40.2199579,7.33507368 40.1657263,7.34113684 40.1106526,7.34433684 C39.5065263,7.38037895 38.9539368,7.0112 38.7552,6.44075789 C38.4594526,5.59208421 37.6651789,5.02181053 36.7789474,5.02181053 C36.5797053,5.02181053 36.3754105,5.05802105 36.1547789,5.13229474 C35.6461474,5.30374737 35.0841263,5.15772632 34.7233684,4.76008421 C34.2024421,4.18593684 33.5002947,3.86964211 32.7462737,3.86964211 C32.5642105,3.86964211 32.3712,3.89305263 32.1562947,3.94155789 C31.7195789,4.03991579 31.2621474,3.91528421 30.9357474,3.60875789 C30.3237053,3.03410526 29.5346526,2.71764211 28.7137684,2.71764211 Z" id="Combined-Shape"></path>
            </g>
        </g>
    </g>
</svg>