<?xml version="1.0" encoding="UTF-8"?>
<svg width="46px" height="46px" viewBox="0 0 46 46" version="1.1" xmlns="http://www.w3.org/2000/svg" xmlns:xlink="http://www.w3.org/1999/xlink">
    <!-- Generator: Sketch 63.1 (92452) - https://sketch.com -->
    <title>feature/1</title>
    <desc>Created with Sketch.</desc>
    <g id="feature/1" stroke="none" stroke-width="1" fill="none" fill-rule="evenodd">
        <g id="002-classroom" transform="translate(1.000000, 4.000000)" fill="#007AC0" fill-rule="nonzero">
            <path d="M29.8245614,33.5906433 C30.2122105,33.5906433 30.5263158,33.9048421 30.5263158,34.2923977 L30.5263158,34.2923977 L30.5263158,37.0994152 C30.5263158,37.4869708 30.2122105,37.8011696 29.8245614,37.8011696 C29.4369123,37.8011696 29.122807,37.4869708 29.122807,37.0994152 L29.122807,37.0994152 L29.122807,34.2923977 C29.122807,33.9048421 29.4369123,33.5906433 29.8245614,33.5906433 Z M35.7894737,3.18128655 C36.1771228,3.18128655 36.4912281,3.49548538 36.4912281,3.88304094 L36.4912281,3.88304094 L36.4912281,5.98830409 L37.6608187,5.98830409 C38.0484678,5.98830409 38.3625731,6.30250292 38.3625731,6.69005848 L38.3625731,6.69005848 L38.3625731,11.6023392 L43.2748538,11.6023392 C43.6625029,11.6023392 43.9766082,11.916538 43.9766082,12.3040936 L43.9766082,12.3040936 L43.9766082,15.1111111 C43.9766082,15.4986667 43.6625029,15.8128655 43.2748538,15.8128655 L43.2748538,15.8128655 L41.1695906,15.8128655 L41.1695906,37.0994152 C41.1695906,37.4869708 40.8554854,37.8011696 40.4678363,37.8011696 C40.0801871,37.8011696 39.7660819,37.4869708 39.7660819,37.0994152 L39.7660819,37.0994152 L39.7660819,32.1871345 L4.21052632,32.1871345 L4.21052632,37.0994152 C4.21052632,37.4869708 3.89642105,37.8011696 3.50877193,37.8011696 C3.12112281,37.8011696 2.80701754,37.4869708 2.80701754,37.0994152 L2.80701754,37.0994152 L2.80701754,15.8128655 L0.701754386,15.8128655 C0.314105263,15.8128655 -5.68434189e-14,15.4986667 -5.68434189e-14,15.1111111 L-5.68434189e-14,15.1111111 L-5.68434189e-14,12.3040936 C-5.68434189e-14,11.916538 0.314105263,11.6023392 0.701754386,11.6023392 L0.701754386,11.6023392 L33.2163743,11.6023392 L33.2163743,6.69005848 C33.2163743,6.30250292 33.5304795,5.98830409 33.9181287,5.98830409 L33.9181287,5.98830409 L35.0877193,5.98830409 L35.0877193,3.88304094 C35.0877193,3.49548538 35.4018246,3.18128655 35.7894737,3.18128655 Z M14.1520468,33.5906433 C14.5396959,33.5906433 14.8538012,33.9048421 14.8538012,34.2923977 L14.8538012,34.2923977 L14.8538012,36.3976608 C14.8538012,36.7852164 14.5396959,37.0994152 14.1520468,37.0994152 C13.7643977,37.0994152 13.4502924,36.7852164 13.4502924,36.3976608 L13.4502924,36.3976608 L13.4502924,34.2923977 C13.4502924,33.9048421 13.7643977,33.5906433 14.1520468,33.5906433 Z M39.7660819,15.8128655 L4.21052632,15.8128655 L4.21052632,30.7836257 L39.7660819,30.7836257 L39.7660819,15.8128655 Z M30,17.2163743 C30.3876491,17.2163743 30.7017544,17.5305731 30.7017544,17.9181287 C30.7017544,18.3056842 30.3876491,18.619883 30,18.619883 L30,18.619883 L7.01754386,18.619883 L7.01754386,27.9766082 L36.9590643,27.9766082 L36.9590643,18.619883 L32.8070175,18.619883 C32.4193684,18.619883 32.1052632,18.3056842 32.1052632,17.9181287 C32.1052632,17.5305731 32.4193684,17.2163743 32.8070175,17.2163743 L32.8070175,17.2163743 L37.6608187,17.2163743 C38.0484678,17.2163743 38.3625731,17.5305731 38.3625731,17.9181287 L38.3625731,17.9181287 L38.3625731,28.6783626 C38.3625731,29.0659181 38.0484678,29.380117 37.6608187,29.380117 L37.6608187,29.380117 L6.31578947,29.380117 C5.92814035,29.380117 5.61403509,29.0659181 5.61403509,28.6783626 L5.61403509,28.6783626 L5.61403509,17.9181287 C5.61403509,17.5305731 5.92814035,17.2163743 6.31578947,17.2163743 L6.31578947,17.2163743 Z M42.5730994,13.005848 L1.40350877,13.005848 L1.40350877,14.4093567 L42.5730994,14.4093567 L42.5730994,13.005848 Z M36.9590643,7.39181287 L34.619883,7.39181287 L34.619883,11.6023392 L36.9590643,11.6023392 L36.9590643,7.39181287 Z M12.2807018,8.79532164 C12.6683509,8.79532164 12.9824561,9.10952047 12.9824561,9.49707602 C12.9824561,9.88463158 12.6683509,10.1988304 12.2807018,10.1988304 L12.2807018,10.1988304 L2.57309942,10.1988304 C2.18545029,10.1988304 1.87134503,9.88463158 1.87134503,9.49707602 C1.87134503,9.10952047 2.18545029,8.79532164 2.57309942,8.79532164 L2.57309942,8.79532164 Z M25.1461988,-7.99360578e-15 C27.0508538,-7.99360578e-15 28.7251462,1.54460819 28.8784094,3.44327485 L28.8784094,3.44327485 L29.3619649,9.44065497 C29.3931228,9.82699415 29.1052164,10.1654269 28.7188772,10.1965848 C28.6996959,10.1981754 28.6806082,10.198924 28.6618012,10.198924 C28.2997895,10.198924 27.9926082,9.92065497 27.9630409,9.55349708 L27.9630409,9.55349708 L27.4794854,3.55611696 C27.3852632,2.38923977 26.3168187,1.40350877 25.1461988,1.40350877 L25.1461988,1.40350877 L18.8304094,1.40350877 C17.6597895,1.40350877 16.591345,2.38923977 16.4971228,3.55611696 L16.4971228,3.55611696 L16.0135673,9.55349708 C15.9824094,9.93983626 15.6436959,10.2273684 15.257731,10.1965848 C14.8713918,10.1654269 14.5834854,9.82699415 14.6146433,9.44065497 L14.6146433,9.44065497 L15.0981988,3.44327485 C15.251462,1.54460819 16.9257544,-7.99360578e-15 18.8304094,-7.99360578e-15 L18.8304094,-7.99360578e-15 Z M12.2807018,5.98830409 C12.6683509,5.98830409 12.9824561,6.30250292 12.9824561,6.69005848 C12.9824561,7.07761404 12.6683509,7.39181287 12.2807018,7.39181287 L12.2807018,7.39181287 L2.57309942,7.39181287 C2.18545029,7.39181287 1.87134503,7.07761404 1.87134503,6.69005848 C1.87134503,6.30250292 2.18545029,5.98830409 2.57309942,5.98830409 L2.57309942,5.98830409 Z" id="Combined-Shape"></path>
        </g>
    </g>
</svg>