<?xml version="1.0" encoding="UTF-8"?>
<svg width="81px" height="81px" viewBox="0 0 81 81" version="1.1" xmlns="http://www.w3.org/2000/svg" xmlns:xlink="http://www.w3.org/1999/xlink">
    <title>2</title>
    <g id="🖥-Layout-samples" stroke="none" stroke-width="1" fill="none" fill-rule="evenodd">
        <g id="Artboard" transform="translate(-500.000000, -191.000000)" fill="#FFFFFF" fill-rule="nonzero">
            <g id="2" transform="translate(500.000000, 191.000000)">
                <path d="M14.5914474,32.3164473 C14.9875,32.25 15.3927631,32.3631579 15.6967106,32.6263158 L15.6967106,32.6263158 L34.1552632,48.5763158 C35.8611842,47.9506579 37.7684211,48.2355264 39.2157895,49.3328947 C40.6638157,50.4302632 41.4539473,52.1894737 41.3125,54.0006579 L41.3125,54.0006579 L67.7480263,62.6802631 C68.1388158,62.8026316 68.4473684,63.0960525 68.5927631,63.4749999 C68.7375,63.8546053 68.7039475,64.2782895 68.5013157,64.6302632 L68.5013157,64.6302632 L62.4381578,75.1328947 L61.7644736,76.2980263 C60.6934211,78.1572369 58.9269736,79.5144738 56.8546053,80.0703948 C54.7822368,80.6263158 52.5736842,80.3355264 50.7157895,79.2625 L50.7157895,79.2625 L36.5513159,70.1125 L30.7414474,80.1763158 C30.5,80.5934211 30.0546053,80.85 29.5730264,80.85 C29.5138157,80.8493421 29.4552632,80.8453947 29.3967106,80.8375 C28.8572369,80.7657895 28.4138157,80.3769736 28.2730264,79.8513159 L28.2730264,79.8513159 L27.1421053,75.6302632 L22.9210526,76.7618422 C22.3947368,76.9032894 21.8348684,76.7131579 21.5032894,76.2809211 C21.1710526,75.8480263 21.1328947,75.2585526 21.4052632,74.7868421 L21.4052632,74.7868421 L25.6480263,67.4381578 C24.6532894,66.1473684 24.2947368,64.4769736 24.6723685,62.8921053 L24.6723685,62.8921053 L4.10131571,52.3473684 C2.22500008,51.2855262 0.851315874,49.5177632 0.284210526,47.4381578 C-0.2822368,45.3578947 0.00526315789,43.1375 1.08289482,41.2710526 L1.08289482,41.2710526 L1.75657903,40.1052632 C3.72631579,36.6868421 7.87828952,35.194079 11.5736842,36.5749999 L11.5736842,36.5749999 L13.6486841,32.9710526 C13.8493421,32.6230264 14.1953947,32.3828948 14.5914474,32.3164473 Z M40.1177632,57.1980263 L35.0664473,65.9467106 L52.1210526,76.9638157 C54.694079,78.4078947 57.9493421,77.5144738 59.4256579,74.9605263 L59.4256579,74.9605263 L60.0993421,73.7947368 C61.5875,71.2171052 60.7039475,67.9210526 58.1263158,66.4328947 L58.1263158,66.4328947 L40.1177632,57.1980263 Z M33.4842105,68.1335527 C31.9388158,69.5309211 29.7230264,69.9052632 27.8039475,69.094079 L27.8039475,69.094079 L25.3651316,73.3164473 L27.7460527,72.6796052 C28.4651316,72.4861843 29.2039475,72.9131579 29.3967106,73.6315789 L29.3967106,73.6315789 L30.0322368,76.0111842 L34.2835527,68.6480263 Z M52.4618422,60.5046053 L59.4171052,64.0618422 C61.1690789,65.0638157 62.4802631,66.6868421 63.0914474,68.6105263 L63.0914474,68.6105263 L65.3322368,64.7296052 L52.4618422,60.5046053 Z M37.3039475,51.2927631 C36.6835527,50.9335527 35.9453947,50.8361843 35.2532894,51.0230264 C34.5605263,51.2092106 33.9710526,51.6644736 33.6151316,52.2868421 L33.6151316,52.2868421 L27.5519737,62.788158 C26.8197369,64.0756579 27.2644736,65.7131579 28.5473684,66.4539473 C29.8302632,67.1947368 31.4703948,66.7611842 32.2190789,65.4828948 L32.2190789,65.4828948 L38.2822368,54.9736842 C39.0269736,53.6848684 38.5855262,52.0368421 37.2973684,51.2927631 L37.2973684,51.2927631 Z M11.394079,39.4453947 C8.82039478,38.0019737 5.56513162,38.8967106 4.09013154,41.4526316 L4.09013154,41.4526316 L3.41644733,42.6184211 C2.69868429,43.8552632 2.50460531,45.3276315 2.87763166,46.7085526 C3.24342097,48.0907894 4.14736842,49.2690789 5.38749996,49.9802631 L5.38749996,49.9802631 L25.8032894,60.4394737 L30.7184211,51.9243421 Z M71.1835527,0.0684210526 C71.8151316,-0.136184253 72.5013157,0.15 72.8006579,0.742105263 L72.8006579,0.742105263 L75.2703948,5.57763166 L80.1006579,8.04605272 C80.6927631,8.34539469 80.9782895,9.03157895 80.7743421,9.66315789 L80.7743421,9.66315789 L79.1026316,14.8289474 L80.7822368,19.9875 C80.9868421,20.6190789 80.7006579,21.3052632 80.1085526,21.6046053 L80.1085526,21.6046053 L75.2730264,24.0743421 L72.8032894,28.9098685 C72.5039475,29.5019737 71.8177632,29.788158 71.1868421,29.5835527 L71.1868421,29.5835527 L70.0611842,29.2197369 L70.0611842,57.9447368 C70.0611842,58.6888158 69.4585526,59.2921053 68.7138157,59.2921053 C67.9697368,59.2921053 67.3664473,58.6888158 67.3664473,57.9447368 L67.3664473,57.9447368 L67.3664473,28.3480263 L66.0190789,27.911842 L60.8605263,29.5901315 C60.2289474,29.7947368 59.5427631,29.5085526 59.243421,28.9164473 L59.243421,28.9164473 L56.7736842,24.0809211 L51.9381578,21.6111842 C51.3460527,21.311842 51.0598685,20.6256579 51.2644736,19.9947368 L51.2644736,19.9947368 L52.9361843,14.8289474 L51.6282895,10.7868421 L28.2927631,10.7868421 C26.0605263,10.7868421 24.2506579,12.5960525 24.2506579,14.8289474 L24.2506579,14.8289474 L24.2506579,33.3552632 C24.2506579,34.0993421 23.6480263,34.7026316 22.9032894,34.7026316 C22.1592104,34.7026316 21.555921,34.0993421 21.555921,33.3552632 L21.555921,33.3552632 L21.555921,14.8289474 C21.5605263,11.1098685 24.5743421,8.09605255 28.2927631,8.09210526 L28.2927631,8.09210526 L51.8749999,8.09210526 C51.8960525,8.07960522 51.9111842,8.05921044 51.9328947,8.04736842 L51.9328947,8.04736842 L56.7684211,5.57763166 L59.2355264,0.747368421 C59.5348684,0.155263158 60.2210526,-0.130263242 60.8519737,0.0736842105 L60.8519737,0.0736842105 L66.0190789,1.74605272 Z M56.5875,45.8184211 C57.3322368,45.8184211 57.9348684,46.4217105 57.9348684,47.1657895 C57.9348684,47.9098685 57.3322368,48.5131579 56.5875,48.5131579 L56.5875,48.5131579 L47.155921,48.5131579 C46.411842,48.5131579 45.8085526,47.9098685 45.8085526,47.1657895 C45.8085526,46.4217105 46.411842,45.8184211 47.155921,45.8184211 L47.155921,45.8184211 Z M15.1736842,35.7302632 L13.9328947,37.8782895 L28.6664473,47.3934211 L15.1736842,35.7302632 Z M56.5875,39.0815789 C57.3322368,39.0815789 57.9348684,39.6848684 57.9348684,40.4289474 C57.9348684,41.1730264 57.3322368,41.7763158 56.5875,41.7763158 L56.5875,41.7763158 L37.7243421,41.7763158 C36.9802631,41.7763158 36.3769736,41.1730264 36.3769736,40.4289474 C36.3769736,39.6848684 36.9802631,39.0815789 37.7243421,39.0815789 L37.7243421,39.0815789 Z M56.5875,32.3447368 C57.3322368,32.3447368 57.9348684,32.9480263 57.9348684,33.6921053 C57.9348684,34.4361843 57.3322368,35.0394737 56.5875,35.0394737 L56.5875,35.0394737 L33.6822368,35.0394737 C32.9381578,35.0394737 32.3348684,34.4361843 32.3348684,33.6921053 C32.3348684,32.9480263 32.9381578,32.3447368 33.6822368,32.3447368 L33.6822368,32.3447368 Z M44.4611842,18.8710526 C45.205921,18.8710526 45.8085526,19.4743421 45.8085526,20.2184211 C45.8085526,20.9625 45.205921,21.5657895 44.4611842,21.5657895 L44.4611842,21.5657895 L36.3769736,21.5657895 C35.6328947,21.5657895 35.0296052,22.1690789 35.0296052,22.9131579 C35.0296052,23.6572369 35.6328947,24.2605263 36.3769736,24.2605263 L36.3769736,24.2605263 L44.4611842,24.2605263 C45.205921,24.2605263 45.8085526,24.8638157 45.8085526,25.6078947 C45.8085526,26.3519737 45.205921,26.9552632 44.4611842,26.9552632 L44.4611842,26.9552632 L36.3769736,26.9552632 C34.1447368,26.9552632 32.3348684,25.1453947 32.3348684,22.9131579 C32.3348684,20.6802631 34.1447368,18.8710526 36.3769736,18.8710526 L36.3769736,18.8710526 Z M70.9236842,2.99078939 L66.4342105,4.44342097 C66.1651316,4.53092109 65.8749999,4.53092109 65.605921,4.44342097 L65.605921,4.44342097 L61.1164473,2.99078939 L58.9697368,7.19210526 C58.8407896,7.44473684 58.6355264,7.65 58.3822368,7.77894737 L58.3822368,7.77894737 L54.1815789,9.92565794 L55.6335527,14.4138157 C55.7230264,14.6828948 55.7230264,14.9743421 55.6335527,15.243421 L55.6335527,15.243421 L54.1815789,19.7315789 L58.3822368,21.8782895 C58.6355264,22.0072369 58.8407896,22.2125 58.9697368,22.4657895 L58.9697368,22.4657895 L61.1164473,26.6664473 L65.605921,25.2144738 C65.8749999,25.1263158 66.1651316,25.1263158 66.4342105,25.2144738 L66.4342105,25.2144738 L70.9236842,26.6664473 L73.0730264,22.4657895 C73.2013157,22.2131579 73.4065789,22.0072369 73.6592104,21.8782895 L73.6592104,21.8782895 L77.8598685,19.7315789 L76.4078947,15.243421 C76.3177632,14.9736842 76.3177632,14.6835527 76.4046053,14.4138157 L76.4046053,14.4138157 L77.8572369,9.92565794 L73.656579,7.77894737 C73.4039475,7.65 73.1986843,7.44407899 73.0703948,7.19210526 L73.0703948,7.19210526 L70.9236842,2.99078939 Z M66.0190789,8.09210526 C69.7381578,8.09605255 72.7519737,11.1098685 72.755921,14.8289474 C72.755921,18.5493421 69.7401315,21.5657895 66.0190789,21.5657895 C62.2986843,21.5657895 59.2822368,18.5493421 59.2822368,14.8289474 C59.2822368,11.1078947 62.2986843,8.09210526 66.0190789,8.09210526 Z M66.0190789,10.7868421 C63.7868421,10.7868421 61.9769736,12.5960525 61.9769736,14.8289474 C61.9769736,17.0611842 63.7868421,18.8710526 66.0190789,18.8710526 C68.2519737,18.8710526 70.0611842,17.0611842 70.0611842,14.8289474 C70.0611842,12.5960525 68.2519737,10.7868421 66.0190789,10.7868421 Z" id="Combined-Shape"></path>
            </g>
        </g>
    </g>
</svg>