<?xml version="1.0" encoding="UTF-8"?>
<svg width="46px" height="46px" viewBox="0 0 46 46" version="1.1" xmlns="http://www.w3.org/2000/svg" xmlns:xlink="http://www.w3.org/1999/xlink">
    <!-- Generator: Sketch 63.1 (92452) - https://sketch.com -->
    <title>feature/2</title>
    <desc>Created with Sketch.</desc>
    <g id="feature/2" stroke="none" stroke-width="1" fill="none" fill-rule="evenodd">
        <g id="008-paper" transform="translate(1.000000, 0.000000)" fill="#007AC0" fill-rule="nonzero">
            <path d="M8.10635967,17.9535818 C8.32638887,17.9166667 8.55153506,17.9795322 8.72039476,18.125731 L8.72039476,18.125731 L18.9751462,26.9868421 C19.9228801,26.6392544 20.9824561,26.7975147 21.7865497,27.4071637 C22.5910087,28.0168129 23.0299707,28.994152 22.9513889,30.0003655 L22.9513889,30.0003655 L37.6377924,34.8223684 C37.8548977,34.8903509 38.0263158,35.0533625 38.1070906,35.2638888 C38.1875,35.4747807 38.1688597,35.7101608 38.0562865,35.9057018 L38.0562865,35.9057018 L34.6878655,41.740497 L34.3135964,42.3877924 C33.7185673,43.4206872 32.7372076,44.1747076 31.5858918,44.4835527 C30.434576,44.7923977 29.2076023,44.630848 28.1754386,44.0347222 L28.1754386,44.0347222 L20.3062866,38.9513889 L17.0785819,44.5423977 C16.9444444,44.7741229 16.6970029,44.9166667 16.4294591,44.9166667 C16.3965643,44.9163012 16.3640351,44.9141082 16.3315059,44.9097222 C16.0317983,44.869883 15.7854532,44.6538742 15.7072369,44.3618422 L15.7072369,44.3618422 L15.0789474,42.0168129 L12.7339181,42.6454679 C12.4415205,42.7240497 12.1304824,42.6184211 11.9462719,42.3782895 C11.7616959,42.1377924 11.740497,41.810307 11.8918129,41.5482456 L11.8918129,41.5482456 L14.2489035,37.4656432 C13.6962719,36.748538 13.497076,35.8205409 13.7068714,34.9400585 L13.7068714,34.9400585 L2.27850873,29.0818713 C1.23611116,28.491959 0.472953263,27.5098684 0.157894737,26.3545321 C-0.156798222,25.1988304 0.00292397661,23.9652778 0.601608234,22.9283626 L0.601608234,22.9283626 L0.97587724,22.2807018 C2.07017544,20.3815789 4.37682751,19.5522661 6.42982456,20.3194444 L6.42982456,20.3194444 L7.58260229,18.3172515 C7.69407897,18.1239035 7.88633039,17.9904971 8.10635967,17.9535818 Z M22.2876462,31.7766813 L19.4813596,36.6370614 L28.9561404,42.7576754 C30.3855994,43.5599415 32.194079,43.0635965 33.0142544,41.6447368 L33.0142544,41.6447368 L33.3885234,40.997076 C34.2152778,39.5650584 33.7244153,37.7339181 32.2923977,36.9071637 L32.2923977,36.9071637 L22.2876462,31.7766813 Z M18.6023392,37.8519737 C17.7437866,38.6282895 16.5127924,38.8362573 15.4466375,38.3855994 L15.4466375,38.3855994 L14.0917398,40.7313596 L15.4144737,40.3775585 C15.813962,40.2701024 16.2244153,40.5073099 16.3315059,40.9064327 L16.3315059,40.9064327 L16.684576,42.2284356 L19.0464182,38.1377924 Z M29.1454679,33.6136696 L33.0095029,35.5899123 C33.9828216,36.1465643 34.7112573,37.0482456 35.0508041,38.1169591 L35.0508041,38.1169591 L36.2956871,35.9608918 L29.1454679,33.6136696 Z M20.7244153,28.4959795 C20.3797515,28.2964182 19.9696637,28.2423246 19.5851608,28.3461258 C19.2002924,28.4495615 18.872807,28.7024853 18.6750731,29.0482456 L18.6750731,29.0482456 L15.3066521,34.88231 C14.8998538,35.5975877 15.1469298,36.5073099 15.8596491,36.9188596 C16.5723685,37.3304094 17.4835527,37.0895468 17.8994883,36.379386 L17.8994883,36.379386 L21.2679093,30.5409357 C21.681652,29.8249269 21.4364035,28.9093567 20.7207602,28.4959795 L20.7207602,28.4959795 Z M6.33004388,21.9141082 C4.90021932,21.1122076 3.09173979,21.6092836 2.2722953,23.0292398 L2.2722953,23.0292398 L1.89802629,23.6769006 C1.49926905,24.3640351 1.39144739,25.1820175 1.59868426,25.9491959 C1.80190054,26.7171052 2.30409357,27.3717105 2.99305553,27.7668128 L2.99305553,27.7668128 L14.3351608,33.5774854 L17.0657895,28.8468567 Z M39.5464182,0.0380116959 C39.8972953,-0.0756579181 40.2785087,0.0833333333 40.4448099,0.412280702 L40.4448099,0.412280702 L41.816886,3.09868426 L44.5003655,4.47002929 C44.8293128,4.63633039 44.9879386,5.01754386 44.8746345,5.36842105 L44.8746345,5.36842105 L43.9459064,8.23830409 L44.8790204,11.1041666 C44.9926901,11.4550438 44.8336988,11.8362573 44.5047514,12.0025585 L44.5047514,12.0025585 L41.818348,13.3746345 L40.4462719,16.061038 C40.2799708,16.3899854 39.8987573,16.5489767 39.5482456,16.435307 L39.5482456,16.435307 L38.9228801,16.2331872 L38.9228801,32.1915205 C38.9228801,32.6048977 38.5880848,32.9400585 38.1743421,32.9400585 C37.7609649,32.9400585 37.4258041,32.6048977 37.4258041,32.1915205 L37.4258041,32.1915205 L37.4258041,15.7489035 L36.6772661,15.5065789 L33.8114035,16.438962 C33.4605263,16.5526316 33.0793128,16.3936403 32.9130116,16.064693 L32.9130116,16.064693 L31.5409357,13.3782895 L28.8545321,12.0062134 C28.5255848,11.8399122 28.3665936,11.4586989 28.4802631,11.1081871 L28.4802631,11.1081871 L29.4089913,8.23830409 L28.6823831,5.99269006 L15.7182017,5.99269006 C14.4780702,5.99269006 13.4725877,6.99780697 13.4725877,8.23830409 L13.4725877,8.23830409 L13.4725877,18.5307018 C13.4725877,18.944079 13.1377924,19.2792398 12.7240497,19.2792398 C12.3106725,19.2792398 11.9755117,18.944079 11.9755117,18.5307018 L11.9755117,18.5307018 L11.9755117,8.23830409 C11.9780702,6.17214915 13.6524123,4.49780697 15.7182017,4.49561404 L15.7182017,4.49561404 L28.8194444,4.49561404 C28.8311403,4.48866957 28.8395468,4.47733913 28.8516081,4.47076023 L28.8516081,4.47076023 L31.5380117,3.09868426 L32.9086258,0.415204678 C33.0749269,0.0862573099 33.4561404,-0.0723684678 33.8066521,0.0409356725 L33.8066521,0.0409356725 L36.6772661,0.970029287 Z M31.4375,25.4546784 C31.8512427,25.4546784 32.186038,25.7898392 32.186038,26.2032164 C32.186038,26.6165936 31.8512427,26.9517544 31.4375,26.9517544 L31.4375,26.9517544 L26.1977339,26.9517544 C25.7843567,26.9517544 25.4491959,26.6165936 25.4491959,26.2032164 C25.4491959,25.7898392 25.7843567,25.4546784 26.1977339,25.4546784 L26.1977339,25.4546784 Z M8.42982456,19.8501462 L7.74049703,21.0434942 L15.9258041,26.3296784 L8.42982456,19.8501462 Z M31.4375,21.7119883 C31.8512427,21.7119883 32.186038,22.0471491 32.186038,22.4605263 C32.186038,22.8739035 31.8512427,23.2090643 31.4375,23.2090643 L31.4375,23.2090643 L20.9579678,23.2090643 C20.5445906,23.2090643 20.2094298,22.8739035 20.2094298,22.4605263 C20.2094298,22.0471491 20.5445906,21.7119883 20.9579678,21.7119883 L20.9579678,21.7119883 Z M31.4375,17.9692982 C31.8512427,17.9692982 32.186038,18.304459 32.186038,18.7178363 C32.186038,19.1312135 31.8512427,19.4663743 31.4375,19.4663743 L31.4375,19.4663743 L18.7123538,19.4663743 C18.2989766,19.4663743 17.9638158,19.1312135 17.9638158,18.7178363 C17.9638158,18.304459 18.2989766,17.9692982 18.7123538,17.9692982 L18.7123538,17.9692982 Z M24.7006579,10.4839181 C25.1144006,10.4839181 25.4491959,10.8190789 25.4491959,11.2324561 C25.4491959,11.6458334 25.1144006,11.9809942 24.7006579,11.9809942 L24.7006579,11.9809942 L20.2094298,11.9809942 C19.7960526,11.9809942 19.4608918,12.3161549 19.4608918,12.7295322 C19.4608918,13.1429094 19.7960526,13.4780702 20.2094298,13.4780702 L20.2094298,13.4780702 L24.7006579,13.4780702 C25.1144006,13.4780702 25.4491959,13.813231 25.4491959,14.2266082 C25.4491959,14.6399854 25.1144006,14.9751462 24.7006579,14.9751462 L24.7006579,14.9751462 L20.2094298,14.9751462 C18.9692982,14.9751462 17.9638158,13.9696637 17.9638158,12.7295322 C17.9638158,11.489035 18.9692982,10.4839181 20.2094298,10.4839181 L20.2094298,10.4839181 Z M39.4020468,1.66154966 L36.9078947,2.4685672 C36.7584065,2.51717839 36.5972222,2.51717839 36.4477339,2.4685672 L36.4477339,2.4685672 L33.9535818,1.66154966 L32.7609649,3.99561404 C32.6893275,4.13596491 32.5752924,4.25 32.434576,4.32163743 L32.434576,4.32163743 L30.1008772,5.51425441 L30.9075293,8.00767542 C30.9572369,8.15716379 30.9572369,8.31907892 30.9075293,8.4685672 L30.9075293,8.4685672 L30.1008772,10.9619883 L32.434576,12.1546053 C32.5752924,12.2262427 32.6893275,12.3402778 32.7609649,12.4809942 L32.7609649,12.4809942 L33.9535818,14.814693 L36.4477339,14.008041 C36.5972222,13.9590643 36.7584065,13.9590643 36.9078947,14.008041 L36.9078947,14.008041 L39.4020468,14.814693 L40.5961258,12.4809942 C40.6673976,12.3406433 40.7814327,12.2262427 40.9217836,12.1546053 L40.9217836,12.1546053 L43.2554825,10.9619883 L42.4488304,8.4685672 C42.3987573,8.31871345 42.3987573,8.15752926 42.4470029,8.00767542 L42.4470029,8.00767542 L43.2540205,5.51425441 L40.9203217,4.32163743 C40.7799708,4.25 40.6659357,4.13559944 40.5946638,3.99561404 L40.5946638,3.99561404 L39.4020468,1.66154966 Z M36.6772661,4.49561404 C38.743421,4.49780697 40.4177632,6.17214915 40.4199561,8.23830409 C40.4199561,10.3051901 38.7445175,11.9809942 36.6772661,11.9809942 C34.6103802,11.9809942 32.934576,10.3051901 32.934576,8.23830409 C32.934576,6.17105263 34.6103802,4.49561404 36.6772661,4.49561404 Z M36.6772661,5.99269006 C35.4371345,5.99269006 34.431652,6.99780697 34.431652,8.23830409 C34.431652,9.47843565 35.4371345,10.4839181 36.6772661,10.4839181 C37.9177632,10.4839181 38.9228801,9.47843565 38.9228801,8.23830409 C38.9228801,6.99780697 37.9177632,5.99269006 36.6772661,5.99269006 Z" id="Combined-Shape"></path>
        </g>
    </g>
</svg>