<?xml version="1.0" encoding="UTF-8"?>
<svg width="81px" height="81px" viewBox="0 0 81 81" version="1.1" xmlns="http://www.w3.org/2000/svg" xmlns:xlink="http://www.w3.org/1999/xlink">
    <title>3</title>
    <g id="🖥-Layout-samples" stroke="none" stroke-width="1" fill="none" fill-rule="evenodd">
        <g id="Artboard" transform="translate(-650.000000, -191.000000)" fill="#FFFFFF" fill-rule="nonzero">
            <g id="3" transform="translate(650.000000, 191.000000)">
                <path d="M43.1157895,25.6 L43.1157895,24.2526316 C43.1159579,23.5087158 42.5130105,22.9054316 41.7690947,22.9052632 C41.7689263,22.9052632 41.7685895,22.9052632 41.7684211,22.9052632 L22.1770105,22.9052632 C25.1639579,19.5868632 24.8953263,14.4752842 21.5767579,11.4881684 C18.2583579,8.50122105 13.1467789,8.76985263 10.1596632,12.0884211 C7.37465263,15.1823158 7.39452632,19.8854737 10.2054737,22.9557895 C5.17776842,23.4733474 1.3536,27.7061053 1.34736842,32.7605895 L1.34736842,47.1578947 C1.3472,47.9018105 1.95014737,48.5050947 2.69406316,48.5052632 C2.69423158,48.5052632 2.69456842,48.5052632 2.69473684,48.5052632 L6.73684211,48.5052632 L6.73684211,66.0210526 L1.34736842,66.0210526 C0.603452632,66.0208842 -3.52751445e-08,66.6238316 -3.52751445e-08,67.3677474 C-3.52751445e-08,67.3679158 -3.52751445e-08,67.3682526 -3.52751445e-08,67.3684211 L-3.52751445e-08,79.4947368 C-3.52751445e-08,80.2386526 0.602778947,80.8421053 1.34669474,80.8421053 C1.34686316,80.8421053 1.3472,80.8421053 1.34736842,80.8421053 L30.9894737,80.8421053 C31.7333895,80.8421053 32.3366737,80.2393263 32.3368421,79.4954105 C32.3368421,79.4952421 32.3368421,79.4949053 32.3368421,79.4947368 L32.3368421,67.3684211 C32.3370105,66.6245053 31.7340632,66.0212211 30.9901474,66.0210526 C30.9899789,66.0210526 30.9896421,66.0210526 30.9894737,66.0210526 L25.6,66.0210526 L25.6,30.9894737 L41.7684211,30.9894737 C42.5123368,30.9896421 43.1156211,30.3866947 43.1157895,29.6427789 C43.1157895,29.6426105 43.1157895,29.6422737 43.1157895,29.6421053 L43.1157895,28.2947368 L72.7578947,28.2947368 L72.7578947,25.6 L43.1157895,25.6 Z M16.1684211,12.1263158 C19.1449263,12.1263158 21.5578947,14.5392842 21.5578947,17.5157895 C21.5578947,20.4922947 19.1449263,22.9052632 16.1684211,22.9052632 C13.1919158,22.9052632 10.7789474,20.4922947 10.7789474,17.5157895 C10.7821474,14.5406316 13.1932632,12.1295158 16.1684211,12.1263158 Z M29.6421053,68.7157895 L29.6421053,78.1473684 L2.69473684,78.1473684 L2.69473684,68.7157895 L29.6421053,68.7157895 Z M40.4210526,28.2947368 L24.2526316,28.2947368 C23.5087158,28.2945684 22.9054316,28.8975158 22.9052632,29.6414316 C22.9052632,29.6416 22.9052632,29.6419368 22.9052632,29.6421053 L22.9052632,66.0210526 L17.5157895,66.0210526 L17.5157895,45.8105263 L14.8210526,45.8105263 L14.8210526,66.0210526 L9.43157895,66.0210526 L9.43157895,30.9894737 L6.73684211,30.9894737 L6.73684211,45.8105263 L4.04210526,45.8105263 L4.04210526,32.7605895 C4.04648421,28.8077474 7.24985263,25.6045474 11.2026947,25.6 L40.4210526,25.6 L40.4210526,28.2947368 Z" id="Shape"></path>
                <path d="M55.2427789,-3.52751457e-08 C55.2426105,-3.52751457e-08 55.2422737,-3.52751457e-08 55.2421053,-3.52751457e-08 L32.3368421,-3.52751457e-08 C31.5929263,-3.52751457e-08 30.9896421,0.602778947 30.9894737,1.34669474 C30.9894737,1.34686316 30.9894737,1.3472 30.9894737,1.34736842 L30.9894737,6.06315789 L26.1394526,9.70138947 C25.5440842,10.1470316 25.4226526,10.9909895 25.8682947,11.5865263 C26.0542316,11.8347789 26.32,12.0112842 26.6209684,12.0862316 L30.9894737,13.1782737 L30.9894737,18.8631579 C30.9893053,19.6070737 31.5922526,20.2105264 32.3361684,20.2105264 C32.3363368,20.2105264 32.3366737,20.2105264 32.3368421,20.2105264 L55.2421053,20.2105264 C55.9860211,20.2105264 56.5894737,19.6077474 56.5894737,18.8638316 C56.5894737,18.8636632 56.5894737,18.8633263 56.5894737,18.8631579 L56.5894737,1.34736842 C56.5894737,0.603452632 55.9866947,-3.52751457e-08 55.2427789,-3.52751457e-08 Z M53.8947368,17.5157895 L33.6842105,17.5157895 L33.6842105,12.1263158 C33.6840421,11.5078737 33.2631579,10.9689263 32.6630737,10.8190316 L30.0208842,10.1584842 L33.1445895,7.8144 C33.4842947,7.56042105 33.6842105,7.16092632 33.6842105,6.73684211 L33.6842105,2.69473684 L53.8947368,2.69473684 L53.8947368,17.5157895 Z" id="Shape"></path>
                <path d="M48.9000421,5.78425263 L43.1157895,11.5685053 L40.0262737,8.47898947 L38.1210947,10.3841684 L42.1632,14.4262737 C42.4154947,14.6794105 42.7584,14.8213895 43.1157895,14.8210532 C43.4731789,14.8213895 43.8160842,14.6794105 44.0683789,14.4262737 L50.8052211,7.68943158 L48.9000421,5.78425263 Z" id="Path"></path>
                <path d="M61.7005474,65.8256842 C63.8310737,63.7470316 63.8730105,60.3348211 61.7943579,58.2044632 C59.7157053,56.0739368 56.3034947,56.032 54.1731368,58.1106526 C52.0426105,60.1893053 52.0006737,63.6015158 54.0793263,65.7318737 C54.1101474,65.7635368 54.1414737,65.7948632 54.1731368,65.8256842 C52.3149474,67.0770526 51.2006737,69.1703579 51.2,71.4105263 L51.2,79.4947368 C51.1998316,80.2386526 51.8027789,80.8421053 52.5466947,80.8421053 C52.5468632,80.8421053 52.5472,80.8421053 52.5473684,80.8421053 L63.3263158,80.8421053 C64.0702316,80.8421053 64.6735158,80.2393263 64.6736842,79.4954105 C64.6736842,79.4952421 64.6736842,79.4949053 64.6736842,79.4947368 L64.6736842,71.4105263 C64.6730105,69.1703579 63.5587368,67.0770526 61.7005474,65.8256842 Z M57.9368421,59.2842105 C59.4251789,59.2842105 60.6315789,60.4906105 60.6315789,61.9789474 C60.6315789,63.4672842 59.4251789,64.6736842 57.9368421,64.6736842 C56.4485053,64.6736842 55.2421053,63.4672842 55.2421053,61.9789474 C55.2437895,60.4914526 56.4493474,59.2858947 57.9368421,59.2842105 Z M61.9789474,78.1473684 L53.8947368,78.1473684 L53.8947368,71.4105263 C53.8947368,69.1781053 55.7044211,67.3684211 57.9368421,67.3684211 C60.1692632,67.3684211 61.9789474,69.1781053 61.9789474,71.4105263 L61.9789474,78.1473684 Z" id="Shape"></path>
                <path d="M77.8689684,65.8256842 C79.9994947,63.7470316 80.0414316,60.3348211 77.9627789,58.2044632 C75.8841263,56.0739368 72.4719158,56.032 70.3415579,58.1106526 C68.2110316,60.1893053 68.1690947,63.6015158 70.2477474,65.7318737 C70.2785684,65.7635368 70.3098947,65.7948632 70.3415579,65.8256842 C68.4833684,67.0770526 67.3690947,69.1703579 67.368421,71.4105263 L67.368421,79.4947368 C67.3682526,80.2386526 67.9712,80.8421053 68.7151158,80.8421053 C68.7152842,80.8421053 68.7156211,80.8421053 68.7157895,80.8421053 L79.4947368,80.8421053 C80.2386526,80.8421053 80.8419368,80.2393263 80.8421053,79.4954105 C80.8421053,79.4952421 80.8421053,79.4949053 80.8421053,79.4947368 L80.8421053,71.4105263 C80.8414316,69.1703579 79.7271579,67.0770526 77.8689684,65.8256842 Z M74.1052632,59.2842105 C75.5936,59.2842105 76.8,60.4906105 76.8,61.9789474 C76.8,63.4672842 75.5936,64.6736842 74.1052632,64.6736842 C72.6169263,64.6736842 71.4105263,63.4672842 71.4105263,61.9789474 C71.4122105,60.4914526 72.6177684,59.2858947 74.1052632,59.2842105 Z M78.1473684,78.1473684 L70.0631579,78.1473684 L70.0631579,71.4105263 C70.0631579,69.1781053 71.8728421,67.3684211 74.1052632,67.3684211 C76.3376842,67.3684211 78.1473684,69.1781053 78.1473684,71.4105263 L78.1473684,78.1473684 Z" id="Shape"></path>
                <path d="M45.5321263,65.8256842 C47.6626526,63.7470316 47.7045895,60.3348211 45.6259368,58.2044632 C43.5472842,56.0739368 40.1350737,56.032 38.0047158,58.1106526 C35.8741895,60.1893053 35.8322526,63.6015158 37.9109053,65.7318737 C37.9417263,65.7635368 37.9730526,65.7948632 38.0047158,65.8256842 C36.1465263,67.0770526 35.0322526,69.1703579 35.0315789,71.4105263 L35.0315789,79.4947368 C35.0314105,80.2386526 35.6343579,80.8421053 36.3782737,80.8421053 C36.3784421,80.8421053 36.3787789,80.8421053 36.3789474,80.8421053 L47.1578947,80.8421053 C47.9018105,80.8421053 48.5050947,80.2393263 48.5052632,79.4954105 C48.5052632,79.4952421 48.5052632,79.4949053 48.5052632,79.4947368 L48.5052632,71.4105263 C48.5045895,69.1703579 47.3903158,67.0770526 45.5321263,65.8256842 Z M41.7684211,59.2842105 C43.2567579,59.2842105 44.4631579,60.4906105 44.4631579,61.9789474 C44.4631579,63.4672842 43.2567579,64.6736842 41.7684211,64.6736842 C40.2800842,64.6736842 39.0736842,63.4672842 39.0736842,61.9789474 C39.0753684,60.4914526 40.2809263,59.2858947 41.7684211,59.2842105 Z M45.8105263,78.1473684 L37.7263158,78.1473684 L37.7263158,71.4105263 C37.7263158,69.1781053 39.536,67.3684211 41.7684211,67.3684211 C44.0008421,67.3684211 45.8105263,69.1781053 45.8105263,71.4105263 L45.8105263,78.1473684 Z" id="Shape"></path>
            </g>
        </g>
    </g>
</svg>