<?xml version="1.0" encoding="UTF-8"?>
<svg width="46px" height="46px" viewBox="0 0 46 46" version="1.1" xmlns="http://www.w3.org/2000/svg" xmlns:xlink="http://www.w3.org/1999/xlink">
    <!-- Generator: Sketch 63.1 (92452) - https://sketch.com -->
    <title>feature/3</title>
    <desc>Created with Sketch.</desc>
    <g id="feature/3" stroke="none" stroke-width="1" fill="none" fill-rule="evenodd">
        <g id="009-laptop" transform="translate(0.000000, 2.000000)" fill="#007AC0" fill-rule="nonzero">
            <path d="M15.2875127,0.00905653021 C15.9689045,0.00905653021 16.6255478,0.22937232 17.1710916,0.635660819 C17.2596842,0.626873294 17.3471111,0.622479532 17.4343587,0.622479532 C18.0875049,0.622479532 18.7213723,0.85194152 19.228807,1.26280312 C19.3468109,1.2448694 19.4646355,1.23590253 19.5812943,1.23590253 C20.4898168,1.23590253 21.3177271,1.72244444 21.7725263,2.48669006 C23.0182027,2.65822612 23.9807057,3.72976608 23.9807057,5.02180117 C23.9807057,5.11146979 23.9759532,5.20077973 23.9663587,5.28973099 C24.7209201,5.74363353 25.2075517,6.5671501 25.2075517,7.47549318 C25.2075517,7.90635088 25.0965419,8.32725536 24.8887797,8.70233918 C25.0966316,9.077423 25.2075517,9.49841715 25.2075517,9.92918519 C25.2075517,10.8412943 24.7170643,11.6721637 23.9476179,12.1257973 C23.8870019,12.448425 23.7453255,12.7461248 23.5422261,12.9946862 C23.8159844,13.3299571 23.9807057,13.7574971 23.9807057,14.2231462 L23.9807057,14.2231462 L23.9807057,14.5777856 L42.8911891,14.5777856 C44.5558869,14.5777856 45.9103314,15.9321404 45.9103314,17.5969279 L45.9103314,17.5969279 L45.9103314,31.3988109 C45.9103314,33.0635984 44.5558869,34.4179532 42.8911891,34.4179532 L42.8911891,34.4179532 L36.0955634,34.4179532 L36.6195867,38.3476803 L44.4247018,38.3476803 C45.2439142,38.3476803 45.9103314,39.0140975 45.9103314,39.8333099 L45.9103314,39.8333099 L45.9103314,41.3668226 C45.9103314,42.1860351 45.2439142,42.8524522 44.4247018,42.8524522 L44.4247018,42.8524522 L1.48562963,42.8524522 C0.666417154,42.8524522 0,42.1860351 0,41.3668226 L0,41.3668226 L0,39.8333099 C0,39.0140975 0.666417154,38.3476803 1.48562963,38.3476803 L1.48562963,38.3476803 L3.11984016,38.3476803 C2.60747368,37.7017973 2.30026901,36.8859922 2.30026901,35.9994386 L2.30026901,35.9994386 L2.30026901,27.0768733 C2.30026901,25.6753528 3.2002729,24.456846 4.53974269,24.0446394 L4.53974269,24.0446394 L9.9162729,22.3903431 C10.1307602,22.3244366 10.2749474,22.1292281 10.2749474,21.9048772 L10.2749474,21.9048772 L10.2749474,19.8761248 L10.0134737,19.65823 C9.42417154,19.167115 9.03294737,18.4795361 8.91180507,17.7221949 L8.91180507,17.7221949 L8.85952827,17.3956218 L8.54003899,17.3956218 C7.46706433,17.3956218 6.59431969,16.5226979 6.59431969,15.4499025 L6.59431969,15.4499025 L6.59431969,14.2230565 C6.59431969,13.5692827 6.91936842,12.9911891 7.4154152,12.6381637 C7.33453411,12.4778363 7.27472515,12.3058519 7.24092008,12.1257973 C6.47129435,11.6721637 5.98089669,10.8412943 5.98089669,9.92918519 C5.98089669,9.49841715 6.09181676,9.077423 6.29966862,8.70233918 C6.09181676,8.32725536 5.98089669,7.90635088 5.98089669,7.47549318 C5.98089669,6.5671501 6.46761793,5.74363353 7.22208967,5.28973099 C7.21249513,5.20077973 7.20774269,5.11138012 7.20774269,5.02180117 C7.20774269,3.72976608 8.17024561,2.65822612 9.41592203,2.48677973 C9.82830799,1.79364133 10.5474503,1.32906823 11.3554542,1.24845614 C11.8619922,0.842795322 12.4857271,0.622479532 13.140577,0.622479532 C13.2277349,0.622479532 13.3151618,0.626873294 13.4038441,0.635660819 C13.9494776,0.22937232 14.6061209,0.00905653021 15.2875127,0.00905653021 Z M44.4247018,39.7853372 L1.48562963,39.7853372 C1.45917739,39.7853372 1.43774659,39.806768 1.43774659,39.8332203 L1.43774659,39.8332203 L1.43774659,41.3667329 C1.43774659,41.3931852 1.45917739,41.414616 1.48562963,41.414616 L1.48562963,41.414616 L44.4247018,41.414616 C44.451154,41.414616 44.4725848,41.3931852 44.4725848,41.3667329 L44.4725848,41.3667329 L44.4725848,39.8332203 C44.4725848,39.806768 44.451154,39.7853372 44.4247018,39.7853372 L44.4247018,39.7853372 Z M33.1140819,28.2838129 L29.6652476,28.2838129 C29.2585107,28.2838129 28.9114035,28.5876998 28.8576023,28.9908499 L28.8576023,28.9908499 L27.6100429,38.3476803 L35.1692865,38.3476803 L33.9216374,28.9908499 C33.8679259,28.5876998 33.520729,28.2838129 33.1140819,28.2838129 L33.1140819,28.2838129 Z M26.6835867,34.4180429 L24.4407953,34.4180429 L24.4407953,38.2997973 L24.4407953,38.2997973 L24.4383743,38.34777 L26.1595634,38.34777 L26.6835867,34.4180429 Z M16.054269,35.9515556 L14.4727836,35.9515556 L14.4727836,38.3476803 L17.6356647,38.3476803 L17.6356647,37.5329513 C17.6356647,36.660924 16.9262066,35.9514659 16.054269,35.9515556 L16.054269,35.9515556 Z M7.97969981,24.4903821 L4.96261988,25.4186316 C4.23020663,25.6440585 3.73801559,26.310386 3.73801559,27.0767836 L3.73801559,27.0767836 L3.73801559,35.9993489 C3.73801559,37.2941637 4.7914425,38.3475906 6.08625731,38.3475906 L6.08625731,38.3475906 L13.035037,38.3475906 L13.035037,35.9514659 L8.38652632,35.9514659 C7.56731384,35.9514659 6.90089669,35.2850487 6.90089669,34.4658363 L6.90089669,34.4658363 L6.90089669,29.8652086 C6.90089669,29.4681559 7.22271735,29.1463353 7.61976998,29.1463353 C8.01682261,29.1463353 8.33864327,29.4682456 8.33864327,29.8652086 L8.33864327,29.8652086 L8.33864327,34.4658363 C8.33864327,34.4922885 8.36007407,34.5137193 8.38652632,34.5137193 L8.38652632,34.5137193 L16.054269,34.5137193 C17.7189669,34.5137193 19.0734113,35.8680741 19.0734113,37.5328616 L19.0734113,37.5328616 L19.0734113,38.3475906 L23.0055595,38.3475906 C23.0044834,38.3317193 23.0031384,38.3159376 23.0031384,38.2997076 L23.0031384,34.4179532 L19.8881404,34.4179532 C18.2233528,34.4179532 16.8689981,33.0635984 16.8689981,31.3988109 L16.8689981,31.3988109 L16.8689981,28.3484639 C16.4455828,28.4068382 16.0174152,28.4370565 15.5879922,28.4370565 C12.5641871,28.4370565 9.72420273,26.9624561 7.97969981,24.4903821 L7.97969981,24.4903821 Z M42.8911891,16.0154425 L19.8880507,16.0154425 C19.0160234,16.0154425 18.3065653,16.7249006 18.3065653,17.5969279 L18.3065653,17.5969279 L18.3065653,31.3988109 C18.3065653,32.2708382 19.0160234,32.9802963 19.8880507,32.9802963 L19.8880507,32.9802963 L26.7889474,32.9802963 C26.818,32.9802963 26.8465146,32.982538 26.8745809,32.9858558 L26.8745809,32.9858558 L27.4325887,28.8008421 C27.5811696,27.6865302 28.5410721,26.8461559 29.6652476,26.8461559 L29.6652476,26.8461559 L33.1140819,26.8461559 C34.2382573,26.8461559 35.1980702,27.6865302 35.3466511,28.8008421 L35.3466511,28.8008421 L35.9046589,32.9858558 C35.9329045,32.982538 35.9612398,32.9802963 35.9902924,32.9802963 L35.9902924,32.9802963 L42.8911891,32.9802963 C43.7632164,32.9802963 44.4726745,32.2708382 44.4726745,31.3988109 L44.4726745,31.3988109 L44.4726745,17.5969279 C44.4726745,16.7249006 43.7632164,16.0154425 42.8911891,16.0154425 L42.8911891,16.0154425 Z M11.7125146,21.0741871 L11.7125146,21.9048772 C11.7125146,22.7643509 11.1606043,23.5117388 10.3389708,23.7645146 L10.3389708,23.7645146 L9.43959454,24.0413216 C10.9285419,25.9023041 13.1899844,26.9994893 15.5879922,26.9994893 C16.0184016,26.9994893 16.4471969,26.9638012 16.8689981,26.8949357 L16.8689981,26.8949357 L16.8689981,22.2694698 C16.7345848,22.2913489 16.5982885,22.3030058 16.4615439,22.3030058 L16.4615439,22.3030058 L14.1135712,22.3030058 C13.5160195,22.3030058 12.9342495,22.0923743 12.4752359,21.709848 L12.4752359,21.709848 L11.7125146,21.0741871 Z M31.3896647,20.7119259 C32.631575,20.7119259 33.6420507,21.7224016 33.6420507,22.9643119 C33.6420507,24.2063119 32.6316647,25.2166979 31.3896647,25.2166979 C30.1476647,25.2166979 29.1372788,24.2063119 29.1372788,22.9643119 C29.1372788,21.7223119 30.1476647,20.7119259 31.3896647,20.7119259 Z M31.3896647,22.1495828 C30.940425,22.1495828 30.5749357,22.5150721 30.5749357,22.9643119 C30.5749357,23.4135517 30.940425,23.7790409 31.3896647,23.7790409 C31.8389045,23.7790409 32.2043041,23.4135517 32.2043938,22.9643119 C32.2043938,22.5150721 31.8389045,22.1495828 31.3896647,22.1495828 Z M18.661115,10.137037 C18.2246979,10.4646862 17.6893762,10.6480585 17.1276023,10.6480585 C16.5657388,10.6480585 16.0305068,10.4647758 15.5940897,10.137037 C15.1576725,10.4646862 14.6223509,10.6480585 14.060577,10.6480585 C13.4987135,10.6480585 12.9634815,10.4647758 12.5270643,10.137037 C12.2163626,10.3702651 11.8557154,10.5305029 11.4708577,10.6033138 L11.4708577,10.6033138 L11.1378285,12.6019376 C11.0301365,13.246924 10.4775088,13.7151735 9.82364522,13.7151735 L9.82364522,13.7151735 L9.72635478,13.7151735 L10.3310799,17.4949747 C10.397345,17.909154 10.6112047,18.2850448 10.9334737,18.5536023 L10.9334737,18.5536023 L13.3955049,20.6053099 C13.5966316,20.7729903 13.8515595,20.8652593 14.1133918,20.8652593 L14.1133918,20.8652593 L16.4613645,20.8652593 C16.6011579,20.8652593 16.7394269,20.8378207 16.8688187,20.7873372 L16.8688187,20.7873372 L16.8688187,17.5969279 C16.8688187,15.93223 18.2231735,14.5777856 19.887961,14.5777856 L19.887961,14.5777856 L20.7104016,14.5777856 L20.8640039,13.6174347 C20.4449825,13.4483197 20.1288109,13.0727875 20.0503509,12.6020273 L20.0503509,12.6020273 L19.7173216,10.6033138 C19.3324639,10.5304133 18.9717271,10.3703548 18.661115,10.137037 Z M8.28206238,13.7878947 C8.13303314,13.876577 8.03188694,14.0375322 8.03188694,14.2231462 L8.03188694,14.2231462 L8.03188694,15.4499922 C8.03188694,15.730117 8.25982456,15.9579649 8.53985965,15.9579649 L8.53985965,15.9579649 L8.62934893,15.9579649 Z M22.2928733,13.7878947 L22.1664405,14.5777856 L22.5430487,14.5777856 L22.5430487,14.2231462 C22.5430487,14.0375322 22.4419025,13.876577 22.2928733,13.7878947 L22.2928733,13.7878947 Z M15.287423,1.44689279 C14.8503782,1.44689279 14.4302807,1.61538012 14.1043353,1.92123977 C13.9304678,2.08443665 13.6868382,2.15070175 13.4545068,2.09842495 C13.3400897,2.07269006 13.2373294,2.06013645 13.1403977,2.06013645 C12.7659415,2.06013645 12.4112125,2.20575828 12.1416686,2.47010136 C12.004117,2.60505263 11.8199376,2.67804288 11.6256257,2.6757115 C11.6115478,2.67553216 11.5975595,2.67490448 11.5836608,2.67391813 C11.1211501,2.68369201 10.7095712,2.98461988 10.5547135,3.42919688 C10.4489045,3.73299415 10.1549708,3.92874074 9.83306043,3.91026901 C9.80176608,3.90838596 9.77100975,3.90497856 9.74043275,3.9008538 C9.13409357,3.91484211 8.64522027,4.41241326 8.64522027,5.02198051 C8.64522027,5.16123587 8.67310721,5.30138791 8.72825341,5.43831189 C8.80474074,5.6288577 8.79613255,5.84307602 8.70449123,6.02680702 C8.61302924,6.21062768 8.4471423,6.34638596 8.24897466,6.40009747 C7.75992203,6.53244834 7.41846394,6.97469396 7.41846394,7.47558285 C7.41846394,7.82322807 7.57762573,8.07295517 7.71123197,8.22126706 C7.95755166,8.49475634 7.95755166,8.91010136 7.71132164,9.18359064 C7.57780507,9.33190253 7.41846394,9.58162963 7.41846394,9.92927485 C7.41846394,10.4011111 7.72217154,10.8238986 8.17410136,10.9813567 C8.48561014,11.0899454 8.68332943,11.3967018 8.65346979,11.7252476 C8.65149708,11.747306 8.64880702,11.7690058 8.64593762,11.7907953 C8.65517349,12.0090487 8.80805848,12.1985185 9.0237115,12.2559064 C9.04675634,12.2620039 9.73415595,12.2774269 9.73415595,12.2774269 L9.73415595,12.2774269 L10.1474386,9.79692398 C10.2085926,9.43017934 10.5401871,9.17005068 10.9100702,9.1982963 C10.9434269,9.20080702 10.9763353,9.20484211 11.0089747,9.20932554 L11.0089747,9.20932554 C11.3814581,9.20331774 11.7221988,9.01617934 11.9277193,8.7062846 C12.0608772,8.50560624 12.2858558,8.38482261 12.5267953,8.38482261 C12.7678246,8.38482261 12.9926238,8.50560624 13.1258713,8.70637427 C13.3351579,9.02182846 13.6844172,9.21013255 14.0603977,9.21013255 C14.4364678,9.21013255 14.7857271,9.02182846 14.994924,8.70637427 C15.1280819,8.50569591 15.3530604,8.38491228 15.594,8.38491228 C15.8350292,8.38491228 16.0598285,8.50569591 16.193076,8.70646394 C16.4023626,9.02191813 16.7516218,9.21022222 17.1276023,9.21022222 C17.5036725,9.21022222 17.8529318,9.02191813 18.0621287,8.70646394 C18.1952865,8.50578558 18.4202651,8.38500195 18.6612047,8.38500195 C18.9022339,8.38500195 19.1270331,8.50578558 19.2602807,8.70655361 C19.4657115,9.01644834 19.8064522,9.20358674 20.1748109,9.21013255 L20.1748109,9.21013255 C20.2118441,9.20511111 20.2444834,9.20107602 20.2778402,9.1985653 C20.6478129,9.17076803 20.9794074,9.43035867 21.0405614,9.79719298 L21.0405614,9.79719298 L21.4539337,12.2774269 C21.4539337,12.2774269 22.141423,12.2619142 22.1644678,12.2558168 C22.3803002,12.1984288 22.5330955,12.0091384 22.5426004,11.790885 C22.5395517,11.7690955 22.5368616,11.7472164 22.5348889,11.7251579 C22.5050292,11.3966121 22.7027485,11.0898558 23.0142573,10.9812671 C23.4661871,10.8238986 23.7698051,10.4010214 23.7698051,9.92918519 C23.7698051,9.58153996 23.6106433,9.33181287 23.477037,9.18350097 C23.2307173,8.9100117 23.2307173,8.494577 23.477037,8.22117739 C23.6105536,8.0728655 23.7698051,7.8231384 23.7698051,7.47549318 C23.7698051,6.97460429 23.4282573,6.53235867 22.939384,6.4000078 C22.7411267,6.34638596 22.5753294,6.21053801 22.4836881,6.02671735 C22.3920468,5.84289669 22.3834386,5.62867836 22.4600156,5.43813255 C22.5150721,5.30129825 22.5429591,5.1611462 22.5429591,5.02189084 C22.5429591,4.41232359 22.0539961,3.91466277 21.4476569,3.90076413 C21.4134035,3.90524756 21.3845302,3.90847563 21.3552086,3.91017934 C21.0335673,3.92936842 20.7393645,3.73281481 20.6335556,3.42910721 C20.4760975,2.97726706 20.0532203,2.67364912 19.581384,2.67364912 C19.475306,2.67364912 19.366538,2.69292788 19.2490721,2.73247173 C18.9782729,2.82375439 18.6790487,2.7460117 18.4869786,2.53430409 C18.2096335,2.22862378 17.8358051,2.06022612 17.4343587,2.06022612 C17.3374269,2.06022612 17.2346667,2.07269006 17.1202495,2.09851462 C16.8877388,2.15088109 16.6441988,2.08452632 16.4704211,1.92132943 C16.1445653,1.61538012 15.7244678,1.44689279 15.287423,1.44689279 Z" id="Combined-Shape"></path>
        </g>
    </g>
</svg>