<?xml version="1.0" encoding="UTF-8"?>
<svg width="46px" height="46px" viewBox="0 0 46 46" version="1.1" xmlns="http://www.w3.org/2000/svg" xmlns:xlink="http://www.w3.org/1999/xlink">
    <!-- Generator: Sketch 63.1 (92452) - https://sketch.com -->
    <title>feature/4</title>
    <desc>Created with Sketch.</desc>
    <g id="feature/4" stroke="none" stroke-width="1" fill="none" fill-rule="evenodd">
        <g id="012-money" transform="translate(2.000000, 2.000000)" fill-rule="nonzero">
            <path d="M6.93179259,37.0684519 C6.78031852,36.9168148 6.5700963,36.8297111 6.3558,36.8297111 C6.1415037,36.8297111 5.93128148,36.9168148 5.77972593,37.0684519 C5.62817037,37.2200889 5.54098519,37.4302296 5.54098519,37.6445259 C5.54098519,37.8588222 5.62808889,38.0690444 5.77972593,38.2205185 C5.93128148,38.3720741 6.1415037,38.4593407 6.3558,38.4593407 C6.5700963,38.4593407 6.78031852,38.3721556 6.93179259,38.2205185 C7.08334815,38.0690444 7.17061481,37.8588222 7.17061481,37.6445259 C7.17061481,37.4302296 7.08342963,37.2200074 6.93179259,37.0684519 Z" id="Path" fill="#007AC0"></path>
            <path d="M38.2575111,14.9060593 C38.1059556,14.7544222 37.8965481,14.6673185 37.681437,14.6673185 C37.4671407,14.6673185 37.2569185,14.7544222 37.105363,14.9060593 C36.9538889,15.0576148 36.8666222,15.267837 36.8666222,15.4821333 C36.8666222,15.6964296 36.9538074,15.9066519 37.105363,16.0581259 C37.2569185,16.2096815 37.4671407,16.2969481 37.681437,16.2969481 C37.8965481,16.2969481 38.1059556,16.209763 38.2575111,16.0581259 C38.4098,15.9066519 38.4969852,15.6964296 38.4969852,15.4821333 C38.4969852,15.267837 38.4098,15.0576148 38.2575111,14.9060593 Z" id="Path" fill="#EC0000"></path>
            <path d="M41.4793704,0.238659259 C41.3265111,0.0858814815 41.1192222,0 40.9030519,0 L20.8590963,0.00105925926 C20.4091556,0.00105925926 20.044363,0.365933333 20.044363,0.815874074 L20.044363,3.146 L12.3208148,5.21554815 C11.8861111,5.33206667 11.6281407,5.77882963 11.7446593,6.21345185 L15.7476,21.1524296 L12.2847185,24.6153111 C11.8439852,23.9717704 11.1039704,23.5485556 10.2669111,23.5485556 L2.44493333,23.5485556 C1.09706667,23.5485556 0.00057037037,24.6451333 0.00057037037,25.9929185 L0.00057037037,39.2740741 C0.00057037037,40.6219407 1.09706667,41.7186 2.44493333,41.7186 L10.2669926,41.7186 C11.4120519,41.7186 12.3753259,40.9268444 12.6393259,39.8623704 L13.6081407,40.7072519 C14.3560593,41.3594296 15.3142815,41.7186 16.3066444,41.7186 L40.9032148,41.7186 C41.3531556,41.7186 41.7180296,41.3537259 41.7180296,40.9037852 L41.7180296,0.814814815 C41.7180296,0.598725926 41.6321481,0.391437037 41.4793704,0.238659259 Z M11.0817259,39.2741556 C11.0817259,39.723363 10.7161185,40.0889704 10.2668296,40.0889704 L2.44485185,40.0889704 C1.99556296,40.0889704 1.63003704,39.7234444 1.63003704,39.2741556 L1.63003704,25.993 C1.63003704,25.5437111 1.99556296,25.1781852 2.44485185,25.1781852 L5.54106667,25.1781852 L5.54106667,34.5644444 C5.54106667,35.0143852 5.90594074,35.3792593 6.35588148,35.3792593 C6.80582222,35.3792593 7.1706963,35.0143852 7.1706963,34.5644444 L7.1706963,25.1781852 L10.2669111,25.1781852 C10.7162,25.1781852 11.0817259,25.5437111 11.0817259,25.993 L11.0817259,39.2741556 L11.0817259,39.2741556 Z M13.5295926,6.57873333 L20.044363,4.83307407 L20.044363,7.85237037 L19.4982741,7.99871111 C19.289437,8.05468889 19.111563,8.19117037 19.0035185,8.37833333 C18.8954741,8.5654963 18.8661407,8.78785926 18.9221185,8.99661481 C19.2352519,10.1651407 18.5393185,11.3704963 17.3707926,11.6836296 C17.1617926,11.7396889 16.9835926,11.8764148 16.8756296,12.0639852 C16.7676667,12.2514741 16.7385778,12.4742444 16.7950444,12.683163 L19.9711111,24.444037 L18.3357778,24.444037 L17.4930148,21.1469704 C17.4662074,21.0420222 17.4192741,20.9453037 17.3564519,20.8612148 L13.5295926,6.57873333 Z M20.044363,11.5890296 L20.044363,18.4645185 L18.5582222,12.9616667 C19.1790296,12.6411185 19.6870667,12.1615185 20.044363,11.5890296 Z M31.7503185,40.0888889 L16.3064815,40.0888889 L16.3064815,40.0888889 C15.708,40.0888889 15.1300519,39.8723111 14.6789704,39.479 L12.7112741,37.7629185 L12.7112741,26.4934593 L16.2685926,22.9361407 L16.913763,25.460437 C17.006,25.8211556 17.3308667,26.0734222 17.7031556,26.0734222 L33.7227407,26.0744 C34.3517778,26.0744 34.8634815,26.5861037 34.8634815,27.2151407 C34.8634815,27.8441778 34.3517778,28.3558815 33.7227407,28.3558815 L25.5142963,28.3558815 C25.0643556,28.3558815 24.6994815,28.7207556 24.6994815,29.1706963 C24.6994815,29.620637 25.0643556,29.9855111 25.5142963,29.9855111 L36.2731111,29.9855111 C36.9021481,29.9855111 37.4138519,30.4972148 37.4138519,31.1262519 C37.4138519,31.7552889 36.9021481,32.2669926 36.2731111,32.2669926 L25.5142963,32.2669926 C25.0643556,32.2669926 24.6994815,32.6318667 24.6994815,33.0818074 C24.6994815,33.5317481 25.0643556,33.8966222 25.5142963,33.8966222 L34.5296519,33.8966222 C35.1586889,33.8966222 35.6703926,34.4083259 35.6703926,35.037363 C35.6703926,35.6664 35.1586889,36.1781037 34.5296519,36.1781037 L25.5142963,36.1781037 C25.0643556,36.1781037 24.6994815,36.5429778 24.6994815,36.9929185 C24.6994815,37.4428593 25.0643556,37.8077333 25.5142963,37.8077333 L31.7503185,37.8077333 C32.3793556,37.8077333 32.8910593,38.319437 32.8910593,38.9484741 C32.8909778,39.5771852 32.3792741,40.0888889 31.7503185,40.0888889 Z M40.0884,40.0888889 L40.0884,40.0888889 L34.2738815,40.0888889 C34.4318741,39.7407185 34.5206074,39.3547407 34.5206074,38.9481481 C34.5206074,38.5415556 34.4318741,38.1555778 34.2738815,37.8074074 L34.5296519,37.8074074 C36.0571852,37.8074074 37.2999407,36.5646519 37.2999407,35.0371185 C37.2999407,34.5915778 37.1936074,34.170563 37.0058741,33.7972148 C38.1788815,33.475037 39.0433185,32.3998889 39.0433185,31.1260889 C39.0433185,30.5081333 38.8397778,29.9368667 38.4964963,29.4756815 L38.4964963,19.1487185 C38.4964963,18.6987778 38.1316222,18.3339037 37.6816815,18.3339037 C37.2317407,18.3339037 36.8668667,18.6987778 36.8668667,19.1487185 L36.8668667,28.4206593 C36.6753852,28.3786963 36.4768148,28.3558815 36.2729481,28.3558815 L36.2462222,28.3558815 C36.4042148,28.0077111 36.4929481,27.6217333 36.4929481,27.2151407 C36.4929481,25.6875259 35.2501926,24.4448519 33.7226593,24.4448519 L32.4128444,24.4448519 C33.8036519,23.8484074 34.7804519,22.4659926 34.7804519,20.8592593 C34.7804519,18.7090444 33.0312074,16.9597185 30.8809926,16.9597185 C28.7308593,16.9597185 26.9815333,18.7090444 26.9815333,20.8592593 C26.9815333,22.4659926 27.9584148,23.8484074 29.3491407,24.4448519 L24.8951185,24.4448519 L24.8951185,8.9518 C26.3507037,8.63459259 27.4992667,7.48611111 27.8163926,6.03044444 L33.9455111,6.03044444 C34.262637,7.48611111 35.4112,8.63459259 36.8667852,8.9518 L36.8667852,11.4850593 C36.8667852,11.935 37.2316593,12.2998741 37.6816,12.2998741 C38.1315407,12.2998741 38.4964148,11.935 38.4964148,11.4850593 L38.4964148,8.22433333 C38.4964148,7.77439259 38.1315407,7.40951852 37.6816,7.40951852 C36.4718444,7.40951852 35.4877926,6.4253037 35.4877926,5.21562963 C35.4877926,4.76568889 35.1229185,4.40081481 34.6729778,4.40081481 L27.0890074,4.40081481 C26.6390667,4.40081481 26.2741926,4.76568889 26.2741926,5.21562963 C26.2741926,6.42538519 25.2900593,7.40951852 24.0803852,7.40951852 C23.6304444,7.40951852 23.2655704,7.77439259 23.2655704,8.22433333 L23.2655704,24.4447704 L21.6740741,24.4447704 L21.6740741,1.63052593 L40.0884,1.62962963 L40.0884,40.0888889 Z M30.8811556,23.1291704 C29.6295185,23.1291704 28.6113259,22.1108963 28.6113259,20.8593407 C28.6113259,19.6077852 29.6296,18.5894296 30.8811556,18.5894296 C32.1327111,18.5894296 33.1509852,19.6077037 33.1509852,20.8592593 C33.1509852,22.1108148 32.1327926,23.1291704 30.8811556,23.1291704 Z" id="Shape" fill="#007AC0"></path>
        </g>
    </g>
</svg>