<?xml version="1.0" encoding="UTF-8"?>
<svg width="46px" height="46px" viewBox="0 0 46 46" version="1.1" xmlns="http://www.w3.org/2000/svg" xmlns:xlink="http://www.w3.org/1999/xlink">
    <!-- Generator: Sketch 63.1 (92452) - https://sketch.com -->
    <title>feature/5</title>
    <desc>Created with Sketch.</desc>
    <g id="feature/5" stroke="none" stroke-width="1" fill="none" fill-rule="evenodd">
        <g id="010-book" transform="translate(5.000000, 2.000000)" fill="#007AC0" fill-rule="nonzero">
            <path d="M14.6123185,19.4686148 L18.7841704,19.4686148 C19.1679481,19.4686148 19.4794519,19.1571111 19.4794519,18.7733333 C19.4794519,18.3895556 19.1679481,18.0780519 18.7841704,18.0780519 L14.6123185,18.0780519 C14.2285407,18.0780519 13.917037,18.3895556 13.917037,18.7733333 C13.917037,19.1571111 14.2285407,19.4686148 14.6123185,19.4686148 Z" id="Path"></path>
            <path d="M35.4715778,5.5624963 L14.6123185,5.5624963 C14.2285407,5.5624963 13.917037,5.874 13.917037,6.25777778 C13.917037,6.64155556 14.2285407,6.95305926 14.6123185,6.95305926 L34.7762963,6.95305926 L34.7762963,38.2419481 C34.7762963,39.3530296 33.8014519,40.3278741 32.6903704,40.3278741 L3.48740741,40.3278741 C2.37632593,40.3278741 1.40148148,39.3530296 1.40148148,38.2419481 L1.40148148,6.31546667 C1.84857037,6.61719259 2.34291852,6.7944963 2.79212593,6.88217037 L2.79212593,38.2419481 C2.79212593,38.6257259 3.10362963,38.9372296 3.48740741,38.9372296 C3.87118519,38.9372296 4.18268889,38.6257259 4.18268889,38.2419481 L4.18268889,6.25777778 C4.18268889,5.87677037 3.87191852,5.56665185 3.49082963,5.5624963 C3.14176296,5.55834074 1.4014,5.43945926 1.4014,3.47657037 L1.4014,2.78128889 C1.4014,2.01438519 2.02505926,1.39064444 2.79204444,1.39064444 L35.4715778,1.39064444 C35.8553556,1.39064444 36.1669407,1.07914074 36.1669407,0.695362963 C36.1669407,0.311585185 35.855437,0 35.4715778,0 L2.79212593,0 C1.25823704,0 0.010837037,1.2474 0.010837037,2.78120741 L0.010837037,38.2419481 C0.010837037,40.1262889 1.60314815,41.7185185 3.48740741,41.7185185 L32.6903704,41.7185185 C34.5746296,41.7185185 36.1669407,40.1262889 36.1669407,38.2419481 L36.1669407,6.25777778 C36.1669407,5.874 35.855437,5.5624963 35.4715778,5.5624963 Z" id="Path"></path>
            <path d="M34.7762963,3.47657037 C34.7762963,3.09279259 34.4647926,2.78128889 34.0810148,2.78128889 L11.8311111,2.78128889 C11.4473333,2.78128889 11.1358296,3.09279259 11.1358296,3.47657037 L11.1358296,10.141837 L9.54148148,8.54740741 C9.26957778,8.2755037 8.83014815,8.2755037 8.55832593,8.54740741 L6.96397778,10.1417556 L6.96397778,3.47657037 C6.96397778,3.09279259 6.65247407,2.78128889 6.2686963,2.78128889 L3.48740741,2.78128889 C3.10362963,2.78128889 2.79212593,3.09279259 2.79212593,3.47657037 C2.79212593,3.86034815 3.10362963,4.17185185 3.48740741,4.17185185 L5.57333333,4.17185185 L5.57333333,11.8202741 C5.57333333,12.1012222 5.74297778,12.3549556 6.00233333,12.4627556 C6.26234074,12.5698222 6.56064444,12.5107481 6.76019259,12.3118519 L9.04982222,10.0222222 L11.3394519,12.3118519 C11.4722667,12.4446667 11.6502222,12.5155556 11.8310296,12.5155556 C11.9207407,12.5155556 12.0111037,12.4982 12.0973111,12.4626741 C12.3566667,12.3548741 12.5263111,12.1011407 12.5263111,11.8201926 L12.5263111,4.17185185 L34.0808519,4.17185185 C34.4647926,4.17185185 34.7762963,3.86034815 34.7762963,3.47657037 Z" id="Path"></path>
            <path d="M9.74518519,14.6014815 L9.74518519,25.7263926 C9.74518519,26.1101704 10.0566889,26.4216741 10.4404667,26.4216741 L25.7372296,26.4216741 C26.1210074,26.4216741 26.4325111,26.1101704 26.4325111,25.7263926 L26.4325111,14.6014815 C26.4325111,14.2177037 26.1210074,13.9062 25.7372296,13.9062 L10.4404667,13.9062 C10.0566889,13.9062 9.74518519,14.2177037 9.74518519,14.6014815 Z M11.1358296,15.296763 L25.0420296,15.296763 L25.0420296,25.0311111 L11.1358296,25.0311111 L11.1358296,15.296763 Z" id="Shape"></path>
            <path d="M21.5654593,20.8592593 L14.6124,20.8592593 C14.2286222,20.8592593 13.9171185,21.170763 13.9171185,21.5545407 C13.9171185,21.9383185 14.2286222,22.2498222 14.6124,22.2498222 L21.5654593,22.2498222 C21.949237,22.2498222 22.2607407,21.9383185 22.2607407,21.5545407 C22.2607407,21.170763 21.949237,20.8592593 21.5654593,20.8592593 Z" id="Path"></path>
        </g>
    </g>
</svg>