<?xml version="1.0" encoding="UTF-8"?>
<svg width="46px" height="46px" viewBox="0 0 46 46" version="1.1" xmlns="http://www.w3.org/2000/svg" xmlns:xlink="http://www.w3.org/1999/xlink">
    <!-- Generator: Sketch 63.1 (92452) - https://sketch.com -->
    <title>feature/6</title>
    <desc>Created with Sketch.</desc>
    <g id="feature/6" stroke="none" stroke-width="1" fill="none" fill-rule="evenodd">
        <g id="001-teacher" fill="#007AC0" fill-rule="nonzero">
            <path d="M23.9532164,14.2222222 L23.9532164,13.4736842 C23.9533099,13.0603977 23.6183392,12.7252398 23.2050526,12.7251462 C23.2049591,12.7251462 23.2047719,12.7251462 23.2046784,12.7251462 L12.3205614,12.7251462 C13.9799766,10.8815906 13.8307368,8.04182456 11.9870877,6.38231579 C10.1435322,4.72290058 7.30376608,4.87214035 5.64425731,6.71578947 C4.09702924,8.43461988 4.10807018,11.0474854 5.6697076,12.7532164 C2.87653801,13.0407485 0.752,15.3922807 0.748538012,18.2003275 L0.748538012,26.1988304 C0.748444444,26.612117 1.0834152,26.9472749 1.49670175,26.9473684 C1.49679532,26.9473684 1.49698246,26.9473684 1.49707602,26.9473684 L3.74269006,26.9473684 L3.74269006,36.6783626 L0.748538012,36.6783626 C0.335251462,36.678269 -1.95977918e-08,37.0132398 -1.95977918e-08,37.4265263 C-1.95977918e-08,37.4266199 -1.95977918e-08,37.426807 -1.95977918e-08,37.4269006 L-1.95977918e-08,44.1637427 C-1.95977918e-08,44.5770292 0.334877193,44.9122807 0.748163743,44.9122807 C0.74825731,44.9122807 0.748444444,44.9122807 0.748538012,44.9122807 L17.2163743,44.9122807 C17.6296608,44.9122807 17.9648187,44.5774035 17.9649123,44.164117 C17.9649123,44.1640234 17.9649123,44.1638363 17.9649123,44.1637427 L17.9649123,37.4269006 C17.9650058,37.013614 17.6300351,36.6784561 17.2167485,36.6783626 C17.216655,36.6783626 17.2164678,36.6783626 17.2163743,36.6783626 L14.2222222,36.6783626 L14.2222222,17.2163743 L23.2046784,17.2163743 C23.6179649,17.2164678 23.9531228,16.8814971 23.9532164,16.4682105 C23.9532164,16.468117 23.9532164,16.4679298 23.9532164,16.4678363 L23.9532164,15.7192982 L40.4210526,15.7192982 L40.4210526,14.2222222 L23.9532164,14.2222222 Z M8.98245614,6.73684211 C10.6360702,6.73684211 11.9766082,8.07738012 11.9766082,9.73099415 C11.9766082,11.3846082 10.6360702,12.7251462 8.98245614,12.7251462 C7.32884211,12.7251462 5.98830409,11.3846082 5.98830409,9.73099415 C5.99008187,8.07812865 7.32959064,6.73861988 8.98245614,6.73684211 Z M16.4678363,38.1754386 L16.4678363,43.4152047 L1.49707602,43.4152047 L1.49707602,38.1754386 L16.4678363,38.1754386 Z M22.4561404,15.7192982 L13.4736842,15.7192982 C13.0603977,15.7192047 12.7252398,16.0541754 12.7251462,16.467462 C12.7251462,16.4675556 12.7251462,16.4677427 12.7251462,16.4678363 L12.7251462,36.6783626 L9.73099415,36.6783626 L9.73099415,25.4502924 L8.23391813,25.4502924 L8.23391813,36.6783626 L5.23976608,36.6783626 L5.23976608,17.2163743 L3.74269006,17.2163743 L3.74269006,25.4502924 L2.24561404,25.4502924 L2.24561404,18.2003275 C2.24804678,16.0043041 4.02769591,14.2247485 6.2237193,14.2222222 L22.4561404,14.2222222 L22.4561404,15.7192982 Z" id="Shape"></path>
            <path d="M30.6904327,-1.95968823e-08 C30.6903392,-1.95968823e-08 30.690152,-1.95968823e-08 30.6900585,-1.95968823e-08 L17.9649123,-1.95968823e-08 C17.5516257,-1.95968823e-08 17.2164678,0.334877193 17.2163743,0.748163743 C17.2163743,0.74825731 17.2163743,0.748444444 17.2163743,0.748538012 L17.2163743,3.36842105 L14.5219181,5.38966082 C14.1911579,5.63723977 14.1236959,6.10610526 14.3712749,6.43695906 C14.4745731,6.57487719 14.6222222,6.67293567 14.7894269,6.7145731 L17.2163743,7.32126316 L17.2163743,10.4795322 C17.2162807,10.8928187 17.5512515,11.2280702 17.964538,11.2280702 C17.9646316,11.2280702 17.9648187,11.2280702 17.9649123,11.2280702 L30.6900585,11.2280702 C31.103345,11.2280702 31.4385965,10.893193 31.4385965,10.4799064 C31.4385965,10.4798129 31.4385965,10.4796257 31.4385965,10.4795322 L31.4385965,0.748538012 C31.4385965,0.335251462 31.1037193,-1.95968823e-08 30.6904327,-1.95968823e-08 Z M29.9415205,9.73099415 L18.7134503,9.73099415 L18.7134503,6.73684211 C18.7133567,6.39326316 18.4795322,6.09384795 18.146152,6.0105731 L16.678269,5.64360234 L18.4136608,4.34133333 C18.602386,4.20023392 18.7134503,3.9782924 18.7134503,3.74269006 L18.7134503,1.49707602 L29.9415205,1.49707602 L29.9415205,9.73099415 Z" id="Shape"></path>
            <path d="M27.1666901,3.21347368 L23.9532164,6.42694737 L22.2368187,4.71054971 L21.178386,5.76898246 L23.424,8.01459649 C23.5641637,8.15522807 23.7546667,8.23410526 23.9532164,8.23391846 C24.1517661,8.23410526 24.342269,8.15522807 24.4824327,8.01459649 L28.2251228,4.27190643 L27.1666901,3.21347368 Z" id="Path"></path>
            <path d="M34.2780819,36.5698246 C35.4617076,35.4150175 35.4850058,33.519345 34.3301988,32.3358129 C33.1753918,31.1521871 31.2797193,31.1288889 30.0961871,32.2836959 C28.9125614,33.4385029 28.8892632,35.3341754 30.0440702,36.5177076 C30.061193,36.5352982 30.0785965,36.5527018 30.0961871,36.5698246 C29.0638596,37.2650292 28.4448187,38.4279766 28.4444444,39.6725146 L28.4444444,44.1637427 C28.4443509,44.5770292 28.7793216,44.9122807 29.1926082,44.9122807 C29.1927018,44.9122807 29.1928889,44.9122807 29.1929825,44.9122807 L35.1812865,44.9122807 C35.5945731,44.9122807 35.929731,44.5774035 35.9298246,44.164117 C35.9298246,44.1640234 35.9298246,44.1638363 35.9298246,44.1637427 L35.9298246,39.6725146 C35.9294503,38.4279766 35.3104094,37.2650292 34.2780819,36.5698246 Z M32.1871345,32.9356725 C33.0139883,32.9356725 33.6842105,33.6058947 33.6842105,34.4327485 C33.6842105,35.2596023 33.0139883,35.9298246 32.1871345,35.9298246 C31.3602807,35.9298246 30.6900585,35.2596023 30.6900585,34.4327485 C30.6909942,33.6063626 31.3607485,32.9366082 32.1871345,32.9356725 Z M34.4327485,43.4152047 L29.9415205,43.4152047 L29.9415205,39.6725146 C29.9415205,38.4322807 30.9469006,37.4269006 32.1871345,37.4269006 C33.4273684,37.4269006 34.4327485,38.4322807 34.4327485,39.6725146 L34.4327485,43.4152047 Z" id="Shape"></path>
            <path d="M43.260538,36.5698246 C44.4441637,35.4150175 44.467462,33.519345 43.312655,32.3358129 C42.157848,31.1521871 40.2621754,31.1288889 39.0786433,32.2836959 C37.8950175,33.4385029 37.8717193,35.3341754 39.0265263,36.5177076 C39.0436491,36.5352982 39.0610526,36.5527018 39.0786433,36.5698246 C38.0463158,37.2650292 37.4272749,38.4279766 37.4269006,39.6725146 L37.4269006,44.1637427 C37.426807,44.5770292 37.7617778,44.9122807 38.1750643,44.9122807 C38.1751579,44.9122807 38.175345,44.9122807 38.1754386,44.9122807 L44.1637427,44.9122807 C44.5770292,44.9122807 44.9121871,44.5774035 44.9122807,44.164117 C44.9122807,44.1640234 44.9122807,44.1638363 44.9122807,44.1637427 L44.9122807,39.6725146 C44.9119064,38.4279766 44.2928655,37.2650292 43.260538,36.5698246 Z M41.1695906,32.9356725 C41.9964444,32.9356725 42.6666667,33.6058947 42.6666667,34.4327485 C42.6666667,35.2596023 41.9964444,35.9298246 41.1695906,35.9298246 C40.3427368,35.9298246 39.6725146,35.2596023 39.6725146,34.4327485 C39.6734503,33.6063626 40.3432047,32.9366082 41.1695906,32.9356725 Z M43.4152047,43.4152047 L38.9239766,43.4152047 L38.9239766,39.6725146 C38.9239766,38.4322807 39.9293567,37.4269006 41.1695906,37.4269006 C42.4098246,37.4269006 43.4152047,38.4322807 43.4152047,39.6725146 L43.4152047,43.4152047 Z" id="Shape"></path>
            <path d="M25.2956257,36.5698246 C26.4792515,35.4150175 26.5025497,33.519345 25.3477427,32.3358129 C24.1929357,31.1521871 22.2972632,31.1288889 21.113731,32.2836959 C19.9301053,33.4385029 19.906807,35.3341754 21.061614,36.5177076 C21.0787368,36.5352982 21.0961404,36.5527018 21.113731,36.5698246 C20.0814035,37.2650292 19.4623626,38.4279766 19.4619883,39.6725146 L19.4619883,44.1637427 C19.4618947,44.5770292 19.7968655,44.9122807 20.210152,44.9122807 C20.2102456,44.9122807 20.2104327,44.9122807 20.2105263,44.9122807 L26.1988304,44.9122807 C26.612117,44.9122807 26.9472749,44.5774035 26.9473684,44.164117 C26.9473684,44.1640234 26.9473684,44.1638363 26.9473684,44.1637427 L26.9473684,39.6725146 C26.9469942,38.4279766 26.3279532,37.2650292 25.2956257,36.5698246 Z M23.2046784,32.9356725 C24.0315322,32.9356725 24.7017544,33.6058947 24.7017544,34.4327485 C24.7017544,35.2596023 24.0315322,35.9298246 23.2046784,35.9298246 C22.3778246,35.9298246 21.7076023,35.2596023 21.7076023,34.4327485 C21.708538,33.6063626 22.3782924,32.9366082 23.2046784,32.9356725 Z M25.4502924,43.4152047 L20.9590643,43.4152047 L20.9590643,39.6725146 C20.9590643,38.4322807 21.9644444,37.4269006 23.2046784,37.4269006 C24.4449123,37.4269006 25.4502924,38.4322807 25.4502924,39.6725146 L25.4502924,43.4152047 Z" id="Shape"></path>
        </g>
    </g>
</svg>